<svg xmlns="http://www.w3.org/2000/svg" width="35.001" height="71.914" viewBox="0 0 35.001 71.914">
  <path id="face_icon" data-name="face icon" d="M32.222,258.131H19.234v-.3q0-16.509,0-33.014c0-.374.052-.337-.342-.337H10.34V212.187h8.894v-.3q0-5.048,0-10.094a16.067,16.067,0,0,1,1.513-6.97,14.088,14.088,0,0,1,7.9-7.232,20.01,20.01,0,0,1,5.322-1.237,41.978,41.978,0,0,1,6.222-.052c1.343.06,2.684.178,4.027.276.3.023.61.066.915.092.135.011.187.06.181.2-.043,1.622-.078,3.248-.118,4.87q-.078,3.068-.161,6.139c0,.086,0,.173,0,.288h-.325q-3.706-.017-7.416-.032a9.229,9.229,0,0,0-2.264.23,3.242,3.242,0,0,0-2.626,2.8,12.367,12.367,0,0,0-.178,2c-.02,2.925-.009,5.851-.009,8.776,0,.063.006.13.012.224h13.1c0,.44.017.849,0,1.254-.066,1.5-.141,2.995-.213,4.49q-.151,3.189-.3,6.377c-.006.129-.049.187-.181.175a2.248,2.248,0,0,0-.242,0H32.222Z" transform="translate(-10.34 -186.217)" fill="#ca9f44"/>
</svg>
