<svg xmlns="http://www.w3.org/2000/svg" width="71.839" height="71.915" viewBox="0 0 71.839 71.915">
  <g id="insta_icon" data-name="insta icon" transform="translate(0 0)">
    <path id="Path_85" data-name="Path 85" d="M39.757,143.454c6.176.158,11.216.173,16.238.446,6.291.342,11.708,2.621,15.6,7.83a19.631,19.631,0,0,1,3.587,9.1,100.363,100.363,0,0,1,.578,14.642q-.013,8.906-.152,17.806a25.893,25.893,0,0,1-2.048,10.537,18.456,18.456,0,0,1-13.569,10.727,51.186,51.186,0,0,1-10.845.82c-7.692.034-15.381-.029-23.076-.129a25.847,25.847,0,0,1-10.209-1.91,18.467,18.467,0,0,1-11.052-13.8A56.942,56.942,0,0,1,4,188.182c-.075-5.96-.095-11.923.014-17.881a76.949,76.949,0,0,1,.708-10.137,18.206,18.206,0,0,1,9.116-13.494,18.888,18.888,0,0,1,8.635-2.623c6.133-.314,12.28-.431,17.285-.593m-29.41,36.009c.043,0,.083,0,.127,0,0,2.9-.078,5.793.02,8.687a80.3,80.3,0,0,0,.641,9.714c.846,5.316,4.007,8.762,9.274,10.174a29.462,29.462,0,0,0,7.482.777q12.043.078,24.074-.009a36.542,36.542,0,0,0,6.366-.578,11.936,11.936,0,0,0,10.051-9.245,32.42,32.42,0,0,0,.811-8.12q.091-9.79.043-19.586a54.466,54.466,0,0,0-.607-10.148c-1.015-5.287-4.042-8.762-9.32-10.157a35.173,35.173,0,0,0-8.687-.811c-6.009-.066-12.015-.069-18.022-.049a62.215,62.215,0,0,0-11.072.616c-4.453.817-7.781,3.135-9.565,7.4a17.794,17.794,0,0,0-1.292,6.449c-.147,4.959-.221,9.921-.325,14.88" transform="translate(-3.937 -143.454)" fill="#fff"/>
    <path id="Path_86" data-name="Path 86" d="M28.427,186.43a18.429,18.429,0,1,1,18.456-18.37,18.4,18.4,0,0,1-18.456,18.37M16.489,168.009A11.962,11.962,0,1,0,28.5,156.045a11.986,11.986,0,0,0-12.012,11.964" transform="translate(7.474 -131.971)" fill="#fff"/>
    <path id="Path_87" data-name="Path 87" d="M21.586,152.071a4.322,4.322,0,0,1,8.644.1,4.322,4.322,0,1,1-8.644-.1" transform="translate(29.183 -135.263)" fill="#fff"/>
  </g>
</svg>
