<svg xmlns="http://www.w3.org/2000/svg" width="80.644" height="71.913" viewBox="0 0 80.644 71.913">
  <path id="reddit_icon" data-name="reddit icon" d="M2.406,130.772v-4.1a.54.54,0,0,0,.046.066l.046.04c.3-.164.25-.5.337-.759a8.8,8.8,0,0,1,13.974-4.076.771.771,0,0,0,1.136.026A35.45,35.45,0,0,1,25.513,118a46.425,46.425,0,0,1,15.036-3.058c.581-.026.846-.161.975-.8,1.346-6.6,2.733-13.189,4.119-19.782.342-1.628.946-2,2.551-1.663,4.436.941,8.874,1.867,13.3,2.842a.926.926,0,0,0,1.188-.475,6.3,6.3,0,1,1-.906,4.559c-.118-.621-.3-.938-.99-1.03-1.061-.141-2.1-.434-3.153-.659-2.767-.6-5.532-1.2-8.3-1.772-.357-.075-.794-.337-.944.38q-1.851,8.85-3.76,17.688c-.1.495-.012.713.538.731a40.26,40.26,0,0,1,4.154.362,41.3,41.3,0,0,1,18.134,6.651.868.868,0,0,0,1.26-.078,8.385,8.385,0,0,1,7.459-1.735,8.668,8.668,0,0,1,6.5,6.015c.063.184-.078.581.371.5v4.1a.519.519,0,0,0-.052-.06.323.323,0,0,0-.052-.035,1.419,1.419,0,0,0-.193.328,8.773,8.773,0,0,1-4.571,5.629c-.337.173-.342.4-.3.7a18.173,18.173,0,0,1-3.806,13.422,29.2,29.2,0,0,1-12.1,9.291,47.793,47.793,0,0,1-34.786,1.467,32.3,32.3,0,0,1-14.423-9.058c-3.872-4.318-5.9-9.306-5.189-15.2a.57.57,0,0,0-.357-.676,8.758,8.758,0,0,1-4.5-5.5c-.04-.135.052-.472-.311-.314m54.2,10.571a6.3,6.3,0,1,0-6.323-6.271,6.3,6.3,0,0,0,6.323,6.271m-27.8,0a6.3,6.3,0,1,0-6.256-6.331,6.315,6.315,0,0,0,6.256,6.331M42.675,156.33a31.165,31.165,0,0,0,7.482-.849A15.851,15.851,0,0,0,57.48,151.9a1.653,1.653,0,0,0,.265-2.436,1.6,1.6,0,0,0-2.436,0,10.465,10.465,0,0,1-3.564,2.1,27.57,27.57,0,0,1-14.334,1.01,14.371,14.371,0,0,1-7.516-3.3,1.522,1.522,0,0,0-2.192.181,1.578,1.578,0,0,0,.032,2.206,10.409,10.409,0,0,0,2.98,2.152,26.983,26.983,0,0,0,11.961,2.514" transform="translate(-2.406 -92.188)" fill="#ca9f44"/>
</svg>
