<svg xmlns="http://www.w3.org/2000/svg" width="88.25" height="71.912" viewBox="0 0 88.25 71.912">
  <path id="twitter_icon" data-name="twitter icon" d="M1.084,112.087a36.877,36.877,0,0,0,26.735-7.551c-8.328-.667-13.954-4.821-16.995-12.522,1.427.063,2.776.187,4.128.184a13.4,13.4,0,0,0,3.973-.662,18.131,18.131,0,0,1-10.387-6.38,17.713,17.713,0,0,1-4.065-11.48c1.338.495,2.638,1.053,3.978,1.464a13.839,13.839,0,0,0,4.171.613A18.176,18.176,0,0,1,4.8,63.034,17.8,17.8,0,0,1,7.047,51.571,51.989,51.989,0,0,0,44.554,70.553c-.1-.6-.181-1.084-.27-1.571a17.2,17.2,0,0,1-.069-4.643,17.73,17.73,0,0,1,3.158-8.362A17.378,17.378,0,0,1,58.641,48.6a17.786,17.786,0,0,1,16.572,5.028.627.627,0,0,0,.664.236,36.433,36.433,0,0,0,10.856-4.154c.069-.032.124-.06.3-.144a18.689,18.689,0,0,1-7.853,9.953,28.031,28.031,0,0,0,5.178-.981c1.683-.515,3.328-1.1,4.979-1.643a1.6,1.6,0,0,1-.187.273,36.162,36.162,0,0,1-8.42,8.69.659.659,0,0,0-.3.607c.006,1.421.066,2.828-.012,4.249-.127,1.815-.325,3.639-.572,5.454a48.468,48.468,0,0,1-2.39,9.455,53.084,53.084,0,0,1-9.55,16.813A48.562,48.562,0,0,1,48.487,116.5a45.067,45.067,0,0,1-10.212,2.839c-1.945.3-3.929.544-5.9.67a59.394,59.394,0,0,1-6.239.06,51.069,51.069,0,0,1-24.851-7.83,1.885,1.885,0,0,0-.2-.155" transform="translate(-1.084 -48.217)" fill="#ca9f44" fill-rule="evenodd"/>
</svg>
