<svg id="web_icon" data-name="web icon" xmlns="http://www.w3.org/2000/svg" width="64.644" height="71.915" viewBox="0 0 64.644 71.915">
  <path id="Path_80" data-name="Path 80" d="M17.467,236.9a4.938,4.938,0,1,1-4.939-4.93,4.939,4.939,0,0,1,4.939,4.93" transform="translate(-0.674 -231.974)" fill="#ca9f44"/>
  <path id="Path_81" data-name="Path 81" d="M12.977,239.658a2.871,2.871,0,1,1-2.871-2.871,2.869,2.869,0,0,1,2.871,2.871" transform="translate(-1.344 -222.942)" fill="#ca9f44"/>
  <path id="Path_82" data-name="Path 82" d="M11.225,237.4a3.019,3.019,0,1,1-3.02-3.02,3.018,3.018,0,0,1,3.02,3.02" transform="translate(-5.187 -227.457)" fill="#ca9f44"/>
  <path id="Path_83" data-name="Path 83" d="M32.167,243.906s.547,29.784-14,32.865c-4.513.949-8.523-4.1-5.083-7.747a7.484,7.484,0,0,1,2.747-1.818,8.048,8.048,0,0,1,7.939,2.172c.357.357.716.685,1.082.992a24.712,24.712,0,0,0,3.34-6.843.081.081,0,0,0-.043-.017c-.19-.118-.377-.221-.567-.325l.046-.063s-.069-.011-.2-.02a16.906,16.906,0,0,0-16.773.722c-3.38,2.974-5.678,7.3-1.824,13.868,2.526,4.286,9.93,5.31,15.016,1.22,7.8-6.282,12.628-21.079,8.319-35" transform="translate(-2.116 -209.583)" fill="#ca9f44"/>
  <path id="Path_84" data-name="Path 84" d="M51.2,250.856a7.17,7.17,0,0,1,5.894-3.673s-7.62-5.33-20.294-2.241l2.025-2.917s-5.894,1.76-6.924,1.47-1.473-2.362-2.062-2.652,5.891-7.223,8.7-7.068c0,0-7.807-4.424-16.949,8.7l-4.418,3.972.443,2.35s-3.535,5.014-4.275,4.864a20.251,20.251,0,0,0-3.389.15l2.8,2.649s2.068,1.772,3.245,1.772,1.916-3.834,5.451-4.421,2.8-3.383,2.8-3.383a19.121,19.121,0,0,1,5.451-1.464c2.5-.141,20.628.132,22.25,17.372,1.5,15.893-7.165,24.387-20.3,22.506A19.875,19.875,0,0,1,27.524,287a33.978,33.978,0,0,1-2.931,6.349c-.178.265-.362.521-.547.788a24.217,24.217,0,0,0,3.656,1.493c6.789,2.373,30.187,8.408,33.075-20.018,0,0,1.916-15.168-9.576-24.753" transform="translate(3.747 -229.941)" fill="#ca9f44"/>
</svg>
