<svg xmlns="http://www.w3.org/2000/svg" width="134" height="134" viewBox="0 0 134 134">
  <g id="discord_activo" data-name="discord activo" transform="translate(-663.493 -495.198)">
    <path id="Path_14" data-name="Path 14" d="M101.87,315.2a37.665,37.665,0,0,1,37.623,37.623V449.2H43.117A37.667,37.667,0,0,1,5.493,411.574V315.2ZM43.117,445.434h92.612V352.821a33.9,33.9,0,0,0-33.858-33.858H38.27q.625.671,1.216,1.379c.178.215.355.43.528.648.084.1.166.206.247.309.031.041.174.23.182.236.446.589.886,1.191,1.289,1.815a45.2,45.2,0,0,1-11.9,4.339,36.674,36.674,0,0,0-.01-8.726H26.638c.782,5.3-.07,10.934-1.433,15.975a40.206,40.206,0,0,1-15.947,1.4v2.745a33.889,33.889,0,0,0,4.612.311,39.555,39.555,0,0,0,4.388-.238,45.419,45.419,0,0,1-4.327,12.049l-.164-.105c-.352-.232-.7-.471-1.034-.717-.2-.145-.4-.294-.6-.442l-.031-.025-.023-.017c-.051-.04-.1-.078-.152-.115-.12-.1-.241-.19-.36-.287-.8-.638-1.563-1.319-2.308-2.022v64.1a33.9,33.9,0,0,0,33.859,33.859" transform="translate(658 180)" fill="#fff"/>
    <path id="Path_15" data-name="Path 15" d="M118.159,341.087c.867-.167,1.728-.352,2.585-.561a7.282,7.282,0,0,0,2.481-.73c.62-.475.736-1.934.91-2.66.2-.813.375-1.633.535-2.455.134-.7.258-1.416.366-2.13a47.062,47.062,0,0,0,7.374-2.029c.76,5.543-.156,11.43-1.58,16.7a42.938,42.938,0,0,1-16.779,1.517,45.979,45.979,0,0,0,1.988-7.288c.71-.108,1.415-.225,2.12-.36" transform="translate(564.633 180)" fill="#fff"/>
  </g>
</svg>
