<svg xmlns="http://www.w3.org/2000/svg" width="134" height="134" viewBox="0 0 134 134">
  <g id="eternl_activo" data-name="eternl activo" transform="translate(-660.621 -344.73)">
    <path id="Path_49" data-name="Path 49" d="M40.244,164.73A37.665,37.665,0,0,0,2.621,202.353V298.73H99a37.667,37.667,0,0,0,37.624-37.624V164.73ZM99,294.965H6.386V202.353a33.9,33.9,0,0,1,33.858-33.858h63.6c-.417.447-.822.908-1.216,1.379-.178.215-.355.43-.528.648-.084.1-.166.206-.247.309-.031.041-.174.23-.182.236-.446.589-.886,1.191-1.289,1.815a45.2,45.2,0,0,0,11.9,4.339,36.675,36.675,0,0,1,.01-8.726h3.186c-.782,5.3.07,10.934,1.433,15.975a40.206,40.206,0,0,0,15.947,1.4v2.745a33.886,33.886,0,0,1-4.612.311,39.548,39.548,0,0,1-4.388-.238,45.42,45.42,0,0,0,4.327,12.049l.164-.105c.352-.232.7-.471,1.034-.717.2-.145.4-.294.6-.442l.031-.025.023-.017c.051-.04.1-.078.152-.115.12-.1.241-.19.36-.286.8-.639,1.563-1.319,2.308-2.023v64.1A33.9,33.9,0,0,1,99,294.965" transform="translate(658 180)" fill="#fff"/>
    <path id="Path_50" data-name="Path 50" d="M125.7,190.619c-.867-.167-1.728-.352-2.585-.561a7.282,7.282,0,0,1-2.481-.73c-.62-.475-.736-1.934-.91-2.66q-.294-1.22-.535-2.455c-.134-.7-.258-1.416-.366-2.13a47.06,47.06,0,0,1-7.374-2.029c-.76,5.543.156,11.43,1.58,16.7a42.939,42.939,0,0,0,16.779,1.517,45.981,45.981,0,0,1-1.988-7.288c-.71-.108-1.415-.225-2.12-.36" transform="translate(649.618 180)" fill="#fff"/>
  </g>
</svg>
