<svg xmlns="http://www.w3.org/2000/svg" width="24.685" height="26.881" viewBox="0 0 24.685 26.881">
  <g id="checkpoint" transform="translate(-69.899 -597.593)">
    <path id="Path_77" data-name="Path 77" d="M102.143,595.593a12.44,12.44,0,1,1,0,24.881" transform="translate(-21 3)" fill="none" stroke="#cac6be" stroke-miterlimit="10" stroke-width="2"/>
    <path id="Path_78" data-name="Path 78" d="M101.992,618.063a10.094,10.094,0,0,1,0-20.187" transform="translate(-21 3)" fill="none" stroke="#cac6be" stroke-miterlimit="10" stroke-width="2"/>
    <path id="Path_79" data-name="Path 79" d="M101.692,612.863l-1.3-3.392a5.186,5.186,0,0,0-.584-1.011.814.814,0,0,0-.571-.324v-.26c.035,0,.109,0,.221-.013s.2-.013.26-.013a3.626,3.626,0,0,1,.965.123,2.035,2.035,0,0,1,.83.474,3.173,3.173,0,0,1,.694,1.024l.247,1.149,4.645-9.874H108.7l-5.643,12.117Z" transform="translate(-21 3)" fill="#cac6be"/>
  </g>
</svg>
