<svg xmlns="http://www.w3.org/2000/svg" xmlns:xlink="http://www.w3.org/1999/xlink" width="287.473" height="76.979" viewBox="0 0 287.473 76.979">
  <defs>
    <clipPath id="clip-path">
      <path id="Path_61" data-name="Path 61" d="M142.289,680.615v7.75l-.427.3a34.057,34.057,0,0,0,0,56.062l.427.3v7.749H394.981v-7.4l.442-.3a34.1,34.1,0,0,0,0-56.76l-.442-.3v-7.4Z" fill="none"/>
    </clipPath>
    <radialGradient id="radial-gradient" cx="0.5" cy="0.5" r="1.433" gradientTransform="matrix(0.255, 0, 0, -1, -0.334, 2.055)" gradientUnits="objectBoundingBox">
      <stop offset="0" stop-color="#14212c"/>
      <stop offset="1" stop-color="#0b1015"/>
    </radialGradient>
    <clipPath id="clip-path-2">
      <rect id="Rectangle_7" data-name="Rectangle 7" width="19.514" height="1.558" transform="translate(165.045 751.216)" fill="none"/>
    </clipPath>
    <clipPath id="clip-path-3">
      <rect id="Rectangle_8" data-name="Rectangle 8" width="127.233" height="72.159" transform="translate(184.082 680.615)" fill="none"/>
    </clipPath>
    <clipPath id="clip-path-4">
      <rect id="Rectangle_9" data-name="Rectangle 9" width="45.083" height="18.487" transform="translate(355.769 734.287)" fill="none"/>
    </clipPath>
    <clipPath id="clip-path-5">
      <rect id="Rectangle_10" data-name="Rectangle 10" width="26.824" height="4.401" transform="translate(283.376 680.615)" fill="none"/>
    </clipPath>
    <clipPath id="clip-path-6">
      <rect id="Rectangle_11" data-name="Rectangle 11" width="34.022" height="17.698" transform="translate(139.922 729.248)" fill="none"/>
    </clipPath>
    <clipPath id="clip-path-7">
      <rect id="Rectangle_12" data-name="Rectangle 12" width="9.044" height="1.893" transform="translate(385.937 748.606)" fill="none"/>
    </clipPath>
    <clipPath id="clip-path-8">
      <rect id="Rectangle_13" data-name="Rectangle 13" width="77.482" height="50.414" transform="translate(127.147 680.615)" fill="none"/>
    </clipPath>
    <clipPath id="clip-path-9">
      <rect id="Rectangle_14" data-name="Rectangle 14" width="114.141" height="74.98" transform="translate(296.277 677.794)" fill="none"/>
    </clipPath>
  </defs>
  <g id="boton" transform="translate(-368.147 -966.794)">
    <path id="Path_60" data-name="Path 60" d="M396.981,754.774H140.289v-8.711a36.051,36.051,0,0,1,0-58.736v-8.712H396.981v8.342a36.093,36.093,0,0,1,0,59.476Z" transform="translate(243 289)" fill="#ca9f44"/>
    <g id="Group_5" data-name="Group 5" transform="translate(243 289)">
      <g id="Group_4" data-name="Group 4" clip-path="url(#clip-path)">
        <rect id="Rectangle_4" data-name="Rectangle 4" width="283.472" height="72.159" transform="translate(127.148 680.615)" fill="url(#radial-gradient)"/>
      </g>
    </g>
    <g id="Group_14" data-name="Group 14" transform="translate(243 289)" opacity="0.05">
      <g id="Group_13" data-name="Group 13">
        <g id="Group_12" data-name="Group 12" clip-path="url(#clip-path-2)">
          <path id="Path_64" data-name="Path 64" d="M165.045,752.774h19.513a31.007,31.007,0,0,0-19.513,0" fill="#4a5362"/>
        </g>
      </g>
    </g>
    <g id="Group_17" data-name="Group 17" transform="translate(243 289)" opacity="0.05">
      <g id="Group_16" data-name="Group 16">
        <g id="Group_15" data-name="Group 15" clip-path="url(#clip-path-3)">
          <path id="Path_65" data-name="Path 65" d="M308.61,716.234l-2.858-3.3.985,4.335a5.561,5.561,0,0,1-.771,3.959c-1.084,1.611-3.151,2.608-6.143,2.963-6.267.742-14.119,5.3-16.411,11.65a10.242,10.242,0,0,0-.628,3.482,10.559,10.559,0,0,0,2.734,6.885c-5.754,4.085-14.984,7.194-29.691,5.735-2.7-.486-5.495-1.071-8.3-1.775,1.707-1.791,12.426-14.146,3.765-33.25l-.548-1.21-.171.123a37,37,0,0,0-3.8-11.02,8.565,8.565,0,0,0,1.188-2.7c.5.24,1,.476,1.467.734a8.532,8.532,0,0,0-.323,2.285c0,5.052,4.365,10.434,12.089,14.506,12.7,6.7,28.954,7.183,34.184-3.588l1.938-4-3.538,2.546a6.817,6.817,0,0,1-5.245.932c-2.491-.645-4.7-2.868-6.568-6.606-3.763-7.532-12.651-15.285-21.011-15.223-3.218.024-7.618,1.29-10.641,7.006-.671-.367-1.384-.713-2.088-1.064a8.491,8.491,0,0,0-2.957-6.16,5.705,5.705,0,0,1,1.914-2.005c8.859-4.472,12.561-7.894,13.919-10.862h-2.544c-1.491,2.237-4.908,5.065-12.364,8.828a7.652,7.652,0,0,0-2.755,2.833,7.736,7.736,0,0,0-2.307-.627,14.181,14.181,0,0,1-2.219-8.168,12.547,12.547,0,0,1,.526-2.866h-2.271a14.823,14.823,0,0,0-.437,2.736c-.019.3-.027.6-.027.9a16.342,16.342,0,0,0,1.9,7.468,7.708,7.708,0,0,0-1.656.552,72.874,72.874,0,0,1-10.108-11.653h-2.624a70.12,70.12,0,0,0,4.751,6.4,7.656,7.656,0,0,0-1.272-.278,70.9,70.9,0,0,0-16.866-6.125H191.684a80.241,80.241,0,0,1,31.889,6.676,8.445,8.445,0,0,0-4.951,7.767,8.629,8.629,0,0,0,.309,2.182,18.36,18.36,0,0,0-5.834,7.721l-.131-.057c-2.024,5.063-6.68,8.877-10.475,11.3a8.46,8.46,0,0,0-1.025-1.233,7.834,7.834,0,0,0-11.409.318,8.568,8.568,0,0,0-2.214,5.79c0,.077,0,.153,0,.23a8.073,8.073,0,1,0,16.137-.22c0-.077,0-.153,0-.229a8.734,8.734,0,0,0-.5-2.6,35.174,35.174,0,0,0,7.552-6.255c-.129.687-.249,1.386-.351,2.111a33.179,33.179,0,0,0-.34,4.675,26.441,26.441,0,0,0,6.2,17.3,34.974,34.974,0,0,0,5.868,5.539,8.034,8.034,0,0,1-2.824,6.277c-.03.025-.067.047-.1.071l-.684.049c-3.482.247-9.081-.058-10.043-1.5a4.026,4.026,0,0,1-.4-1.561c-.545-3.965-2.237-7.654-16.718-9.214-.353-.057-3.439-.621-3.091-3.6l.622-5.265-2.641,4.533a20.125,20.125,0,0,0-2.448,9.207,13.785,13.785,0,0,0,1.034,5.343,14.58,14.58,0,0,0,6.124,6.794h5.284c-4.827-1.743-7.985-4.318-9.4-7.691-1.445-3.449-.772-7.117.04-9.573a6.374,6.374,0,0,0,4.2,2.513c14.034,1.512,14.492,4.843,14.825,7.274a5.762,5.762,0,0,0,.77,2.544c.817,1.22,4.843,2.339,6.864,2.679.621,1.711-12.959.325-12.959.325,7.879,2.489,8.664,2.137,14.215,1.268a10.184,10.184,0,0,1-.952.661h3.561a12.371,12.371,0,0,0,1.524-1.97,10.42,10.42,0,0,0,1.728-1.11,9.976,9.976,0,0,0,3.539-6.579c6.92,4.633,15.521,7.663,23.881,9.659h28.394a32.438,32.438,0,0,0,10.472-5.063c3.575,2.165,8.983.506,14.409-4.618,8.17-7.715,13.008-19.872,6.97-26.859M251.418,703.97a103.747,103.747,0,0,1,11.98,8.162,37.627,37.627,0,0,0-11.152-10.338c2.024-3.815,4.949-5.784,8.724-5.813,6.628-.049,15.177,6.23,19.057,14,2.179,4.361,4.877,6.978,8.019,7.775a8.251,8.251,0,0,0,3.376.14c-6.045,6.253-19.1,5.056-29.243-.294-5.873-3.095-11.8-8.357-10.761-13.629m-55.347,23.26a6.009,6.009,0,0,1-6.04-5.976,6.313,6.313,0,0,1,1.612-4.391,5.714,5.714,0,0,1,8.319-.231,6.231,6.231,0,0,1,1.835,4.294c0,.055,0,.111,0,.167a6.034,6.034,0,0,1-5.728,6.137m44.116-33.4a6.148,6.148,0,1,1-5.884,6.142,6.025,6.025,0,0,1,5.884-6.142m-4.158,16.462a5.89,5.89,0,1,1-5.885-6.142,6.025,6.025,0,0,1,5.885,6.142m-9.338-21.377a6.149,6.149,0,1,1-5.884,6.143,6.025,6.025,0,0,1,5.884-6.143m-8.5,45.686c-4.647-5.624-6.444-12.405-5.347-20.149,1.011-7.124,3.371-12.131,6.966-15.056a8.031,8.031,0,0,0,5.763,3.968,8.521,8.521,0,0,0-3.5,6.928,8.077,8.077,0,1,0,16.14,0,8.622,8.622,0,0,0-.342-2.292,7.655,7.655,0,0,0,2.315.4,7.779,7.779,0,0,0,4.9-1.779,34.573,34.573,0,0,1,3.481,10.749c-2.247,1.942-7.189,6.964-8.326,14.4a20.238,20.238,0,0,0-.234,3.068c0,4.86,1.762,9.8,5.22,14.727-10.508-2.886-20.889-7.519-27.04-14.963m24.209-2.453a22.086,22.086,0,0,1,6.471-11.994c.356,4.994.423,16.557.423,16.557a53.006,53.006,0,0,0,1.875-13.87c3.987,13.42-2.125,22.2-4.486,24.954-3.612-5.311-5.052-10.571-4.283-15.647m57.775,9.253c-3.31,3.126-7.807,5.829-11.008,4.739a15.988,15.988,0,0,0,5.6-12.9,22.2,22.2,0,0,1-7.49,11.6c-2.235-2.583-2.849-5.341-1.817-8.2,1.76-4.872,8.315-9.442,14.614-10.189,3.661-.433,6.254-1.763,7.709-3.953a7.192,7.192,0,0,0,.856-1.785c1.95,6.107-2.332,14.893-8.461,20.682" fill="#4a5362"/>
        </g>
      </g>
    </g>
    <g id="Group_20" data-name="Group 20" transform="translate(243 289)" opacity="0.05">
      <g id="Group_19" data-name="Group 19">
        <g id="Group_18" data-name="Group 18" clip-path="url(#clip-path-4)">
          <path id="Path_66" data-name="Path 66" d="M373.923,741.375c-1.034,1.038-8.579-1.752-16.148-5.97l-2.006-1.118.417,2.333c1.049,5.872,4.48,11.6,8.334,16.154h2.925c-3.561-3.889-6.992-8.941-8.543-14.187,5.342,2.819,14.119,6.861,16.537,4.432,7-7.04,11.825-7.556,23.709-.849q.883-.787,1.7-1.63c-12.346-7.09-18.613-7.524-26.929.835" fill="#4a5362"/>
        </g>
      </g>
    </g>
    <g id="Group_23" data-name="Group 23" transform="translate(243 289)" opacity="0.05">
      <g id="Group_22" data-name="Group 22">
        <g id="Group_21" data-name="Group 21" clip-path="url(#clip-path-5)">
          <path id="Path_67" data-name="Path 67" d="M296.752,682.607a30.685,30.685,0,0,1-8.233-1.993h-5.143a31.507,31.507,0,0,0,13.174,4.264c6.613.64,11.572-.993,13.65-4.264h-2.943c-2.385,1.931-6.7,2.361-10.5,1.993" fill="#4a5362"/>
        </g>
      </g>
    </g>
    <g id="Group_26" data-name="Group 26" transform="translate(243 289)" opacity="0.05">
      <g id="Group_25" data-name="Group 25">
        <g id="Group_24" data-name="Group 24" clip-path="url(#clip-path-6)">
          <path id="Path_68" data-name="Path 68" d="M173.2,733.3l.743-1.09-1.15-.593c-.354-.183-8.766-4.431-17.406-1.107-5.186,1.994-9.276,6.3-12.2,12.762a21.594,21.594,0,0,1-3.264-.018c.629.507,1.271,1,1.939,1.467l.428.3v.68l.986.348c.171.06,17.286,5.83,29.926-12.748m-25.136,11.363c2.514-.783,6.059-6.014,6.059-6.014a17.922,17.922,0,0,1-8.326,4.256c2.608-5.147,6.066-8.6,10.327-10.248,5.942-2.294,11.962-.5,14.479.478-7.958,10.867-17.3,11.966-22.539,11.528" fill="#4a5362"/>
        </g>
      </g>
    </g>
    <g id="Group_29" data-name="Group 29" transform="translate(243 289)" opacity="0.05">
      <g id="Group_28" data-name="Group 28">
        <g id="Group_27" data-name="Group 27" clip-path="url(#clip-path-7)">
          <path id="Path_69" data-name="Path 69" d="M394.981,750.314v-1.708a41.481,41.481,0,0,1-9.045,1.374,30.805,30.805,0,0,0,9.045.334" fill="#4a5362"/>
        </g>
      </g>
    </g>
    <g id="Group_32" data-name="Group 32" transform="translate(243 289)" opacity="0.05">
      <g id="Group_31" data-name="Group 31">
        <g id="Group_30" data-name="Group 30" clip-path="url(#clip-path-8)">
          <path id="Path_70" data-name="Path 70" d="M153.982,724.071a31.064,31.064,0,0,0,6.973-3.019,11.238,11.238,0,0,0,6.493,2.453c8.348.468,17.572-6.843,21.668-14.184,2.032-3.642,4.339-5.754,6.856-6.277a6.834,6.834,0,0,1,5.2,1.185l3.46,2.8-1.8-4.173c-4.743-11.013-21-11.317-33.987-5.248-8.1,3.787-12.732,9.121-12.732,14.29a8.693,8.693,0,0,0,.716,3.439,16.032,16.032,0,0,0,2.442,4.062,28.162,28.162,0,0,1-5.889,2.477c-6.081,1.754-12.425,1.149-18.91-1.729a8.3,8.3,0,0,0-3.881-4.265c2.847-11.678,11.294-21.366,24.672-27.725a82.852,82.852,0,0,1,34.208-7.544H170.311a77.588,77.588,0,0,0-15.953,5.469c-13.965,6.638-22.892,16.765-25.931,29.046a8.011,8.011,0,0,0-1.227-.137c-.028.566-.052,1.133-.052,1.7,0,.193.014.384.018.576a6.028,6.028,0,0,1,5.752,6.134,6.166,6.166,0,0,1-3.447,5.584c.269.69.563,1.37.877,2.041A8.409,8.409,0,0,0,135.1,723.4c0-.207-.044-.4-.059-.607a28.672,28.672,0,0,0,18.938,1.274m4.843-9.662c-2.526-5.911,4.3-11.625,10.915-14.718,10.373-4.85,23.466-5.409,29.225,1.131a8.254,8.254,0,0,0-3.38-.024c-3.174.644-5.986,3.125-8.358,7.376-4.223,7.569-13.044,13.425-19.662,13.053a9.1,9.1,0,0,1-4.549-1.471c8.8-5.962,9.524-12.785,9.524-12.785-.061.115-2.546,5.532-11.328,11.255a13.43,13.43,0,0,1-2.387-3.817" fill="#4a5362"/>
        </g>
      </g>
    </g>
    <g id="Group_35" data-name="Group 35" transform="translate(243 289)" opacity="0.05">
      <g id="Group_34" data-name="Group 34">
        <g id="Group_33" data-name="Group 33" clip-path="url(#clip-path-9)">
          <path id="Path_71" data-name="Path 71" d="M406.942,717.44c-5.529-3.02-14.195-2.711-23.753-.735,3.021-2.8,7.6-7.867,8.991-13.867l.259.137.448-1.144c2.259-5.772,2.42-10.972.481-15.454a17.208,17.208,0,0,0-4.135-5.763h-3.614a15.934,15.934,0,0,1,5.766,6.721,15.312,15.312,0,0,1,.856,8.792,15.176,15.176,0,0,0-1.4-3.73s-.483,4.811-.436,6.613c-2.906-2.379-7.875-8.047-7.018-18.4h-2.2c-.059.775-.092,1.531-.092,2.259,0,11.058,6.395,16.82,9.1,18.764-1.057,5.933-5.869,11.052-8.774,13.668,2.888-14.041,1.368-24.491-4.57-31.078a20.442,20.442,0,0,0-4.319-3.613H362.96c-8.65,3.057-12.384,1.692-14.657,0a17.478,17.478,0,0,1-1.346-1.131,8.648,8.648,0,0,0-1.729-1.335c-2.276-1.183-6.6.846-9.361,2.416l-.1.05h-.24c.006-.022.012-.044.017-.066l-2.226-.095c-.01.053-.016.108-.025.161h-.071a13.5,13.5,0,0,0-.158,2.068v.06l0,.04-.048,2.029.086-.051,0,.222,1.641-1.09c.647-.429,1.4-.885,2.186-1.328a29.71,29.71,0,0,1,4.212-1.778l-.477-.02c.13-.051.262-.106.388-.152h3.8c.207.172.429.373.667.589,2.689,2.442,7.19,6.53,22.318-.07l.4-.173a19.106,19.106,0,0,1,7.022,4.838c5.806,6.449,6.924,17.206,3.363,31.957a187.431,187.431,0,0,0-21.9,7.193c2.785-2.925,5.982-7.164,7.106-12.009l.258.136.448-1.144c2.258-5.772,2.419-10.971.481-15.454-3.033-7.011-10.074-9.636-10.372-9.744l-1.211-.44-.224,1.317a31.891,31.891,0,0,0-.472,5.364c0,11.06,6.4,16.822,9.1,18.765-1.522,8.563-10.891,15.438-11.015,15.527l.034.052c-7.488,3.124-13.785,6.113-17.492,7.935a37.261,37.261,0,0,0,3.193-8.955,8.4,8.4,0,0,0,5.349-7.9,8.662,8.662,0,0,0-.342-2.292,7.648,7.648,0,0,0,2.315.4,8.431,8.431,0,0,0,0-16.847,7.851,7.851,0,0,0-5.54,2.329,8.384,8.384,0,0,0-4.284-6.278,33.412,33.412,0,0,0-6.446-9.231,36.7,36.7,0,0,0-7.665-5.865h-4.987a39.428,39.428,0,0,1,6.215,3.436c-2.125,4.795-6.588,8.441-10.245,10.786a7.965,7.965,0,0,0-6.793-3.55h0a8.276,8.276,0,0,0-7.854,8.418c0,.076,0,.152,0,.227a8.24,8.24,0,0,0,8.282,8.2A7.872,7.872,0,0,0,310.2,705.5a8.5,8.5,0,0,0,1.709-8.61c3.855-2.439,8.619-6.279,11.076-11.514a32.317,32.317,0,0,1,3.1,2.738,30.6,30.6,0,0,1,4.906,6.692c-.2-.016-.4-.065-.612-.065a8.435,8.435,0,0,0-1.12,16.73,8.523,8.523,0,0,0-3.5,6.928,8.262,8.262,0,0,0,8.07,8.424c.13,0,.25-.033.379-.04a32.527,32.527,0,0,1-9.563,16.092c-5.882,5.317-13.393,8.275-20.573,9.9h8.182a42.818,42.818,0,0,0,13.815-8.167,34.467,34.467,0,0,0,3.893-4.144,63.237,63.237,0,0,0-.416,6.771,26.039,26.039,0,0,0,.508,5.54h2.257c-.7-2.608-.874-6.887.075-14.167,1.41-.916,6.38-3.808,10.011-1.737,3.213,1.833,4.783,7.338,4.591,15.9h2.185c.216-9.585-1.708-15.618-5.734-17.909a7.525,7.525,0,0,0-2.2-.822c9.832-4.507,25.079-10.919,38.847-14.3l.281.079c.014-.054.025-.1.039-.158,10.362-2.517,19.853-3.291,25.512-.2a9.26,9.26,0,0,1,3.989,4.051q.328-1.6.5-3.239a11.878,11.878,0,0,0-3.476-2.832m-51.8-27.995a16.992,16.992,0,0,1,7.885,7.99,15.3,15.3,0,0,1,.855,8.792,15.11,15.11,0,0,0-1.4-3.729s-.482,4.811-.435,6.613c-3.024-2.474-8.305-8.493-6.9-19.666m-46.528,14.489a5.735,5.735,0,0,1-4.112,1.913,6.148,6.148,0,1,1,5.724-6.3,6.314,6.314,0,0,1-1.612,4.391m35.26-1.994a6.148,6.148,0,1,1-5.884,6.142,6.024,6.024,0,0,1,5.884-6.142m-19.38,1.228a5.89,5.89,0,1,1,5.884,6.143,6.024,6.024,0,0,1-5.884-6.143m9.337,21.377a6.149,6.149,0,1,1,5.884-6.143,6.025,6.025,0,0,1-5.884,6.143" fill="#4a5362"/>
        </g>
      </g>
    </g>
  </g>
</svg>
