<svg xmlns="http://www.w3.org/2000/svg" width="16.854" height="19.461" viewBox="0 0 16.854 19.461">
  <g id="nft_symbol" data-name="nft symbol" transform="translate(-127.214 -21.027)">
    <path id="Path_50" data-name="Path 50" d="M164.068,35.623v-9.73l-8.427-4.866-8.427,4.866v9.73l8.427,4.865Z" transform="translate(-20)" fill="#ca9f44"/>
    <path id="Path_51" data-name="Path 51" d="M157.477,34.068s.667,2.163-1.493,2.046H155.3c-2.473,0-1.492-2.046-1.492-2.046-.975.358-1.626.99-1.626,1.713,0,1.118,1.55,2.023,3.462,2.023s3.462-.905,3.462-2.023c0-.723-.651-1.355-1.626-1.713" transform="translate(-20)" fill="#0b1015"/>
    <path id="Path_52" data-name="Path 52" d="M154.257,32.31v2.428a.627.627,0,0,0,.627.627H156.4a.627.627,0,0,0,.627-.627V32.243q.2-.252.412-.492a11.813,11.813,0,0,1,1.857-1.672,8.424,8.424,0,0,0-2.53-2.612,3.05,3.05,0,0,1-2.232.005,9.392,9.392,0,0,0-2.141,2.031,6.523,6.523,0,0,0-.4.611,11.922,11.922,0,0,1,2.269,2.2" transform="translate(-20)" fill="#0b1015"/>
    <path id="Path_53" data-name="Path 53" d="M155.641,27.041a2,2,0,1,0-2-2,2,2,0,0,0,2,2" transform="translate(-20)" fill="#0b1015"/>
  </g>
</svg>
