<svg xmlns="http://www.w3.org/2000/svg" xmlns:xlink="http://www.w3.org/1999/xlink" width="27.08" height="27.08" viewBox="0 0 27.08 27.08">
  <defs>
    <clipPath id="clip-path">
      <rect id="Rectangle_82" data-name="Rectangle 82" width="27.08" height="27.08" transform="translate(0 0)" fill="none"/>
    </clipPath>
  </defs>
  <g id="Group_161" data-name="Group 161" transform="translate(0 0)" clip-path="url(#clip-path)">
    <path id="Path_107" data-name="Path 107" d="M13.3,14.14q-.982-.353-1.994-.612l-.028-.008a7.657,7.657,0,0,0,1.6-.235q-.615-.678-1.281-1.311C8.534,9.607,8.448,3.931,8.448,3.931S10.558,2.4,13.01,1c.571-.326,1.16-.645,1.746-.936C14.355.026,13.951,0,13.54,0a13.531,13.531,0,0,0-5.8,25.76,9.677,9.677,0,0,1,.249-.956c.036-.12.066-.232.111-.36,3.113-9-1.639-8.645-1.639-8.645s.463-1.559,2.912-.812c1.76.537,2.319,5.078,3.909,3.019,2.27-2.933,2,3.123-.171,3.143-1.648.016-2.578-3.624-2.578-3.624S8.11,27.047,14.5,24.36c1.79-.75,6.9-4.288-1.2-10.22" fill="#fff"/>
    <path id="Path_108" data-name="Path 108" d="M20.25,1.79c-.069.263-.155.544-.26.847-.013.037-.023.071-.035.109-3.034,8.885,1.677,8.533,1.677,8.533s-.465,1.563-2.915.813c-1.76-.536-2.318-5.077-3.913-3.016-2.268,2.931-1.995-3.124.173-3.145,1.649-.015,2.58,3.623,2.58,3.623S19.979.032,13.59,2.721c-1.788.751-6.9,4.289,1.2,10.22q.981.351,1.99.613l.028.006a7.861,7.861,0,0,0-1.6.235c.411.451.838.89,1.279,1.312,3.057,2.368,3.147,8.04,3.147,8.04s-2.01,1.46-4.383,2.832c-.658.38-1.34.753-2.019,1.087.1,0,.2.015.3.015A13.534,13.534,0,0,0,20.25,1.79" fill="#fff"/>
  </g>
</svg>
