<svg id="Capa_1" data-name="Capa 1" xmlns="http://www.w3.org/2000/svg" viewBox="0 0 54 54"><defs><style>.cls-1,.cls-3{fill:#5865f2;}.cls-2{fill:#0b1015;}.cls-3{fill-rule:evenodd;}</style></defs><circle class="cls-1" cx="27" cy="27" r="27"/><circle class="cls-2" cx="27" cy="27" r="25"/><path class="cls-3" d="M40.5,31.45c0,.75,0,1.51-.12,2.27a.3.3,0,0,1-.14.23,22.76,22.76,0,0,1-5.79,3c-.26.08-.52.16-.77.26a.19.19,0,0,1-.26-.1,19.09,19.09,0,0,1-1.28-2.06c-.08-.16,0-.22.11-.26A15.46,15.46,0,0,0,34.14,34c.19-.12.18-.12,0-.29a.57.57,0,0,0-.76-.09,15.92,15.92,0,0,1-4.17,1.19,15.57,15.57,0,0,1-3,.15,16.31,16.31,0,0,1-5.87-1.42.35.35,0,0,0-.42,0c-.35.29-.35.28,0,.5a12.56,12.56,0,0,0,1.71.79c.16.06.18.14.1.29a17,17,0,0,1-1.25,2,.23.23,0,0,1-.3.1,22.28,22.28,0,0,1-6-2.92c-.09-.06-.17-.13-.26-.18a.79.79,0,0,1-.47-.8c0-.65-.06-1.31-.06-2a22.35,22.35,0,0,1,3.12-11.33c.28-.5.58-1,.89-1.46a.6.6,0,0,1,.27-.23,22.13,22.13,0,0,1,5.28-1.63.17.17,0,0,1,.21.12A10.82,10.82,0,0,1,23.86,18c.05.11.1.14.21.12a19.12,19.12,0,0,1,2.38-.21c.75,0,1.48,0,2.22.06a10.4,10.4,0,0,1,1.25.15c.1,0,.16,0,.21-.12.17-.38.36-.76.55-1.14a.24.24,0,0,1,.29-.15,22.82,22.82,0,0,1,5.25,1.62.52.52,0,0,1,.23.21,23.53,23.53,0,0,1,3.44,7.68A22.71,22.71,0,0,1,40.35,29a20.55,20.55,0,0,1,.12,2.08C40.47,31.18,40.49,31.31,40.5,31.45ZM22.76,25.33a2.34,2.34,0,0,0-2,.9,3,3,0,0,0-.18,3.35,2.25,2.25,0,0,0,3.65.4,2.82,2.82,0,0,0,.48-3.17A2.22,2.22,0,0,0,22.76,25.33ZM33.9,28a2.78,2.78,0,0,0-.42-1.52,2.26,2.26,0,0,0-3.71-.4,2.92,2.92,0,0,0-.1,3.7,2.22,2.22,0,0,0,3.12.49A2.74,2.74,0,0,0,33.9,28Z"/></svg>