<svg id="Capa_1" data-name="Capa 1" xmlns="http://www.w3.org/2000/svg" xmlns:xlink="http://www.w3.org/1999/xlink" viewBox="0 0 68.27 60.87"><defs><style>.cls-1{fill:none;}.cls-2{clip-path:url(#clip-path);}.cls-3{fill:url(#Degradado_sin_nombre_21);}.cls-4{fill:url(#Degradado_sin_nombre_23);}.cls-5{fill:#0b1015;}.cls-6{clip-path:url(#clip-path-2);}.cls-7{fill:url(#Degradado_sin_nombre_21-2);}.cls-8{fill:url(#Degradado_sin_nombre_23-2);}.cls-9{clip-path:url(#clip-path-3);}.cls-10{clip-path:url(#clip-path-4);}</style><clipPath id="clip-path" transform="translate(3.81 0.46)"><circle class="cls-1" cx="30" cy="30" r="30"/></clipPath><linearGradient id="Degradado_sin_nombre_21" y1="30.46" x2="67.63" y2="30.46" gradientUnits="userSpaceOnUse"><stop offset="0" stop-color="#80c295"/><stop offset="0.54" stop-color="#6fb0e1"/><stop offset="1" stop-color="#7260a6"/></linearGradient><linearGradient id="Degradado_sin_nombre_23" y1="30.46" x2="67.63" y2="30.46" gradientUnits="userSpaceOnUse"><stop offset="0" stop-color="#fbbf0d"/><stop offset="0.53" stop-color="#e8497a"/><stop offset="0.74" stop-color="#7162a7"/></linearGradient><clipPath id="clip-path-2" transform="translate(3.81 0.46)"><path class="cls-1" d="M38.9,15H21.1A6.12,6.12,0,0,0,15,21.1V38.9A6.12,6.12,0,0,0,21.1,45H38.9A6.12,6.12,0,0,0,45,38.9V21.1A6.12,6.12,0,0,0,38.9,15Zm2.63,23.92A2.59,2.59,0,0,1,39,41.49H21.13a2.59,2.59,0,0,1-2.58-2.58V21.06a2.58,2.58,0,0,1,2.58-2.58H39a2.58,2.58,0,0,1,2.58,2.58Z"/></clipPath><linearGradient id="Degradado_sin_nombre_21-2" x1="0.64" y1="30.4" x2="68.27" y2="30.4" xlink:href="#Degradado_sin_nombre_21"/><linearGradient id="Degradado_sin_nombre_23-2" x1="0.64" y1="30.4" x2="68.27" y2="30.4" xlink:href="#Degradado_sin_nombre_23"/><clipPath id="clip-path-3" transform="translate(3.81 0.46)"><path class="cls-1" d="M25.06,25H38.15V21.86H23.66a1.8,1.8,0,0,0-1.8,1.79V36.42a1.81,1.81,0,0,0,1.8,1.8H38.15V34.91H25.06Z"/></clipPath><clipPath id="clip-path-4" transform="translate(3.81 0.46)"><rect class="cls-1" x="28.44" y="28.4" width="9.74" height="3.16"/></clipPath></defs><g class="cls-2"><polygon class="cls-3" points="0 0.06 67.63 0.06 67.63 60.87 0 0.06"/><polygon class="cls-4" points="67.63 60.87 0 60.87 0 0.06 67.63 60.87"/></g><circle class="cls-5" cx="33.81" cy="30.46" r="27.78"/><g class="cls-6"><polygon class="cls-7" points="0.64 0 68.27 0 68.27 60.81 0.64 0"/><polygon class="cls-8" points="68.27 60.81 0.64 60.81 0.64 0 68.27 60.81"/></g><g class="cls-9"><polygon class="cls-7" points="0.64 0 68.27 0 68.27 60.81 0.64 0"/><polygon class="cls-8" points="68.27 60.81 0.64 60.81 0.64 0 68.27 60.81"/></g><g class="cls-10"><polygon class="cls-7" points="0.64 0 68.27 0 68.27 60.81 0.64 0"/><polygon class="cls-8" points="68.27 60.81 0.64 60.81 0.64 0 68.27 60.81"/></g></svg>