<svg id="Capa_1" data-name="Capa 1" xmlns="http://www.w3.org/2000/svg" viewBox="0 0 60 60"><defs><style>.cls-1{fill:#4fbbbe;}.cls-2{fill:#0b1015;}</style></defs><circle class="cls-1" cx="30" cy="30" r="30"/><circle class="cls-2" cx="30" cy="30" r="27.78"/><path class="cls-1" d="M16.68,40.62a2.43,2.43,0,1,0,3.47-2.19V28.71L37,45.35l3.2-.05L18.08,23.84V38.43A2.4,2.4,0,0,0,16.68,40.62Zm2.43-1.56a1.56,1.56,0,1,1-1.56,1.56A1.56,1.56,0,0,1,19.11,39.06Z" transform="translate(0)"/><path class="cls-1" d="M40.53,18.32a2.43,2.43,0,1,0-3.47,2.19v9.73L20.17,13.6l-3.2.05L39.13,35.11V20.52A2.44,2.44,0,0,0,40.53,18.32ZM38.1,19.88a1.56,1.56,0,1,1,1.56-1.56A1.56,1.56,0,0,1,38.1,19.88Z" transform="translate(0)"/><path class="cls-1" d="M14.25,15.53,41.06,43.12a2.38,2.38,0,0,0-.16.85,2.41,2.41,0,1,0,1.52-2.25ZM44.88,44a1.56,1.56,0,1,1-1.56-1.56A1.56,1.56,0,0,1,44.88,44Z" transform="translate(0)"/></svg>