<svg xmlns="http://www.w3.org/2000/svg" width="38.263" height="35" viewBox="0 0 38.263 35">
  <g id="collection_icon" data-name="collection icon" transform="translate(74.03 -740.293)">
    <path id="Path_8" data-name="Path 8" d="M23.024,1024.323a3.68,3.68,0,0,1,.011-5.167l9.264-9.306a3.6,3.6,0,0,1,1.755-.969,5.175,5.175,0,0,0-.326,1.788l0,1.215-6.687,6.719a4.48,4.48,0,0,0-.014,6.291l6.659,6.747-.007,3.474Z" transform="translate(-96 -266)" fill="#ca9f44"/>
    <path id="Path_9" data-name="Path 9" d="M34.511,1013.008l-.037,17.509-6.1-6.183a3.681,3.681,0,0,1,.011-5.168Z" transform="translate(-96 -266)" fill="#ca9f44"/>
    <path id="Path_10" data-name="Path 10" d="M60.177,1036.915a4.374,4.374,0,0,1-1.282,3.1,4.294,4.294,0,0,1-3.071,1.28h-.006l-15.441-.032a4.375,4.375,0,0,1-4.34-4.4l.056-26.191a4.374,4.374,0,0,1,4.354-4.38h0l15.442.034a4.3,4.3,0,0,1,3.071,1.293,4.384,4.384,0,0,1,1.269,3.1Z" transform="translate(-96 -266)" fill="#ca9f44"/>
    <path id="Path_11" data-name="Path 11" d="M44.284,1015.991a1.23,1.23,0,1,1-1.227-1.242,1.236,1.236,0,0,1,1.227,1.242" transform="translate(-96 -266)" fill="#020408"/>
    <path id="Path_12" data-name="Path 12" d="M42.992,1018.949a.715.715,0,1,1-.713-.723.718.718,0,0,1,.713.723" transform="translate(-96 -266)" fill="#020408"/>
    <path id="Path_13" data-name="Path 13" d="M41.6,1017.245a.752.752,0,1,1-.751-.76.755.755,0,0,1,.751.76" transform="translate(-96 -266)" fill="#020408"/>
    <path id="Path_14" data-name="Path 14" d="M47.57,1023.382s.12,7.483-3.5,8.249a1.214,1.214,0,0,1-1.262-1.949,1.857,1.857,0,0,1,.685-.455,1.994,1.994,0,0,1,1.976.55c.089.089.178.172.269.25a6.221,6.221,0,0,0,.835-1.718l-.01,0c-.047-.03-.094-.056-.142-.082l.012-.016a.475.475,0,0,0-.05-.005,4.177,4.177,0,0,0-4.177.172,2.487,2.487,0,0,0-.462,3.483,2.572,2.572,0,0,0,3.738.315c1.946-1.574,3.157-5.289,2.091-8.79" transform="translate(-96 -266)" fill="#020408"/>
    <path id="Path_15" data-name="Path 15" d="M53.777,1020.027a1.787,1.787,0,0,1,1.47-.92,6.448,6.448,0,0,0-5.053-.574l.506-.731a8.2,8.2,0,0,1-1.725.365c-.257-.074-.366-.594-.512-.667s1.471-1.812,2.169-1.771c0,0-1.942-1.115-4.225,2.175l-1.1,1,.109.591s-.883,1.258-1.067,1.22a4.964,4.964,0,0,0-.844.036l.695.666s.515.447.808.447.479-.962,1.36-1.107.7-.849.7-.849a4.742,4.742,0,0,1,1.358-.365c.623-.034,5.137.045,5.532,4.376.364,3.994-1.8,6.124-5.069,5.644a4.952,4.952,0,0,1-1.023-.465,8.533,8.533,0,0,1-.733,1.593c-.045.067-.09.131-.136.2a5.958,5.958,0,0,0,.909.377c1.69.6,7.513,2.129,8.248-5.011a7.5,7.5,0,0,0-2.372-6.224" transform="translate(-96 -266)" fill="#020408" opacity="0.9"/>
  </g>
</svg>
