<svg xmlns="http://www.w3.org/2000/svg" width="44.983" height="56.648" viewBox="0 0 44.983 56.648">
  <g id="book_icon" data-name="book icon" transform="translate(-15.457 -740.294)">
    <path id="Path_16" data-name="Path 16" d="M156.222,1029.318H121.405c-5.384,0-9.748,2.681-9.748,5.988s4.365,5.988,9.748,5.988h34.816a6.4,6.4,0,0,1,0-11.976m-23.349,4H127.6v4.951l-2.183-1.066-1.91,1.066v-5.242h9.363Z" transform="translate(-96 -244.352)" fill="#fff"/>
    <path id="Path_17" data-name="Path 17" d="M121.149,1006.294h-.176v0c-5.27.108-9.515,4.992-9.515,11.005v36.446c1.6-4.189,5.276-7.126,9.544-7.126h35.439v-40.33Zm1.968,38.857h-2.028V1007.8h2.028Z" transform="translate(-96 -266)" fill="#fff"/>
  </g>
</svg>
