<svg xmlns="http://www.w3.org/2000/svg" width="35" height="35" viewBox="0 0 35 35">
  <g id="game_icon" data-name="game icon" transform="translate(-95.407 -740.294)">
    <path id="Path_18" data-name="Path 18" d="M201.288,1031.5c.333-.089,18.924-5.225,19.115-5.285l-13.829-13.829c-.077.261-5.185,18.747-5.286,19.114" transform="translate(-96 -266)" fill="#ca9f44"/>
    <path id="Path_19" data-name="Path 19" d="M213.551,1041.294c.168-.358,6.652-13.9,6.8-14.208-.283.071-18.125,4.982-18.617,5.122-.047.014-.092.034-.163.06.28.215,11.841,8.944,11.979,9.026" transform="translate(-96 -266)" fill="#ca9f44"/>
    <path id="Path_20" data-name="Path 20" d="M200.69,1032.744c-.108-.082-.18-.036-.261.045-.624.628-3.236,3.238-3.914,3.92a1.046,1.046,0,0,0-.109.165.894.894,0,0,0,.178.094c.334.094,14.234,3.8,14.51,3.877l.354.093c.008-.016.016-.032.025-.048-.278-.2-10.5-7.933-10.783-8.146" transform="translate(-96 -266)" fill="#ca9f44"/>
    <path id="Path_21" data-name="Path 21" d="M226.251,1028.805l-4.8-1.856c-.119.226-5.913,12.315-6.122,12.78l10.923-10.924" transform="translate(-96 -266)" fill="#ca9f44"/>
    <path id="Path_22" data-name="Path 22" d="M222.722,1014.268a4.641,4.641,0,0,0-.276-.816c-.018.234-.753,12.306-.755,12.5,0,.176.167.173.271.219.207.092,3.794,1.455,4.265,1.629.047.018.091.042.18.084-.113-.408-3.614-13.351-3.685-13.614" transform="translate(-96 -266)" fill="#ca9f44"/>
    <path id="Path_23" data-name="Path 23" d="M200.433,1031.129c.026-.071.046-.116.06-.163.14-.492,5.051-18.334,5.123-18.617-.311.149-13.851,6.632-14.209,6.8.082.138,8.811,11.7,9.026,11.979" transform="translate(-96 -266)" fill="#ca9f44"/>
    <path id="Path_24" data-name="Path 24" d="M220.881,1025.374c.02-.03.044-.049.045-.071.016-.282.792-13.371.842-14.113.01-.14-.023-.2-.174-.169s-13.948.847-14.2.867l13.486,13.486" transform="translate(-96 -266)" fill="#ca9f44"/>
    <path id="Path_25" data-name="Path 25" d="M191.81,1021.228l-.048.024c.031.118.062.237.094.355.075.276,3.782,14.176,3.876,14.509a.917.917,0,0,0,.094.178.942.942,0,0,0,.165-.109c.682-.678,3.292-3.29,3.92-3.913.082-.081.127-.154.045-.261-.213-.282-7.95-10.505-8.146-10.783" transform="translate(-96 -266)" fill="#ca9f44"/>
    <path id="Path_26" data-name="Path 26" d="M192.972,1017.373c.465-.209,12.553-6,12.78-6.122l-1.857-4.8-10.923,10.923" transform="translate(-96 -266)" fill="#ca9f44"/>
    <path id="Path_27" data-name="Path 27" d="M204.818,1006.294c.042.089.067.133.084.18.174.471,1.537,4.058,1.629,4.265.046.1.043.273.219.271.192,0,12.264-.737,12.5-.755a4.639,4.639,0,0,0-.816-.276c-.263-.072-13.206-3.572-13.614-3.685" transform="translate(-96 -266)" fill="#ca9f44"/>
  </g>
</svg>
