<svg xmlns="http://www.w3.org/2000/svg" width="48.528" height="59.381" viewBox="0 0 48.528 59.381">
  <path id="policy_icon" data-name="policy icon" d="M527.4,1022.863a51.5,51.5,0,0,1,10.512-10.5l.439-.319s3.6-2.153,4.107-2.414a21.863,21.863,0,0,1,3.873-1.563c.518-.153,1.271,4.391,1.271,4.391s1.662-5.046,2.352-5.125a27.277,27.277,0,0,1,10.155.925c.975.261,1.95.538,2.924.809a1.274,1.274,0,0,1-.045.356c-5.061,8.157-10.224,16.177-15.142,24.527-2.041,3.466-4.5,4.136-7.234,4.371-.41.034-.82.042-1.23.068-.025,0-.05.051-.317.349,1.282.82,2.428,1.551,3.681,2.35-.793.942-1.572,1.922-2.389,2.827-3.682,4.085-7.619,7.38-12.2,8.439-1.344.309-2.73.173-4.089.356a1.55,1.55,0,0,0-1.175.789c-1.168,2.671-1.251,8.48-3.244,7.474-1.233-.623-4.685,5.638-5.139,5.6,7.5-19.881,19.5-36.615,32.385-47.786-5.515,2.4-10.411,6.557-14.9,11.885a108.393,108.393,0,0,0-11.9,18.239c-.832-3.252-.48-8.162.627-12.642.188-.758,3.243-1.417,3.243-1.417s-2.24-1.955-2.034-2.5a19.39,19.39,0,0,1,2.22-4.347s2.94-4.732,3.253-5.142" transform="translate(-514.505 -1007.191)" fill="#fff"/>
</svg>
