<svg xmlns="http://www.w3.org/2000/svg" width="52.487" height="58.536" viewBox="0 0 52.487 58.536">
  <path id="trade_icon" data-name="trade icon" d="M400.054,1014.329a48.591,48.591,0,0,0-17.412-7.138l-.065.035a48.6,48.6,0,0,0-4.022,18.384,43.905,43.905,0,0,1,7.929,1.584c.224-.77.457-1.525.709-2.273.306-.927.63-1.826.978-2.716.013-.033.025-.069.038-.1,2.816,3.25.756,10.15-4.131,14.189a17.235,17.235,0,0,0-1.333-2.863c-4.869-8.158-15.865-11.488-23.588-5.954-12.946,9.275-3.8,25.077-3.557,25.416-.283-.079-4.077-1.47-4.832-1.724a44.4,44.4,0,0,1-3.2,7.424,48.572,48.572,0,0,0,17.41,7.138l.067-.035a48.611,48.611,0,0,0,4.021-18.385,43.625,43.625,0,0,1-7.927-1.584c-.226.769-.457,1.527-.709,2.274-.306.927-.63,1.825-.978,2.715l-.04.1c-2.815-3.248-.756-10.15,4.133-14.189a17.036,17.036,0,0,0,1.331,2.863c4.87,8.158,15.867,11.488,23.59,5.956,12.945-9.276,3.795-25.077,3.557-25.416.283.077,4.076,1.47,4.832,1.724a44.147,44.147,0,0,1,3.2-7.424M373.8,1041.638a5.18,5.18,0,1,1,5.186-5.175,5.179,5.179,0,0,1-5.186,5.175" transform="translate(-347.567 -1007.191)" fill="#ca9f44"/>
</svg>
