<svg xmlns="http://www.w3.org/2000/svg" xmlns:xlink="http://www.w3.org/1999/xlink" width="170.729" height="41.395" viewBox="0 0 170.729 41.395">
  <defs>
    <clipPath id="clip-path">
      <path id="Path_98" data-name="Path 98" d="M25.869,2.064v4.01l-.222.155a17.621,17.621,0,0,0,0,29.005l.222.155V39.4H156.6V35.568l.228-.154a17.641,17.641,0,0,0,0-29.366l-.228-.153V2.064Z" fill="none"/>
    </clipPath>
    <radialGradient id="radial-gradient" cx="0.5" cy="0.5" r="1.433" gradientTransform="matrix(0.255, 0, 0, -1, -0.092, 2.086)" gradientUnits="objectBoundingBox">
      <stop offset="0" stop-color="#14212c"/>
      <stop offset="1" stop-color="#0b1015"/>
    </radialGradient>
    <clipPath id="clip-path-2">
      <rect id="Rectangle_77" data-name="Rectangle 77" width="10.096" height="0.806" transform="translate(37.642 38.591)" fill="none"/>
    </clipPath>
    <clipPath id="clip-path-3">
      <rect id="Rectangle_78" data-name="Rectangle 78" width="65.826" height="37.333" transform="translate(47.491 2.064)" fill="none"/>
    </clipPath>
    <clipPath id="clip-path-4">
      <rect id="Rectangle_79" data-name="Rectangle 79" width="23.325" height="9.564" transform="translate(136.316 29.833)" fill="none"/>
    </clipPath>
    <clipPath id="clip-path-5">
      <rect id="Rectangle_80" data-name="Rectangle 80" width="13.877" height="2.277" transform="translate(98.863 2.064)" fill="none"/>
    </clipPath>
    <clipPath id="clip-path-6">
      <rect id="Rectangle_81" data-name="Rectangle 81" width="17.602" height="9.156" transform="translate(24.644 27.226)" fill="none"/>
    </clipPath>
    <clipPath id="clip-path-7">
      <rect id="Rectangle_82" data-name="Rectangle 82" width="4.679" height="0.979" transform="translate(151.924 37.241)" fill="none"/>
    </clipPath>
    <clipPath id="clip-path-8">
      <rect id="Rectangle_83" data-name="Rectangle 83" width="40.087" height="26.083" transform="translate(18.035 2.064)" fill="none"/>
    </clipPath>
    <clipPath id="clip-path-9">
      <rect id="Rectangle_84" data-name="Rectangle 84" width="59.053" height="38.792" transform="translate(105.537 0.605)" fill="none"/>
    </clipPath>
  </defs>
  <g id="IDLE_ADVENTURES" data-name="IDLE ADVENTURES" transform="translate(-212 -71.605)">
    <g id="button" transform="translate(192)">
      <path id="Path_97" data-name="Path 97" d="M157.638,40.432H24.834V35.925a18.651,18.651,0,0,1,0-30.388V1.03h132.8V5.345a18.675,18.675,0,0,1,0,30.772Z" transform="translate(25 71)" fill="#ca9f44"/>
      <g id="Group_152" data-name="Group 152" transform="translate(25 71)">
        <g id="Group_151" data-name="Group 151" clip-path="url(#clip-path)">
          <rect id="Rectangle_74" data-name="Rectangle 74" width="146.66" height="37.333" transform="translate(18.035 2.064)" fill="url(#radial-gradient)"/>
        </g>
      </g>
      <g id="Group_161" data-name="Group 161" transform="translate(25 71)" opacity="0.05">
        <g id="Group_160" data-name="Group 160">
          <g id="Group_159" data-name="Group 159" clip-path="url(#clip-path-2)">
            <path id="Path_101" data-name="Path 101" d="M37.642,39.4h10.1a16.279,16.279,0,0,0-1.947-.512,16.457,16.457,0,0,0-8.149.512" fill="#4a5362"/>
          </g>
        </g>
      </g>
      <g id="Group_164" data-name="Group 164" transform="translate(25 71)" opacity="0.05">
        <g id="Group_163" data-name="Group 163">
          <g id="Group_162" data-name="Group 162" clip-path="url(#clip-path-3)">
            <path id="Path_102" data-name="Path 102" d="M111.918,20.492l-1.479-1.707.509,2.243a2.874,2.874,0,0,1-.4,2.048,4.222,4.222,0,0,1-3.178,1.533c-3.243.384-7.305,2.744-8.491,6.027a5.31,5.31,0,0,0-.325,1.8A5.466,5.466,0,0,0,99.97,36c-2.976,2.113-7.752,3.722-15.361,2.967-1.4-.251-2.843-.554-4.294-.918.883-.927,6.428-7.319,1.947-17.2l-.283-.626-.088.064a19.155,19.155,0,0,0-1.966-5.7,4.438,4.438,0,0,0,.615-1.4c.256.125.516.247.759.38a4.408,4.408,0,0,0-.168,1.183c0,2.613,2.259,5.4,6.255,7.5,6.569,3.464,14.98,3.717,17.686-1.856l1-2.068-1.831,1.317a3.525,3.525,0,0,1-2.714.483c-1.288-.334-2.432-1.484-3.4-3.418-1.947-3.9-6.545-7.908-10.87-7.876a6.08,6.08,0,0,0-5.5,3.625c-.348-.19-.716-.369-1.081-.551a4.39,4.39,0,0,0-1.53-3.187,2.967,2.967,0,0,1,.99-1.037c4.584-2.314,6.5-4.084,7.2-5.62H86.022c-.772,1.158-2.54,2.621-6.4,4.568A3.956,3.956,0,0,0,78.2,8.1a4.006,4.006,0,0,0-1.194-.324,7.335,7.335,0,0,1-1.148-4.226,6.515,6.515,0,0,1,.272-1.483H74.955a7.678,7.678,0,0,0-.226,1.416c-.01.156-.014.311-.014.464A8.458,8.458,0,0,0,75.7,7.808a4.012,4.012,0,0,0-.857.285,37.684,37.684,0,0,1-5.229-6.029H68.257a35.886,35.886,0,0,0,2.458,3.313,4,4,0,0,0-.659-.144A36.72,36.72,0,0,0,61.33,2.064H51.423a41.517,41.517,0,0,1,16.5,3.454A4.37,4.37,0,0,0,65.36,9.537a4.465,4.465,0,0,0,.16,1.128A9.5,9.5,0,0,0,62.5,14.66l-.068-.029c-1.047,2.619-3.456,4.592-5.419,5.849a4.357,4.357,0,0,0-.53-.638,4.053,4.053,0,0,0-5.9.164A4.432,4.432,0,0,0,49.437,23c0,.04,0,.08,0,.12a4.176,4.176,0,1,0,8.348-.114c0-.04,0-.079,0-.118a4.5,4.5,0,0,0-.259-1.347,18.219,18.219,0,0,0,3.907-3.236c-.066.355-.128.717-.182,1.091a17.235,17.235,0,0,0-.175,2.419,13.677,13.677,0,0,0,3.2,8.951,18.071,18.071,0,0,0,3.036,2.866,4.157,4.157,0,0,1-1.461,3.248l-.051.036-.354.025c-1.8.128-4.7-.03-5.2-.773a2.078,2.078,0,0,1-.206-.807c-.282-2.052-1.157-3.96-8.649-4.768-.183-.029-1.779-.321-1.6-1.861l.322-2.724-1.367,2.345a10.421,10.421,0,0,0-1.266,4.764,7.138,7.138,0,0,0,.534,2.764A7.55,7.55,0,0,0,51.194,39.4h2.734c-2.5-.9-4.132-2.234-4.863-3.979a7.169,7.169,0,0,1,.021-4.953,3.3,3.3,0,0,0,2.175,1.3c7.26.783,7.5,2.506,7.67,3.764a2.976,2.976,0,0,0,.4,1.316c.423.631,2.506,1.21,3.551,1.386.321.885-6.7.168-6.7.168,4.076,1.288,4.482,1.106,7.354.656a5.051,5.051,0,0,1-.493.342H64.88a6.358,6.358,0,0,0,.788-1.019,5.311,5.311,0,0,0,.894-.575,5.163,5.163,0,0,0,1.832-3.4,38.635,38.635,0,0,0,12.355,5h14.69a16.806,16.806,0,0,0,5.418-2.619c1.849,1.12,4.647.261,7.454-2.39,4.227-3.991,6.73-10.281,3.607-13.9m-29.59-6.344a53.735,53.735,0,0,1,6.2,4.222,19.473,19.473,0,0,0-5.769-5.349,4.99,4.99,0,0,1,4.513-3.007c3.429-.025,7.852,3.223,9.86,7.242,1.127,2.256,2.523,3.61,4.148,4.022a4.267,4.267,0,0,0,1.747.073C99.9,24.586,93.144,23.967,87.9,21.2c-3.039-1.6-6.105-4.324-5.568-7.051M53.694,26.181a3.108,3.108,0,0,1-3.125-3.091,3.262,3.262,0,0,1,.834-2.272,2.956,2.956,0,0,1,4.3-.12,3.224,3.224,0,0,1,.949,2.222c0,.028,0,.057,0,.086a3.121,3.121,0,0,1-2.963,3.175M76.518,8.9a3.116,3.116,0,0,1,3.044,3.177,3.047,3.047,0,1,1-6.088,0A3.116,3.116,0,0,1,76.518,8.9m-2.152,8.516a3.047,3.047,0,1,1-3.044-3.177,3.117,3.117,0,0,1,3.044,3.177M69.535,6.359A3.117,3.117,0,0,1,72.58,9.537a3.047,3.047,0,1,1-6.089,0,3.117,3.117,0,0,1,3.044-3.178M65.137,30A12.881,12.881,0,0,1,62.371,19.57c.523-3.685,1.744-6.276,3.6-7.789a4.153,4.153,0,0,0,2.981,2.053,4.408,4.408,0,0,0-1.809,3.584,4.179,4.179,0,1,0,8.35,0,4.462,4.462,0,0,0-.177-1.186,3.947,3.947,0,0,0,1.2.2,4.027,4.027,0,0,0,2.536-.92,17.863,17.863,0,0,1,1.8,5.561,12.785,12.785,0,0,0-4.307,7.452,10.432,10.432,0,0,0-.121,1.587,13.282,13.282,0,0,0,2.7,7.619C73.69,36.243,68.32,33.846,65.137,30m12.525-1.269a11.428,11.428,0,0,1,3.348-6.2c.184,2.583.219,8.565.219,8.565a27.419,27.419,0,0,0,.97-7.175c2.063,6.943-1.1,11.486-2.321,12.91a11.261,11.261,0,0,1-2.216-8.095m29.891,4.787c-1.712,1.617-4.039,3.016-5.695,2.452a8.274,8.274,0,0,0,2.895-6.673,11.488,11.488,0,0,1-3.874,6,4.054,4.054,0,0,1-.941-4.242c.911-2.521,4.3-4.885,7.561-5.272a5.238,5.238,0,0,0,3.988-2.045,3.741,3.741,0,0,0,.444-.923c1.008,3.159-1.207,7.7-4.378,10.7" fill="#4a5362"/>
          </g>
        </g>
      </g>
      <g id="Group_167" data-name="Group 167" transform="translate(25 71)" opacity="0.05">
        <g id="Group_166" data-name="Group 166">
          <g id="Group_165" data-name="Group 165" clip-path="url(#clip-path-4)">
            <path id="Path_103" data-name="Path 103" d="M145.708,33.5c-.535.537-4.438-.906-8.354-3.089l-1.038-.578.216,1.207a18.681,18.681,0,0,0,4.311,8.357h1.514a19.738,19.738,0,0,1-4.42-7.339c2.763,1.458,7.3,3.549,8.555,2.293,3.623-3.643,6.118-3.91,12.267-.44.3-.271.6-.553.881-.843-6.387-3.668-9.629-3.893-13.932.432" fill="#4a5362"/>
          </g>
        </g>
      </g>
      <g id="Group_170" data-name="Group 170" transform="translate(25 71)" opacity="0.05">
        <g id="Group_169" data-name="Group 169">
          <g id="Group_168" data-name="Group 168" clip-path="url(#clip-path-5)">
            <path id="Path_104" data-name="Path 104" d="M105.783,3.1a15.892,15.892,0,0,1-4.259-1.031H98.863a16.294,16.294,0,0,0,6.815,2.206c3.422.331,5.987-.514,7.062-2.206h-1.522c-1.234,1-3.466,1.222-5.435,1.031" fill="#4a5362"/>
          </g>
        </g>
      </g>
      <g id="Group_173" data-name="Group 173" transform="translate(25 71)" opacity="0.05">
        <g id="Group_172" data-name="Group 172">
          <g id="Group_171" data-name="Group 171" clip-path="url(#clip-path-6)">
            <path id="Path_105" data-name="Path 105" d="M41.862,29.324l.384-.564-.595-.307a11.966,11.966,0,0,0-9.005-.572c-2.683,1.031-4.8,3.261-6.313,6.6a11.29,11.29,0,0,1-1.689-.01c.325.263.658.518,1,.759l.222.155v.352l.51.179c.088.032,8.943,3.017,15.483-6.595m-13,5.879c1.3-.4,3.135-3.112,3.135-3.112a9.266,9.266,0,0,1-4.308,2.2,10.315,10.315,0,0,1,5.343-5.3,10.724,10.724,0,0,1,7.491.247C36.4,34.861,31.57,35.43,28.857,35.2" fill="#4a5362"/>
          </g>
        </g>
      </g>
      <g id="Group_176" data-name="Group 176" transform="translate(25 71)" opacity="0.05">
        <g id="Group_175" data-name="Group 175">
          <g id="Group_174" data-name="Group 174" clip-path="url(#clip-path-7)">
            <path id="Path_106" data-name="Path 106" d="M156.6,38.125v-.884a21.415,21.415,0,0,1-4.68.711,15.943,15.943,0,0,0,4.68.173" fill="#4a5362"/>
          </g>
        </g>
      </g>
      <g id="Group_179" data-name="Group 179" transform="translate(25 71)" opacity="0.05">
        <g id="Group_178" data-name="Group 178">
          <g id="Group_177" data-name="Group 177" clip-path="url(#clip-path-8)">
            <path id="Path_107" data-name="Path 107" d="M31.917,24.548a16.044,16.044,0,0,0,3.608-1.562,5.817,5.817,0,0,0,3.359,1.269c4.319.242,9.091-3.54,11.21-7.338,1.052-1.885,2.246-2.977,3.548-3.248a3.543,3.543,0,0,1,2.69.613l1.789,1.449-.93-2.158c-2.453-5.7-10.867-5.856-17.583-2.716-4.191,1.96-6.588,4.719-6.588,7.393a4.513,4.513,0,0,0,.371,1.78,8.318,8.318,0,0,0,1.263,2.1,14.565,14.565,0,0,1-3.046,1.282,14.024,14.024,0,0,1-9.784-.9,4.291,4.291,0,0,0-2.008-2.206C21.289,14.27,25.66,9.257,32.581,5.968a42.845,42.845,0,0,1,17.7-3.9H40.366a40.06,40.06,0,0,0-8.254,2.829C24.887,8.328,20.268,13.568,18.7,19.921a4.128,4.128,0,0,0-.634-.07c-.014.292-.027.586-.027.88,0,.1.007.2.009.3A3.118,3.118,0,0,1,21.019,24.2a3.191,3.191,0,0,1-1.783,2.889c.139.357.292.708.455,1.055A4.347,4.347,0,0,0,22.15,24.2c0-.108-.022-.209-.03-.314a14.831,14.831,0,0,0,9.8.659m2.507-5c-1.308-3.058,2.222-6.014,5.646-7.615,5.368-2.509,12.141-2.8,15.12.586a4.262,4.262,0,0,0-1.749-.013c-1.642.333-3.1,1.617-4.323,3.816-2.186,3.916-6.749,6.946-10.173,6.753a4.705,4.705,0,0,1-2.354-.761c4.555-3.084,4.928-6.614,4.928-6.614-.032.059-1.317,2.862-5.861,5.823a6.919,6.919,0,0,1-1.234-1.975" fill="#4a5362"/>
          </g>
        </g>
      </g>
      <g id="Group_182" data-name="Group 182" transform="translate(25 71)" opacity="0.05">
        <g id="Group_181" data-name="Group 181">
          <g id="Group_180" data-name="Group 180" clip-path="url(#clip-path-9)">
            <path id="Path_108" data-name="Path 108" d="M162.791,21.117c-2.86-1.562-7.344-1.4-12.289-.38,1.563-1.447,3.931-4.07,4.652-7.175l.134.071.232-.592a10.287,10.287,0,0,0,.249-8,8.894,8.894,0,0,0-2.14-2.981h-1.87a8.233,8.233,0,0,1,2.983,3.477,7.91,7.91,0,0,1,.443,4.548,7.843,7.843,0,0,0-.725-1.929s-.25,2.489-.226,3.421c-1.5-1.231-4.074-4.163-3.631-9.517h-1.139c-.031.4-.048.791-.048,1.168a11.657,11.657,0,0,0,4.708,9.708c-.547,3.069-3.037,5.718-4.54,7.072,1.494-7.265.708-12.671-2.364-16.079a10.6,10.6,0,0,0-2.234-1.869h-4.95c-4.475,1.581-6.407.875-7.583,0-.262-.2-.489-.4-.7-.586a4.46,4.46,0,0,0-.9-.69c-1.177-.612-3.415.437-4.843,1.25l-.05.026h-.124l.009-.035L124.7,1.981c-.005.027-.008.056-.013.084h-.037a7.077,7.077,0,0,0-.081,1.069v.052l-.025,1.05.045-.026,0,.114.849-.563c.334-.223.722-.459,1.131-.688a15.31,15.31,0,0,1,2.179-.919l-.247-.011c.067-.026.136-.054.2-.078h1.965c.107.088.222.192.345.3,1.391,1.264,3.72,3.379,11.547-.036l.205-.089a9.875,9.875,0,0,1,3.633,2.5c3,3.336,3.582,8.9,1.74,16.533A96.9,96.9,0,0,0,136.809,25a14.166,14.166,0,0,0,3.676-6.213l.134.071.231-.592a10.279,10.279,0,0,0,.249-7.995,10.063,10.063,0,0,0-5.366-5.042L135.106,5l-.116.682a16.572,16.572,0,0,0-.244,2.775,11.66,11.66,0,0,0,4.709,9.709c-.788,4.43-5.635,7.987-5.7,8.033l.018.027c-3.874,1.616-7.133,3.162-9.05,4.1a19.31,19.31,0,0,0,1.652-4.633,4.343,4.343,0,0,0,2.767-4.085,4.462,4.462,0,0,0-.177-1.186,3.947,3.947,0,0,0,1.2.2,4.274,4.274,0,0,0,4.175-4.358,4.274,4.274,0,0,0-4.175-4.358,4.061,4.061,0,0,0-2.866,1.2,4.337,4.337,0,0,0-2.217-3.248A17.275,17.275,0,0,0,121.746,5.1a18.97,18.97,0,0,0-3.965-3.034H115.2a20.4,20.4,0,0,1,3.215,1.777,13.888,13.888,0,0,1-5.3,5.58A4.119,4.119,0,0,0,109.6,7.586a4.282,4.282,0,0,0-4.064,4.355c0,.039,0,.079,0,.118a4.262,4.262,0,0,0,4.285,4.24,4.072,4.072,0,0,0,2.919-1.358,4.4,4.4,0,0,0,.884-4.454,15.2,15.2,0,0,0,5.73-5.957,16.76,16.76,0,0,1,1.6,1.416A15.814,15.814,0,0,1,123.5,9.409c-.106-.009-.208-.034-.316-.034a4.274,4.274,0,0,0-4.175,4.358,4.292,4.292,0,0,0,3.595,4.3,4.411,4.411,0,0,0-1.809,3.585,4.274,4.274,0,0,0,4.175,4.358c.067,0,.13-.017.2-.02a16.825,16.825,0,0,1-4.948,8.325,23.461,23.461,0,0,1-10.643,5.12h4.233a22.159,22.159,0,0,0,7.147-4.225,17.85,17.85,0,0,0,2.014-2.145,32.842,32.842,0,0,0-.215,3.5,13.45,13.45,0,0,0,.263,2.867h1.168c-.363-1.349-.453-3.563.038-7.33.73-.473,3.3-1.97,5.18-.9,1.662.948,2.474,3.8,2.375,8.228h1.131c.111-4.959-.884-8.081-2.967-9.266a3.919,3.919,0,0,0-1.136-.425,122.31,122.31,0,0,1,20.1-7.4l.145.041c.007-.027.013-.054.02-.081,5.361-1.3,10.271-1.7,13.2-.1a4.793,4.793,0,0,1,2.064,2.1q.17-.828.259-1.675a6.13,6.13,0,0,0-1.8-1.466m-26.8-14.484a8.79,8.79,0,0,1,4.079,4.134,7.929,7.929,0,0,1,.443,4.549,7.847,7.847,0,0,0-.726-1.929s-.249,2.489-.225,3.421c-1.564-1.28-4.3-4.394-3.571-10.175m-24.072,7.5a2.968,2.968,0,0,1-2.128.99,3.18,3.18,0,0,1-.163-6.353,3.108,3.108,0,0,1,3.125,3.092,3.272,3.272,0,0,1-.834,2.271M130.164,13.1a3.181,3.181,0,1,1-3.044,3.178,3.117,3.117,0,0,1,3.044-3.178m-10.027.635a3.047,3.047,0,1,1,3.045,3.178,3.117,3.117,0,0,1-3.045-3.178m4.831,11.06a3.181,3.181,0,1,1,3.044-3.178,3.117,3.117,0,0,1-3.044,3.178" fill="#4a5362"/>
          </g>
        </g>
      </g>
    </g>
    <g id="image_button_" data-name="image button " transform="translate(191 -19)">
      <path id="Path_109" data-name="Path 109" d="M10.835,40.5H30.164A10.335,10.335,0,0,0,40.5,30.165V10.835A10.335,10.335,0,0,0,30.164.5H10.835A10.335,10.335,0,0,0,.5,10.835v19.33A10.335,10.335,0,0,0,10.835,40.5" transform="translate(20.5 91.5)" fill="#0b1015"/>
      <path id="Rectangle_85" data-name="Rectangle 85" d="M10.335,0H29.664A10.336,10.336,0,0,1,40,10.336V29.664A10.336,10.336,0,0,1,29.664,40H10.335A10.335,10.335,0,0,1,0,29.665V10.335A10.335,10.335,0,0,1,10.335,0Z" transform="translate(21.5 91.5)" fill="none" stroke="#ca9f44" stroke-miterlimit="10" stroke-width="1"/>
    </g>
  </g>
</svg>
