<svg xmlns="http://www.w3.org/2000/svg" width="80" height="60.889" viewBox="0 0 80 60.889">
  <path id="Path_52" data-name="Path 52" d="M385.977,328.113c-.1,2.244-.162,4.5-.347,6.744a.9.9,0,0,1-.428.67,66.251,66.251,0,0,1-17.147,9.039c-.767.252-1.533.485-2.284.76a.573.573,0,0,1-.785-.275,58.122,58.122,0,0,1-3.775-6.123c-.247-.468-.1-.626.311-.767a42.563,42.563,0,0,0,5.6-2.634c.581-.343.537-.339.058-.839a1.678,1.678,0,0,0-2.248-.291,47.553,47.553,0,0,1-21.161,3.972,47.794,47.794,0,0,1-17.374-4.2,1.024,1.024,0,0,0-1.246.15c-1.039.854-1.043.842.119,1.476a39.646,39.646,0,0,0,5.059,2.355c.489.177.537.4.312.839a56.522,56.522,0,0,1-3.707,6.035.672.672,0,0,1-.887.28,66.2,66.2,0,0,1-17.728-8.635,6.576,6.576,0,0,0-.783-.535,2.369,2.369,0,0,1-1.368-2.367c-.022-1.94-.2-3.9-.191-5.858a66.549,66.549,0,0,1,9.231-33.57c.839-1.464,1.731-2.9,2.662-4.315a1.825,1.825,0,0,1,.777-.689,66.553,66.553,0,0,1,15.663-4.823c.375-.067.487.11.628.358a36.933,36.933,0,0,1,1.733,3.493c.144.323.3.413.621.354a59.9,59.9,0,0,1,7.067-.61,62.8,62.8,0,0,1,6.567.181,28.22,28.22,0,0,1,3.7.429.5.5,0,0,0,.638-.343c.489-1.149,1.047-2.275,1.631-3.394a.679.679,0,0,1,.863-.429,66.952,66.952,0,0,1,15.542,4.8,1.553,1.553,0,0,1,.691.61,69.408,69.408,0,0,1,10.168,22.75,63.9,63.9,0,0,1,1.374,8.075,59.366,59.366,0,0,1,.362,6.154c0,.386.052.776.086,1.174m-52.55-18.124a6.943,6.943,0,0,0-6.066,2.674,8.684,8.684,0,0,0-.511,9.91,6.675,6.675,0,0,0,10.809,1.212,8.384,8.384,0,0,0,1.424-9.413,6.613,6.613,0,0,0-5.656-4.383m32.982,8a8.181,8.181,0,0,0-1.223-4.5,6.7,6.7,0,0,0-11-1.17,8.664,8.664,0,0,0-.293,10.969,6.57,6.57,0,0,0,9.222,1.445,8.053,8.053,0,0,0,3.291-6.74" transform="translate(-305.977 -284.497)" fill="#e6c982" fill-rule="evenodd"/>
</svg>
