<svg xmlns="http://www.w3.org/2000/svg" width="80" height="80" viewBox="0 0 80 80">
  <g id="eternl_button" data-name="eternl button" transform="translate(-1272.361 -458.535)">
    <path id="Path_25" data-name="Path 25" d="M678.076,278.535H630.647a16.3,16.3,0,0,0-16.286,16.285v47.43a16.3,16.3,0,0,0,16.286,16.285h47.429a16.3,16.3,0,0,0,16.285-16.285V294.82a16.3,16.3,0,0,0-16.285-16.285m7.01,63.748a6.872,6.872,0,0,1-6.872,6.872H630.725a6.872,6.872,0,0,1-6.872-6.872V294.7a6.872,6.872,0,0,1,6.872-6.872h47.489a6.872,6.872,0,0,1,6.872,6.872Z" transform="translate(658 180)" fill="#4a5362"/>
    <path id="Path_26" data-name="Path 26" d="M641.2,305.268h34.882v-8.436H637.456a4.787,4.787,0,0,0-4.787,4.787v34.029a4.787,4.787,0,0,0,4.787,4.786h38.626v-8.815H641.2Z" transform="translate(658 180)" fill="#4a5362"/>
    <rect id="Rectangle_4" data-name="Rectangle 4" width="25.972" height="8.436" transform="translate(1308.204 494.273)" fill="#4a5362"/>
  </g>
</svg>
