<svg xmlns="http://www.w3.org/2000/svg" width="80" height="83.299" viewBox="0 0 80 83.299">
  <g id="nami_button" data-name="nami button" transform="translate(-1118.499 -455.176)">
    <path id="Path_43" data-name="Path 43" d="M534.323,289.849a6.165,6.165,0,1,0-8.81,5.56V320.1l-42.876-42.25-8.125.125,56.251,54.5V295.428a6.167,6.167,0,0,0,3.56-5.579m-6.165,3.961a3.962,3.962,0,1,1,3.961-3.961,3.966,3.966,0,0,1-3.961,3.961" transform="translate(658 180)" fill="#e6c982"/>
    <path id="Path_44" data-name="Path 44" d="M473.762,346.474a6.165,6.165,0,1,0,8.81-5.56V316.225l42.876,42.25,8.125-.125-56.251-54.5v37.046a6.167,6.167,0,0,0-3.56,5.579m6.165-3.961a3.962,3.962,0,1,1-3.961,3.961,3.966,3.966,0,0,1,3.961-3.961" transform="translate(658 180)" fill="#e6c982"/>
    <path id="Path_45" data-name="Path 45" d="M540.5,353.558,472.422,283.52a6.172,6.172,0,1,0-3.453,3.533ZM462.7,281.34a3.962,3.962,0,1,1,3.961,3.961,3.966,3.966,0,0,1-3.961-3.961" transform="translate(658 180)" fill="#e6c982"/>
  </g>
</svg>
