<svg xmlns="http://www.w3.org/2000/svg" width="924.469" height="73.004" viewBox="0 0 924.469 73.004">
  <g id="footer" transform="translate(-588 -275.001)">
    <path id="parche" d="M32.092,10.291,15.161,27.15,3.286,45l.1,4.555S11.9,66.281,32.092,80.64L198.286,80h395l299.534.37S912.3,67.723,923.295,45.862L911.724,27.654,894.109,10.794Z" transform="translate(588 266)" fill="#0b1015"/>
    <g id="container">
      <path id="Path_2" data-name="Path 2" d="M29.127,12.406c-.213.146-.418.29-.605.428A83.207,83.207,0,0,0,18.028,22.16q.72.65,1.45,1.347A81.194,81.194,0,0,1,29.7,14.423c.487-.36,1.065-.741,1.612-1.076.491-.3.955-.559,1.3-.726.1-.045.185-.086.262-.116.288,0,.931,0,1.859,0l1.043,0c6.859-.017,846.046-.017,852.906,0l1.043,0c.928,0,1.571,0,1.859,0,.076.03.166.071.262.116.349.167.813.427,1.3.726.547.335,1.125.716,1.612,1.076a81.2,81.2,0,0,1,10.223,9.084c.485-.464.97-.914,1.45-1.347a83.275,83.275,0,0,0-10.494-9.326c-.187-.138-.393-.282-.6-.428-.412-.281-.855-.566-1.293-.83a10.993,10.993,0,0,0-2-1.005l-.848-.043-2.112,0-1.039,0c-11.534-.032-841.687-.027-851.632,0l-1.039,0-2.112,0-.848.043a10.931,10.931,0,0,0-2,1.005c-.439.264-.881.549-1.293.83" transform="translate(588 266)" fill="#4a5362"/>
      <path id="Path_3" data-name="Path 3" d="M6.233,52.432c-.172.253-.353.5-.528.755q2.178,3.3,4.432,6.3c.2.265.4.534.6.795.406.53.813,1.047,1.223,1.562.2.259.408.523.615.777.92,1.139,1.852,2.236,2.794,3.306q.721-.65,1.452-1.346-1.4-1.59-2.769-3.28c-.206-.255-.408-.519-.613-.778-.408-.515-.815-1.034-1.218-1.564-.2-.261-.4-.527-.6-.791q-2.4-3.2-4.713-6.756c-.226.344-.452.692-.676,1.021" transform="translate(588 266)" fill="#4a5362"/>
      <path id="Path_4" data-name="Path 4" d="M5.151,42.351c.387-.625.775-1.25,1.164-1.859.2-.306.394-.6.59-.9q2.313-3.552,4.711-6.755c.2-.265.4-.531.6-.792.4-.529.808-1.047,1.215-1.562.2-.259.409-.523.615-.778.912-1.132,1.836-2.221,2.77-3.282-.487-.467-.972-.913-1.454-1.346-.941,1.07-1.874,2.167-2.8,3.307-.206.255-.409.519-.614.778-.408.515-.817,1.031-1.222,1.56-.2.261-.4.531-.6.8q-2.255,3-4.432,6.3c-.195.3-.389.6-.583.9q-.581.894-1.157,1.81-.286.459-.574.925C2.689,42.574,2,43.719,1.308,44.9l-.135.232v.731l.135.232C2,47.276,2.691,48.424,3.39,49.556q.594-.894,1.187-1.845c-.445-.729-.887-1.464-1.326-2.214.439-.747.879-1.481,1.322-2.208.191-.316.385-.626.578-.938" transform="translate(588 266)" fill="#4a5362"/>
      <path id="Path_5" data-name="Path 5" d="M11.183,62.461c-.408-.514-.816-1.029-1.22-1.557-.431.349-.86.7-1.3,1.029q-.513.381-1.022.731c-.5-.779-.983-1.5-1.459-2.18-1.11-1.585-2.323-3.166-3.615-4.71.666-.847,1.31-1.724,1.942-2.612.206-.289.412-.579.613-.871.1-.14.2-.276.293-.416.3-.442.6-.9.905-1.366.2-.3.391-.617.588-.929.15-.24.3-.474.451-.718.123-.2.272-.422.43-.654A7.969,7.969,0,0,0,9.08,45.727l.051-.224L9.08,45.28A7.943,7.943,0,0,0,7.791,42.8c-.159-.234-.309-.455-.433-.66-.151-.244-.3-.481-.454-.722-.391.613-.78,1.23-1.167,1.86.126.2.263.408.416.633a8.728,8.728,0,0,1,.93,1.591A8.619,8.619,0,0,1,6.152,47.1c-.151.223-.287.428-.41.626-.022.033-.052.075-.072.109-.171.278-.344.546-.516.818-.4.629-.792,1.243-1.189,1.832-.063.091-.125.191-.187.282-.139.2-.287.4-.427.6C2.443,52.673,1.5,53.956.517,55.17L0,55.81l.535.625c1.448,1.693,2.8,3.438,4.024,5.183.628.9,1.267,1.867,1.952,2.96l.534.852.843-.549c.641-.416,1.3-.872,1.954-1.357.454-.337.9-.7,1.341-1.063" transform="translate(588 266)" fill="#4a5362"/>
      <path id="Path_6" data-name="Path 6" d="M24.809,45.824v-.642l-.135-.23A62.757,62.757,0,0,0,14.152,31.158q-.615.777-1.223,1.576A60.448,60.448,0,0,1,22.7,45.5a60.432,60.432,0,0,1-9.768,12.763q.609.8,1.222,1.577A62.634,62.634,0,0,0,24.674,46.054Z" transform="translate(588 266)" fill="#4a5362"/>
      <path id="Path_7" data-name="Path 7" d="M3.346,39.634c.385-.608.771-1.2,1.158-1.8-.63-.885-1.272-1.76-1.937-2.6C3.86,33.688,5.074,32.1,6.182,30.52c.481-.686.962-1.405,1.46-2.178.347.239.687.483,1.019.728.439.326.867.679,1.3,1.026.4-.528.812-1.042,1.219-1.556-.444-.358-.884-.722-1.337-1.059-.628-.465-1.284-.921-1.95-1.356l-.845-.551-.534.854c-.678,1.083-1.315,2.051-1.95,2.957C3.339,31.133,1.985,32.878.536,34.571L0,35.195l.517.64c.979,1.213,1.923,2.493,2.829,3.8" transform="translate(588 266)" fill="#4a5362"/>
      <path id="Path_8" data-name="Path 8" d="M15.259,79.636c-1.126-2.431-2.329-4.786-3.587-7.023a50.964,50.964,0,0,0,4.936-3.839c.248-.216.5-.43.744-.654.48-.432.965-.886,1.448-1.349.24-.228.476-.449.716-.685.129-.126.255-.239.384-.367,1.5-1.488,2.982-3.114,4.43-4.845a79.106,79.106,0,0,1,7.853,16.248c.353.245.707.49,1.059.723.329-.01.744-.015,1.271-.018a80.994,80.994,0,0,0-9.269-19.172L24.5,57.534l-.848,1.049A70.757,70.757,0,0,1,18.5,64.316c-.108.108-.216.209-.325.317-.237.232-.475.466-.711.691-.485.466-.968.911-1.449,1.345-.248.221-.495.443-.741.657a47.819,47.819,0,0,1-5.462,4.141l-.789.51.468.815c1.483,2.572,2.894,5.32,4.195,8.167l.228.5.541.072a60.316,60.316,0,0,0,14.648.061c.279-.03.559-.062.826-.1l.647-.087c.242-.035.479-.072.717-.109-.814-.534-1.625-1.1-2.431-1.674a58.735,58.735,0,0,1-13.607.013" transform="translate(588 266)" fill="#4a5362"/>
      <path id="Path_9" data-name="Path 9" d="M15.273,23.672c.245.215.493.436.74.658.481.433.965.879,1.451,1.344.236.225.472.459.71.692.11.109.22.212.331.322a71.637,71.637,0,0,1,5.146,5.734L24.5,33.47l.748-1.121a80.862,80.862,0,0,0,9.164-18.855H33.082c-.238.111-.57.291-.942.509A78.933,78.933,0,0,1,24.329,30.13C22.883,28.4,21.4,26.775,19.9,25.285c-.13-.131-.26-.245-.389-.373-.24-.235-.478-.457-.717-.685-.484-.462-.969-.917-1.448-1.349-.249-.224-.5-.437-.744-.653a51.2,51.2,0,0,0-4.931-3.833c1.262-2.244,2.466-4.6,3.587-7.023a58.937,58.937,0,0,1,13.618.011,18.748,18.748,0,0,1,2.856-1.608c-.383-.062-.767-.118-1.152-.175l-.646-.086c-.274-.033-.551-.067-.823-.1a60.412,60.412,0,0,0-14.653.061l-.542.072-.227.5c-1.3,2.836-2.707,5.585-4.194,8.169l-.469.815.791.511a47.8,47.8,0,0,1,5.455,4.132" transform="translate(588 266)" fill="#4a5362"/>
      <path id="Path_10" data-name="Path 10" d="M895.335,78.6c.2-.147.407-.287.609-.437a83.208,83.208,0,0,0,10.49-9.322q-.72-.649-1.448-1.347a81.219,81.219,0,0,1-10.221,9.08c-.545.4-1.1.8-1.647,1.182-.456.319-.914.627-1.37.928-.081.054-.163.112-.244.165-.419-.021-1.02-.028-1.878-.032l-1.042,0H888.2l-9.576-.008c-7.922,0-842.356.008-842.356.008h-.384l-1.041,0c-.859,0-1.46.011-1.879.032-.081-.053-.163-.111-.244-.165-.456-.3-.914-.609-1.37-.928-.551-.383-1.1-.778-1.647-1.182a81.22,81.22,0,0,1-10.221-9.08q-.726.7-1.448,1.347a83.209,83.209,0,0,0,10.49,9.322c.2.15.406.29.609.437.394.285.787.573,1.183.848.593.412,1.187.811,1.776,1.195l1.1.157c.237,0,.558,0,.943,0l2.383,0c10.049-.013,837.4-.018,851.442,0l2.383,0c.385,0,.706,0,.943,0l1.095-.157c.589-.384,1.183-.783,1.776-1.195.4-.275.789-.563,1.183-.848" transform="translate(588 266)" fill="#4a5362"/>
      <path id="Path_11" data-name="Path 11" d="M911.9,62.62c.207-.254.41-.518.615-.777.409-.515.817-1.032,1.223-1.562.2-.261.4-.53.6-.795q2.254-3,4.432-6.3c-.175-.251-.355-.5-.527-.755-.225-.329-.451-.677-.677-1.021q-2.313,3.553-4.712,6.756c-.2.265-.4.53-.6.791-.4.53-.81,1.049-1.218,1.564-.205.259-.408.523-.614.778-.911,1.131-1.835,2.22-2.768,3.28.487.466.971.913,1.452,1.346.941-1.07,1.874-2.167,2.794-3.306" transform="translate(588 266)" fill="#4a5362"/>
      <path id="Path_12" data-name="Path 12" d="M921.078,49.555c.7-1.132,1.393-2.28,2.083-3.462l.134-.231v-.731l-.134-.232c-.687-1.18-1.381-2.325-2.079-3.455q-.286-.465-.574-.925c-.385-.61-.769-1.214-1.157-1.81-.194-.3-.388-.6-.583-.9q-2.176-3.3-4.432-6.3c-.2-.264-.4-.534-.595-.8-.405-.53-.814-1.046-1.221-1.561-.205-.259-.409-.523-.615-.778-.921-1.139-1.854-2.237-2.8-3.307-.482.433-.966.88-1.453,1.346.933,1.062,1.857,2.151,2.769,3.282.206.255.41.519.615.778.407.515.814,1.033,1.216,1.563.2.261.4.527.595.791q2.4,3.2,4.711,6.756c.2.3.393.6.59.9.389.61.778,1.234,1.164,1.859.193.313.387.623.578.939.443.727.883,1.46,1.322,2.207-.439.75-.881,1.485-1.326,2.214q.591.953,1.187,1.845" transform="translate(588 266)" fill="#4a5362"/>
      <path id="Path_13" data-name="Path 13" d="M921.117,51.365c-.14-.2-.288-.4-.427-.6-.062-.091-.124-.19-.187-.282-.4-.589-.793-1.2-1.189-1.831-.172-.273-.344-.541-.515-.819-.021-.034-.051-.075-.073-.109-.123-.2-.259-.4-.41-.626a8.588,8.588,0,0,1-.931-1.592,8.728,8.728,0,0,1,.93-1.591c.153-.225.29-.433.416-.633-.387-.63-.776-1.247-1.167-1.86-.15.241-.3.478-.454.723-.123.205-.274.425-.433.659a7.937,7.937,0,0,0-1.289,2.48l-.051.222.051.224a7.986,7.986,0,0,0,1.291,2.482c.158.232.308.452.43.653.15.245.3.478.452.718.2.312.391.625.587.929.3.467.6.925.9,1.366.1.14.2.277.293.416.2.293.407.583.613.871.632.888,1.276,1.765,1.943,2.612-1.292,1.544-2.506,3.125-3.616,4.71-.476.682-.957,1.4-1.459,2.18q-.509-.351-1.021-.73c-.441-.327-.87-.681-1.3-1.03-.4.528-.812,1.043-1.22,1.557.445.36.887.726,1.342,1.063.656.485,1.312.942,1.953,1.357l.843.549.534-.852c.685-1.092,1.324-2.061,1.952-2.959,1.221-1.746,2.576-3.491,4.024-5.184l.535-.625-.517-.639c-.981-1.215-1.926-2.5-2.834-3.806" transform="translate(588 266)" fill="#4a5362"/>
      <path id="Path_14" data-name="Path 14" d="M910.316,31.158a62.758,62.758,0,0,0-10.522,13.794l-.135.23v.642l.135.23A62.661,62.661,0,0,0,910.31,59.843q.613-.777,1.223-1.577A60.437,60.437,0,0,1,901.764,45.5a60.419,60.419,0,0,1,9.775-12.769q-.608-.8-1.223-1.576" transform="translate(588 266)" fill="#4a5362"/>
      <path id="Path_15" data-name="Path 15" d="M913.292,28.54c.407.514.815,1.028,1.219,1.556.43-.347.858-.7,1.3-1.025q.5-.369,1.019-.729c.5.773.979,1.492,1.459,2.178,1.109,1.585,2.323,3.168,3.616,4.712-.665.844-1.307,1.72-1.937,2.605.387.594.773,1.189,1.158,1.8.906-1.305,1.85-2.586,2.828-3.8l.518-.639-.536-.625c-1.449-1.693-2.8-3.438-4.025-5.185-.635-.907-1.273-1.875-1.95-2.958l-.535-.854-.844.551c-.666.435-1.322.891-1.95,1.357-.453.336-.893.7-1.337,1.058" transform="translate(588 266)" fill="#4a5362"/>
      <path id="Path_16" data-name="Path 16" d="M909.19,67.326c-.246-.214-.494-.436-.741-.657-.48-.434-.965-.879-1.449-1.344-.237-.226-.474-.459-.711-.692-.109-.108-.218-.209-.325-.317a70.95,70.95,0,0,1-5.146-5.733l-.846-1.049-.748,1.122a81,81,0,0,0-9.268,19.171c.526,0,.94.009,1.271.018.351-.233.7-.478,1.058-.723a79.029,79.029,0,0,1,7.853-16.248c1.448,1.731,2.933,3.357,4.43,4.845.128.128.255.241.383.367.24.236.477.457.716.685.484.463.969.917,1.448,1.349.25.225.5.438.744.654a51.1,51.1,0,0,0,4.938,3.839c-1.26,2.237-2.463,4.593-3.589,7.023a58.78,58.78,0,0,1-13.606-.012c-.807.576-1.617,1.139-2.432,1.673.239.037.476.074.718.109l.647.087c.267.034.547.066.827.1a60.308,60.308,0,0,0,14.647-.061l.541-.072.229-.5c1.3-2.847,2.711-5.594,4.193-8.167l.469-.815-.79-.51a47.693,47.693,0,0,1-5.461-4.141" transform="translate(588 266)" fill="#4a5362"/>
      <path id="Path_17" data-name="Path 17" d="M909.209,11.369c1.121,2.422,2.325,4.779,3.587,7.023a51.217,51.217,0,0,0-4.93,3.833c-.248.216-.5.43-.744.653-.48.432-.965.887-1.449,1.349-.239.228-.477.45-.716.685-.13.128-.259.243-.39.373-1.5,1.49-2.982,3.117-4.428,4.846A79.071,79.071,0,0,1,892.328,14c-.371-.218-.7-.4-.941-.509h-1.326a80.849,80.849,0,0,0,9.163,18.856l.748,1.121.846-1.049a71.452,71.452,0,0,1,5.146-5.734c.11-.11.22-.213.33-.321.238-.234.475-.468.711-.693.486-.465.969-.911,1.45-1.344.248-.222.495-.443.74-.658a47.8,47.8,0,0,1,5.456-4.132l.79-.51-.468-.816c-1.488-2.584-2.9-5.333-4.2-8.169l-.227-.5-.542-.072a60.4,60.4,0,0,0-14.652-.061c-.273.029-.549.063-.824.1l-.645.086c-.386.057-.77.112-1.152.174a18.67,18.67,0,0,1,2.855,1.609,58.883,58.883,0,0,1,13.618-.012" transform="translate(588 266)" fill="#4a5362"/>
    </g>
  </g>
</svg>
