<svg xmlns="http://www.w3.org/2000/svg" xmlns:xlink="http://www.w3.org/1999/xlink" width="491.89" height="453.512" viewBox="0 0 491.89 453.512">
  <defs>
    <clipPath id="clip-path">
      <rect id="Rectangle_2" data-name="Rectangle 2" width="491.89" height="453.512" transform="translate(1070.81)" fill="none"/>
    </clipPath>
  </defs>
  <g id="collection_symbol" data-name="collection symbol" transform="translate(-1070.81)" opacity="0.4" clip-path="url(#clip-path)">
    <path id="Path_57" data-name="Path 57" d="M1090.078,286.235a44.74,44.74,0,0,1-10.807-61.866l91.18-130.984a43.749,43.749,0,0,1,18.948-15.31,63.075,63.075,0,0,0-.115,22.089l2.541,14.551-65.819,94.561a54.458,54.458,0,0,0,13.153,75.327l93.98,66.649,7.265,41.6Z" fill="none" stroke="#ca9f44" stroke-miterlimit="10" stroke-width="1"/>
    <path id="Path_58" data-name="Path 58" d="M1203.61,126.511l36.611,209.615-86.131-61.084a44.739,44.739,0,0,1-10.806-61.866Z" fill="none" stroke="#ca9f44" stroke-miterlimit="10" stroke-width="1"/>
    <path id="Path_59" data-name="Path 59" d="M1484.858,10.266a52.227,52.227,0,0,0-39.492-8.976l-184.88,32.282a.313.313,0,0,1-.046.008c-28.689,5.04-47.91,32.669-42.85,61.628L1272.362,408.8c5.06,28.959,32.533,48.439,61.247,43.43l184.877-32.292.065-.011A52.243,52.243,0,0,0,1552.6,398.1a53.186,53.186,0,0,0,8.786-39.795L1506.612,44.719A53.21,53.21,0,0,0,1484.858,10.266Zm-175.28,118.991a15.063,15.063,0,1,1-12.132,17.406A15.025,15.025,0,0,1,1309.578,129.257Zm-1.951,43.259a8.774,8.774,0,1,1-7.053,10.127A8.732,8.732,0,0,1,1307.627,172.516Zm-28.179-7.17a9.141,9.141,0,1,1,10.589,7.51A9.16,9.16,0,0,1,1279.448,165.346Zm96,167.305c-13.01,14.946-35.629,15.717-45.411,4.143-14.941-17.737-10.367-31.955-1.845-42.663,5.846-5.845,25.016-18.63,49.625-10.9a5.489,5.489,0,0,1,.616-.039l-.106.213c.619.207,1.238.426,1.864.682a.29.29,0,0,1,.136.024,75.691,75.691,0,0,1-6.364,22.326c-1.249-.74-2.493-1.537-3.747-2.424-8.976-6.222-17.926-5.558-24.812-2.393a22.522,22.522,0,0,0-7.232,6.892c-8.346,12.751,6.261,25.862,19.223,20.656,41.743-16.832,24.467-106.143,24.467-106.143C1402.025,262.663,1395.4,309.688,1375.445,332.651ZM1490.607,239.2c6.325,87.01-66.611,81.039-88.1,77.435a72.775,72.775,0,0,1-11.681-2.585c.409-.9.819-1.768,1.211-2.656,2.856-6.711,4.008-13.737,5.4-20.618,6.49,2.239,10.7,3.173,13.23,3.387,40.168-1.175,61.527-31.235,48.717-78.267-13.9-51-68.079-42.389-75.471-40.664-7.38,1.774-15.482,7.241-15.482,7.241s3.66,8.018-6.559,11.639c-10.236,3.6-10.422,15.519-13.932,16.131s-10.608-3.641-10.608-3.641l-9.728-6.505s7.743-2.289,10.023-2.216,10.185-16.859,10.185-16.859l-2.554-6.839,11.09-14.253c20.361-44.216,45.963-34.98,45.963-34.98-8.443.991-24.13,25.22-22.211,25.791s4.307,6.555,7.543,6.9,19.866-8.025,19.866-8.025L1403,159.439c36.169-15.892,61.693-3.83,61.693-3.83a21.715,21.715,0,0,0-15.647,14.122C1488.349,192.581,1490.607,239.2,1490.607,239.2Z" fill="none" stroke="#ca9f44" stroke-miterlimit="10" stroke-width="1"/>
  </g>
</svg>
