<svg xmlns="http://www.w3.org/2000/svg" width="910.541" height="570.084" viewBox="0 0 910.541 570.084">
  <g id="video_frame" data-name="video frame" transform="translate(-562.114 -253.389)">
    <path id="Path_62" data-name="Path 62" d="M1261.063,96.389l-141.408,3.039,141.408,2.82a32.77,32.77,0,0,1,32.733,32.733L1296.649,222l3.006-87.015a38.635,38.635,0,0,0-38.592-38.592" transform="translate(173 157)" fill="#e6c982" opacity="0.4"/>
    <path id="Path_63" data-name="Path 63" d="M394.933,135.146a32.546,32.546,0,0,1,32.509-32.509l141.672-2.855L427.442,96.818a38.371,38.371,0,0,0-38.328,38.328l2.92,86.42Z" transform="translate(173 157)" fill="#e6c982" opacity="0.4"/>
    <path id="Path_64" data-name="Path 64" d="M1289.135,600.612a55.925,55.925,0,0,1-55.862,55.861H455.5a55.924,55.924,0,0,1-55.861-55.861L394.684,472l-5.049,128.612A65.935,65.935,0,0,0,455.5,666.473h777.777a65.936,65.936,0,0,0,65.862-65.861L1293.821,472Z" transform="translate(173 157)" fill="#e6c982" opacity="0.4"/>
  </g>
</svg>
