<svg xmlns="http://www.w3.org/2000/svg" width="51.396" height="39.234" viewBox="0 0 51.396 39.234">
  <path id="discord_symbol_" data-name="discord symbol " d="M114.539,53.152c-.065,1.427-.1,2.86-.22,4.29a.567.567,0,0,1-.273.426,42.122,42.122,0,0,1-10.909,5.751c-.487.161-.974.309-1.453.484a.365.365,0,0,1-.5-.175,36.919,36.919,0,0,1-2.4-3.9c-.157-.3-.062-.4.2-.488a27.079,27.079,0,0,0,3.564-1.676c.369-.218.34-.215.036-.533a1.067,1.067,0,0,0-1.43-.186,30.257,30.257,0,0,1-13.463,2.528A30.42,30.42,0,0,1,76.635,57a.652.652,0,0,0-.793.095c-.661.544-.663.536.076.94a25.148,25.148,0,0,0,3.218,1.5c.311.113.342.256.2.534a35.921,35.921,0,0,1-2.358,3.84.427.427,0,0,1-.564.178A42.121,42.121,0,0,1,65.134,58.6a4.158,4.158,0,0,0-.5-.341,1.509,1.509,0,0,1-.87-1.506c-.014-1.234-.126-2.484-.121-3.727a42.335,42.335,0,0,1,5.872-21.357c.534-.931,1.1-1.843,1.694-2.745a1.16,1.16,0,0,1,.494-.438,42.327,42.327,0,0,1,9.965-3.069c.239-.042.309.07.4.228a23.405,23.405,0,0,1,1.1,2.222c.093.2.191.263.4.226a38.146,38.146,0,0,1,4.5-.389,40.159,40.159,0,0,1,4.179.116,17.685,17.685,0,0,1,2.35.273A.317.317,0,0,0,95,27.869c.311-.731.667-1.447,1.039-2.159a.431.431,0,0,1,.548-.273,42.628,42.628,0,0,1,9.888,3.054.992.992,0,0,1,.44.388,44.216,44.216,0,0,1,6.469,14.473,40.831,40.831,0,0,1,.873,5.138,37.624,37.624,0,0,1,.23,3.915C114.484,52.651,114.518,52.9,114.539,53.152ZM81.108,41.622a4.417,4.417,0,0,0-3.86,1.7,5.525,5.525,0,0,0-.325,6.305A4.247,4.247,0,0,0,83.8,50.4a5.336,5.336,0,0,0,.907-5.99A4.207,4.207,0,0,0,81.108,41.622Zm20.982,5.087a5.2,5.2,0,0,0-.778-2.866,4.264,4.264,0,0,0-7-.744,5.513,5.513,0,0,0-.187,6.979A4.181,4.181,0,0,0,100,51,5.122,5.122,0,0,0,102.09,46.709Z" transform="translate(-63.394 -25.155)" fill="none" stroke="#ca9f44" stroke-miterlimit="10" stroke-width="0.5"/>
</svg>
