<svg xmlns="http://www.w3.org/2000/svg" width="337" height="337.001" viewBox="0 0 337 337.001">
  <g id="dragon_silver_symbol" data-name="dragon silver symbol" transform="translate(-1507.293 -151)" opacity="0.39">
    <path id="Path_77" data-name="Path 77" d="M1541.749,168.5a155.724,155.724,0,0,0-76.363-133.941c-37.637,110.25,20.806,105.881,20.806,105.881s-5.775,19.387-36.156,10.087c-21.848-6.649-28.769-62.989-48.56-37.417-28.134,36.365-24.758-38.772,2.152-39.021,20.457-.194,32.007,44.952,32.007,44.952S1465.691.894,1386.41,34.255c-22.188,9.322-85.567,53.221,14.912,126.8,8.115,2.9,16.336,5.419,24.7,7.6.123.038.231.038.354.077a97.2,97.2,0,0,0-19.819,2.919q7.665,8.4,15.887,16.273c37.922,29.383,39.037,99.767,39.037,99.767s-24.938,18.111-54.4,35.138C1483.117,312.428,1541.749,247.391,1541.749,168.5Z" transform="translate(290 151)" fill="none" stroke="#ca9f44" stroke-miterlimit="10" stroke-width="1"/>
    <path id="Path_78" data-name="Path 78" d="M1297.932,196.524s5.745-19.347,36.126-10.071c21.848,6.65,28.786,63,48.512,37.448,28.167-36.388,24.807,38.757-2.122,39.005-20.454.193-31.989-44.966-31.989-44.966s-30.041,118.146,49.239,84.807c22.2-9.314,85.6-53.211-14.9-126.809q-12.2-4.377-24.745-7.594c-.124-.032-.216-.062-.341-.094a95.4,95.4,0,0,0,19.82-2.927q-7.618-8.407-15.886-16.258c-37.968-29.374-39.036-99.8-39.036-99.8s26.182-19.018,56.6-36.393c-83.058,3.473-149.38,71.713-149.38,155.625a155.81,155.81,0,0,0,87.051,139.751c.455-1.483.83-2.876,1.378-4.465C1356.9,192.111,1297.932,196.524,1297.932,196.524Z" transform="translate(290 151)" fill="none" stroke="#ca9f44" stroke-miterlimit="10" stroke-width="1"/>
    <path id="Path_79" data-name="Path 79" d="M1469.041,22.7c-.854,3.26-1.911,6.747-3.211,10.508-.16.464-.287.888-.444,1.349A155.724,155.724,0,0,1,1541.749,168.5c0,78.891-58.633,143.928-134.666,154.335-8.146,4.709-16.618,9.34-25.029,13.476,1.254.028,2.476.189,3.738.189a167.92,167.92,0,0,0,83.249-313.8Z" transform="translate(290 151)" fill="none" stroke="#e6c982" stroke-miterlimit="10" stroke-width="1"/>
    <path id="Path_80" data-name="Path 80" d="M1229.836,168.5c0-83.912,66.321-152.152,149.38-155.625,7.086-4.047,14.4-8.006,21.669-11.613-4.98-.444-10-.762-15.092-.762A167.893,167.893,0,0,0,1313.8,320.119a121.328,121.328,0,0,1,3.086-11.868A155.81,155.81,0,0,1,1229.836,168.5Z" transform="translate(290 151)" fill="none" stroke="#e6c982" stroke-miterlimit="10" stroke-width="1"/>
  </g>
</svg>
