<svg xmlns="http://www.w3.org/2000/svg" width="39.453" height="39.238" viewBox="0 0 39.453 39.238">
  <g id="drunken_dragon_symbol" data-name="drunken dragon symbol" transform="translate(-1112.544 -291.153)">
    <path id="Path_24" data-name="Path 24" d="M548.219,44.25s.163,8.966-4.214,9.893c-1.359.285-2.566-1.236-1.53-2.332a2.24,2.24,0,0,1,.826-.547,2.422,2.422,0,0,1,2.39.653c.108.107.216.206.326.3a7.421,7.421,0,0,0,1-2.06l-.013,0c-.057-.035-.114-.067-.17-.1l.013-.019-.06-.006a5.091,5.091,0,0,0-5.049.217,2.965,2.965,0,0,0-.549,4.175c.76,1.29,2.989,1.6,4.52.367C548.063,52.9,549.516,48.442,548.219,44.25Z" transform="translate(588 266)" fill="none" stroke="#ca9f44" stroke-miterlimit="10" stroke-width="0.5"/>
    <g id="Group_2" data-name="Group 2">
      <path id="Path_20" data-name="Path 20" d="M559.954,30.311a.235.235,0,0,1-.027-.251,5.791,5.791,0,0,1,1.6-1.424,3.894,3.894,0,0,0,.621-.579,1.523,1.523,0,0,0,.317-.519,3.621,3.621,0,0,0,.066-.479,1.5,1.5,0,0,1,.037-.163c0-.015.017-.065.026-.092l-.006-.02c-.005-.013-.023-.062-.026-.072a1.149,1.149,0,0,1,.5-1.255c.027-.019.054-.036.082-.054H544.464c-.011.043-.021.085-.033.127a5.423,5.423,0,0,1-1.043,2.242.158.158,0,0,1-.247,0c-.515-.765-.952-1.6-1.462-2.369h-4.228a3.157,3.157,0,0,0-2.861,3.386v2.856a12.367,12.367,0,0,1,1.656.647c.122.06.2.3.042.379-.569.312-1.132.641-1.7.958v7.2h.011V60.146h-2.078V50.622H524.8c.241,7.236,4.63,13.068,10.715,13.493l-.928.026h16.545c6.717,0,12.162-6.443,12.162-14.39v-18.1A4.985,4.985,0,0,1,559.954,30.311Z" transform="translate(588 266)" fill="none" stroke="#ca9f44" stroke-miterlimit="10" stroke-width="0.5"/>
      <path id="Path_21" data-name="Path 21" d="M544.228,35.4a1.487,1.487,0,1,1-1.486-1.484A1.487,1.487,0,0,1,544.228,35.4Z" transform="translate(588 266)" fill="none" stroke="#ca9f44" stroke-miterlimit="10" stroke-width="0.5"/>
      <path id="Path_22" data-name="Path 22" d="M542.674,38.95a.864.864,0,1,1-.864-.864A.863.863,0,0,1,542.674,38.95Z" transform="translate(588 266)" fill="none" stroke="#ca9f44" stroke-miterlimit="10" stroke-width="0.5"/>
      <path id="Path_23" data-name="Path 23" d="M540.99,36.912a.909.909,0,1,1-.909-.909A.908.908,0,0,1,540.99,36.912Z" transform="translate(588 266)" fill="none" stroke="#ca9f44" stroke-miterlimit="10" stroke-width="0.5"/>
      <path id="Path_25" data-name="Path 25" d="M555.713,40.215a2.159,2.159,0,0,1,1.775-1.106,7.854,7.854,0,0,0-6.11-.674l.61-.878A9.986,9.986,0,0,1,549.9,38c-.311-.088-.444-.711-.621-.8s1.773-2.175,2.617-2.128c0,0-2.35-1.331-5.1,2.618l-1.33,1.2.133.707s-1.064,1.51-1.286,1.465a6.076,6.076,0,0,0-1.02.045l.842.8s.623.533.976.533.577-1.154,1.641-1.33.842-1.019.842-1.019a5.755,5.755,0,0,1,1.641-.441c.753-.042,6.209.04,6.7,5.229.45,4.785-2.157,7.342-6.112,6.775a5.974,5.974,0,0,1-1.238-.554,10.234,10.234,0,0,1-.883,1.911c-.053.079-.108.157-.164.237a7.258,7.258,0,0,0,1.1.449c2.043.715,9.086,2.532,9.956-6.025A8.94,8.94,0,0,0,555.713,40.215Z" transform="translate(588 266)" fill="none" stroke="#ca9f44" stroke-miterlimit="10" stroke-width="0.5"/>
    </g>
  </g>
</svg>
