<svg xmlns="http://www.w3.org/2000/svg" width="19.353" height="39.232" viewBox="0 0 19.353 39.232">
  <path id="facebook_symbol" data-name="facebook symbol" d="M848.671,64.14h-7v-.164q0-8.892,0-17.785c0-.2.027-.18-.185-.18h-4.605V39.392h4.791v-.161q0-2.718,0-5.436a8.666,8.666,0,0,1,.815-3.755,7.587,7.587,0,0,1,4.258-3.9,10.779,10.779,0,0,1,2.866-.666,22.744,22.744,0,0,1,3.353-.029c.723.033,1.446.1,2.168.15.165.012.329.035.493.049.073.007.1.032.1.111-.023.874-.042,1.748-.064,2.622q-.042,1.653-.086,3.307c0,.046,0,.093,0,.154H855.4q-2-.008-3.994-.016a5.052,5.052,0,0,0-1.219.123,1.751,1.751,0,0,0-1.416,1.51,6.755,6.755,0,0,0-.1,1.08c-.01,1.576-.005,3.152-.005,4.727,0,.035,0,.07.006.121h7.058c0,.237.008.457,0,.676-.035.806-.076,1.613-.114,2.419q-.082,1.717-.162,3.434c0,.071-.027.1-.1.1-.043,0-.087,0-.13,0h-6.558Z" transform="translate(-836.634 -25.158)" fill="none" stroke="#ca9f44" stroke-miterlimit="10" stroke-width="0.5"/>
</svg>
