<svg xmlns="http://www.w3.org/2000/svg" width="40" height="40.043" viewBox="0 0 40 40.043">
  <g id="instagram_symbol" data-name="instagram symbol" transform="translate(0.248 0.25)">
    <path id="Path_32" data-name="Path 32" d="M696.779,25c3.4.087,6.167.095,8.929.245a10.546,10.546,0,0,1,10.552,9.308,54.949,54.949,0,0,1,.319,8.052q-.009,4.9-.084,9.791a14.252,14.252,0,0,1-1.126,5.793,10.151,10.151,0,0,1-7.463,5.9,28.044,28.044,0,0,1-5.961.45c-4.229.019-8.459-.016-12.689-.071a14.2,14.2,0,0,1-5.613-1.05,10.153,10.153,0,0,1-6.078-7.588,31.256,31.256,0,0,1-.449-6.236c-.041-3.276-.053-6.554.008-9.83a41.827,41.827,0,0,1,.391-5.575,10.007,10.007,0,0,1,5.012-7.42,10.381,10.381,0,0,1,4.746-1.443C690.648,25.152,694.028,25.088,696.779,25ZM680.607,44.8h.071c0,1.593-.043,3.187.011,4.778a43.766,43.766,0,0,0,.353,5.341,6.5,6.5,0,0,0,5.1,5.6,16.21,16.21,0,0,0,4.114.426q6.618.045,13.238,0a20.32,20.32,0,0,0,3.5-.317,6.566,6.566,0,0,0,5.526-5.084,17.712,17.712,0,0,0,.444-4.465q.053-5.385.026-10.771a29.935,29.935,0,0,0-.334-5.58,6.633,6.633,0,0,0-5.124-5.586,19.408,19.408,0,0,0-4.78-.446c-3.3-.036-6.605-.038-9.908-.026a34.167,34.167,0,0,0-6.09.337,6.6,6.6,0,0,0-5.258,4.072,9.864,9.864,0,0,0-.71,3.547C680.705,39.344,680.664,42.072,680.607,44.8Z" transform="translate(-677.082 -25)" fill="none" stroke="#ca9f44" stroke-miterlimit="10" stroke-width="0.5"/>
    <path id="Path_33" data-name="Path 33" d="M696.825,54.945a10.133,10.133,0,1,1,10.147-10.1A10.118,10.118,0,0,1,696.825,54.945ZM690.26,44.816a6.578,6.578,0,1,0,6.6-6.579A6.59,6.59,0,0,0,690.26,44.816Z" transform="translate(-677.082 -25)" fill="none" stroke="#ca9f44" stroke-miterlimit="10" stroke-width="0.5"/>
    <path id="Path_34" data-name="Path 34" d="M705,34.242a2.377,2.377,0,0,1,4.753.053A2.377,2.377,0,1,1,705,34.242Z" transform="translate(-677.082 -25)" fill="none" stroke="#ca9f44" stroke-miterlimit="10" stroke-width="0.5"/>
  </g>
</svg>
