<svg xmlns="http://www.w3.org/2000/svg" width="43.94" height="39.242" viewBox="0 0 43.94 39.242">
  <path id="reddit_symbol" data-name="reddit symbol" d="M220.184,46.186V43.981a.416.416,0,0,0,.024.034c.008.009.022.025.026.023.164-.088.135-.27.181-.409a4.739,4.739,0,0,1,7.527-2.2.415.415,0,0,0,.612.013,19.108,19.108,0,0,1,4.077-2.141,25.048,25.048,0,0,1,8.1-1.647c.313-.013.455-.086.525-.43.725-3.555,1.473-7.105,2.22-10.656.184-.878.509-1.08,1.374-.9,2.389.507,4.78,1,7.164,1.531a.5.5,0,0,0,.641-.255,3.378,3.378,0,1,1,5.246,4.2,3.367,3.367,0,0,1-5.734-1.749c-.064-.335-.164-.505-.534-.555-.571-.076-1.132-.234-1.7-.356-1.49-.32-2.98-.643-4.473-.954-.191-.04-.427-.182-.508.2q-.995,4.767-2.024,9.528c-.057.265-.007.383.289.393a21.778,21.778,0,0,1,2.237.195,22.273,22.273,0,0,1,9.77,3.582.466.466,0,0,0,.677-.04,4.517,4.517,0,0,1,4.018-.936,4.675,4.675,0,0,1,3.5,3.24c.034.1-.042.314.2.271v2.205a.272.272,0,0,0-.028-.031.145.145,0,0,0-.029-.019.838.838,0,0,0-.1.176A4.717,4.717,0,0,1,261,49.344c-.181.094-.183.217-.164.38a9.784,9.784,0,0,1-2.049,7.229,15.72,15.72,0,0,1-6.516,5.006,25.732,25.732,0,0,1-18.737.79,17.392,17.392,0,0,1-7.77-4.879,10.054,10.054,0,0,1-2.8-8.189.306.306,0,0,0-.192-.364,4.717,4.717,0,0,1-2.426-2.961C220.33,46.283,220.379,46.1,220.184,46.186Zm29.195,5.694a3.394,3.394,0,1,0-3.4-3.376A3.395,3.395,0,0,0,249.379,51.88Zm-14.975,0a3.395,3.395,0,1,0-3.37-3.41A3.4,3.4,0,0,0,234.4,51.881Zm7.471,8.073a16.707,16.707,0,0,0,4.03-.458,8.515,8.515,0,0,0,3.945-1.929.888.888,0,0,0,.143-1.311.863.863,0,0,0-1.312,0,5.653,5.653,0,0,1-1.92,1.13,14.852,14.852,0,0,1-7.721.543,7.735,7.735,0,0,1-4.05-1.776.819.819,0,0,0-1.18.1.85.85,0,0,0,.017,1.188,5.613,5.613,0,0,0,1.605,1.159A14.547,14.547,0,0,0,241.875,59.954Z" transform="translate(-219.934 -25.151)" fill="none" stroke="#ca9f44" stroke-miterlimit="10" stroke-width="0.5"/>
</svg>
