<svg xmlns="http://www.w3.org/2000/svg" width="1271.81" height="698.44" viewBox="0 0 1271.81 698.44">
  <g id="marco" transform="translate(-400 -256.84)" opacity="0.4">
    <path id="Path_35" data-name="Path 35" d="M3.5,70.23a9.9,9.9,0,0,1,9.89-9.891l164.744-1.677L13.389,56.84A13.4,13.4,0,0,0,0,70.23L1.719,180.9Z" transform="translate(400 201)" fill="#fff"/>
    <path id="Path_36" data-name="Path 36" d="M1266.062,69.23a9.9,9.9,0,0,0-9.891-9.891l-164.744-1.677,164.744-1.822a13.406,13.406,0,0,1,13.39,13.39L1267.842,179.9Z" transform="translate(400 201)" fill="#fff"/>
    <path id="Path_37" data-name="Path 37" d="M1268.311,739.89a9.9,9.9,0,0,1-9.891,9.891l-164.744,1.677,164.744,1.822a13.406,13.406,0,0,0,13.39-13.39l-1.719-356.673Z" transform="translate(400 201)" fill="#fff"/>
    <path id="Path_38" data-name="Path 38" d="M5.748,740.89a9.9,9.9,0,0,0,9.891,9.891l164.744,1.677L15.639,754.28a13.406,13.406,0,0,1-13.39-13.39L3.968,384.217Z" transform="translate(400 201)" fill="#fff"/>
  </g>
</svg>
