<svg xmlns="http://www.w3.org/2000/svg" width="90.402" height="46.902" viewBox="0 0 90.402 46.902">
  <path id="shape" d="M811.638,46.467s17.256-.188,24.51-9.454c1.3-1.335,2.627-2.625,4-3.863a23.573,23.573,0,0,1,.7,4.864c.009-.028.009-.057.018-.087.544-2.043,1.167-4.064,1.892-6.049,18.174-24.536,28.852-8.941,31.1-3.492,8.072,19.484-20.85,11.961-20.85,11.961s11.091-2.773,11.065-7.786c-.024-6.6-18.439-7.521-9.558-.572,6.242,4.877-7.58,6.5-9.241,11.843-2.322,7.431,2.424,8.873,2.424,8.873s-1.006-14.454,26.321-4.846c28.764,10.113-3.755-35.125-3.755-35.125s-17.256.178-24.51,9.444q-1.95,2-4.013,3.869a23.628,23.628,0,0,1-.691-4.868.3.3,0,0,0-.019.088c-.546,2.046-1.168,4.062-1.894,6.051-18.174,24.536-28.849,8.937-31.111,3.487-8.069-19.482,20.85-11.959,20.85-11.959S817.8,21.619,817.82,26.632c.024,6.6,18.446,7.519,9.568.571-6.242-4.876,7.577-6.5,9.241-11.844,2.312-7.43-2.427-8.867-2.427-8.867s1.008,14.454-26.319,4.847c-28.766-10.115,3.755,35.128,3.755,35.128" transform="translate(-795.753 -6.147)" fill="none" stroke="#fff" stroke-miterlimit="10" stroke-width="0.5"/>
</svg>
