<svg xmlns="http://www.w3.org/2000/svg" xmlns:xlink="http://www.w3.org/1999/xlink" width="652.314" height="253.466" viewBox="0 0 652.314 253.466">
  <defs>
    <clipPath id="clip-path">
      <rect id="Rectangle_36" data-name="Rectangle 36" width="211.44" height="147.259" transform="translate(0 253.696)" fill="none"/>
    </clipPath>
    <clipPath id="clip-path-2">
      <rect id="Rectangle_37" data-name="Rectangle 37" width="211.44" height="147.259" transform="translate(440.874 253.696)" fill="none"/>
    </clipPath>
  </defs>
  <g id="header" transform="translate(-290 -298.489)" opacity="0.4">
    <path id="Path_66" data-name="Path 66" d="M343.9,211.024a64.2,64.2,0,0,1,10.939,11.854c.506.729,1.063,1.513,1.6,2.333a101.189,101.189,0,0,1,13.07-7.594,57.9,57.9,0,0,0,3.126-7.966,69.46,69.46,0,0,0,1.881-7.429q.315-1.582.552-3.175c.078-.5.149-1.006.208-1.511a.566.566,0,0,1,.016-.06v-.009c.015-.109.025-.215.038-.321.024-.224.052-.447.076-.677.116-1.062.216-2.134.281-3.214a103.456,103.456,0,0,0-26.138,13.333c-1.949,1.394-3.831,2.879-5.653,4.436" transform="translate(290 151)" fill="#e6c982"/>
    <path id="Path_67" data-name="Path 67" d="M324.9,203.7c-8.757,5.153-17.1,11.6-23.122,19.867a46.856,46.856,0,0,0-2.854,4.4,81.656,81.656,0,0,1,24.5,27.886c.607,1.166,1.208,2.365,1.783,3.583a77.49,77.49,0,0,1,12.841-20.125,84.516,84.516,0,0,1,13.174-12.094c-5.954-10.186-16.245-17.855-26.323-23.516" transform="translate(290 151)" fill="#e6c982"/>
    <path id="Path_68" data-name="Path 68" d="M316.889,201c1.273-.892,2.579-1.746,3.912-2.573,1.12-.7,2.663-2.03,3.993-2.223,1.371-.2,3.358,1.461,4.494,2.142q1.905,1.14,3.756,2.369,3.043,2,5.927,4.265a91.866,91.866,0,0,1,11.059-8.155c-6.077-9.3-15.735-16.389-25.209-21.71-8.769,5.153-17.106,11.589-23.125,19.865-.6.825-1.183,1.674-1.73,2.536q2.033,1.239,4,2.584c2.437,1.661,4.777,3.456,7.029,5.346,1.9-1.561,3.872-3.047,5.9-4.446" transform="translate(290 151)" fill="#e6c982"/>
    <path id="Path_69" data-name="Path 69" d="M354.244,192.474c.18.257.37.525.555.794q4.061-2.359,8.314-4.364c.1-.8.189-1.593.251-2.377a62.3,62.3,0,0,0,.115-7.909c-.052-1.15-.138-2.3-.25-3.451-.054-.522-.112-1.042-.176-1.565-.024-.246-.059-.492-.088-.737-.014-.1-.075-.534-.075-.554-.209-1.375-.437-2.758-.747-4.121a84.822,84.822,0,0,0-21.492,10.259,66.63,66.63,0,0,1,13.593,14.025" transform="translate(290 151)" fill="#e6c982"/>
    <path id="Path_70" data-name="Path 70" d="M316.571,171.1q1.926-1.334,3.912-2.573c1.122-.705,2.678-2.036,4-2.228,1.371-.195,3.355,1.466,4.488,2.147q1.914,1.145,3.766,2.367c1.055.7,2.111,1.429,3.148,2.177a82.966,82.966,0,0,1,11.7-6.8c-6.063-7.834-14.633-13.974-23.056-18.7-8.574,5.035-16.728,11.314-22.715,19.323a81.758,81.758,0,0,1,11.677,6.522c1.009-.764,2.032-1.51,3.079-2.232" transform="translate(290 151)" fill="#e6c982"/>
    <path id="Path_71" data-name="Path 71" d="M296.29,193.9a58.031,58.031,0,0,1,7.612-9.44,74.384,74.384,0,0,1,6.1-5.579,85.406,85.406,0,0,0-21.875-10.06c-.023.118-.048.237-.074.359q-.229,1.164-.4,2.329c-.068.462-.138.93-.2,1.389,0,.03-.005.061-.005.079s-.007.025-.01.05c-.015.122-.025.238-.045.356-.029.287-.064.576-.091.86a62.88,62.88,0,0,0,.208,15.257c2.992,1.327,5.926,2.79,8.779,4.4" transform="translate(290 151)" fill="#e6c982"/>
    <path id="Path_72" data-name="Path 72" d="M306.541,211.481a99.675,99.675,0,0,0-32.333-17.364c.04.576.094,1.157.153,1.734.045.444.1.9.15,1.345.032.239.064.486.1.726.015.13.035.255.05.39v.008a.562.562,0,0,1,.014.062,67.766,67.766,0,0,0,6.063,19.891,98.326,98.326,0,0,1,13.686,7.65,55.4,55.4,0,0,1,8.6-11.08c1.131-1.16,2.308-2.275,3.518-3.362" transform="translate(290 151)" fill="#e6c982"/>
    <path id="Path_73" data-name="Path 73" d="M393.32,226.575S380.885,239.558,382.5,251.71c.046,1.941.04,3.869-.042,5.8a24.5,24.5,0,0,1-4.131-3.022c.013.026.035.048.051.077,1.124,1.893,2.175,3.83,3.124,5.816,5.022,31.409-14.369,27.993-20.065,25.7-20.386-8.19,6.29-24.237,6.29-24.237s-6.018,10.277-2.267,13.911c4.931,4.792,19.035-8.246,7.391-6.7-8.179,1.092.682-10.381-2.083-15.51-3.839-7.144-8.371-4.661-8.371-4.661s11.493,9.784-15.574,23.126c-28.489,14.043,28.885,22.8,28.885,22.8s12.442-12.976,10.83-25.129q-.07-2.91.045-5.806a24.638,24.638,0,0,1,4.127,3.032.35.35,0,0,0-.051-.078c-1.126-1.9-2.173-3.83-3.125-5.819-5.022-31.409,14.37-27.989,20.075-25.7,20.384,8.19-6.29,24.237-6.29,24.237s6.011-10.271,2.265-13.91c-4.934-4.794-19.039,8.253-7.4,6.707,8.178-1.093-.684,10.376,2.083,15.51,3.845,7.136,8.368,4.655,8.368,4.655s-11.494-9.782,15.572-23.125c28.493-14.043-28.887-22.8-28.887-22.8" transform="translate(290 151)" fill="#e6c982"/>
    <path id="Path_74" data-name="Path 74" d="M276.083,295.338s-12.573-12.849-11.091-25.018c.026-1.941,0-3.869-.1-5.8a24.556,24.556,0,0,0-4.1,3.067c.013-.027.035-.049.05-.078,1.1-1.9,2.135-3.852,3.062-5.849,4.687-31.461-14.667-27.838-20.338-25.483-20.3,8.407,6.548,24.17,6.548,24.17s-6.127-10.213-2.415-13.887c4.879-4.844,19.122,8.043,7.462,6.62-8.19-1.005.793,10.373-1.917,15.532-3.763,7.183-8.321,4.749-8.321,4.749s11.388-9.906-15.82-22.958c-28.638-13.738,28.64-23.108,28.64-23.108s12.58,12.843,11.1,25.011q-.039,2.913.106,5.807a24.58,24.58,0,0,0,4.1-3.077.3.3,0,0,1-.05.078c-1.106,1.909-2.132,3.853-3.063,5.853-4.686,31.461,14.668,27.834,20.348,25.486,20.3-8.407-6.549-24.168-6.549-24.168s6.121,10.206,2.414,13.884c-4.882,4.847-19.126-8.049-7.468-6.627,8.19,1.006-.795-10.368,1.917-15.531,3.769-7.177,8.319-4.745,8.319-4.745s-11.389,9.9,15.817,22.958c28.641,13.739-28.642,23.11-28.642,23.11" transform="translate(290 151)" fill="#e6c982"/>
    <g id="Group_101" data-name="Group 101" transform="translate(290 151)">
      <g id="Group_100" data-name="Group 100" clip-path="url(#clip-path)">
        <path id="Path_75" data-name="Path 75" d="M4.153,269.59a11.754,11.754,0,0,1,11.741-11.741l195.546-1.99L15.894,253.7A15.911,15.911,0,0,0,0,269.59L2.04,400.955Z" fill="#e6c982"/>
      </g>
    </g>
    <g id="Group_104" data-name="Group 104" transform="translate(290 151)">
      <g id="Group_103" data-name="Group 103" clip-path="url(#clip-path-2)">
        <path id="Path_76" data-name="Path 76" d="M648.161,269.59a11.754,11.754,0,0,0-11.741-11.741l-195.546-1.99L636.42,253.7a15.911,15.911,0,0,1,15.894,15.893l-2.04,131.365Z" fill="#e6c982"/>
      </g>
    </g>
  </g>
</svg>
