<svg xmlns="http://www.w3.org/2000/svg" width="49.127" height="39.239" viewBox="0 0 49.127 39.239">
  <path id="twitter_symbol" data-name="twitter symbol" d="M367.741,59.809a19.873,19.873,0,0,0,14.4-4.068A9.984,9.984,0,0,1,372.988,49c.768.032,1.494.1,2.223.1a7.206,7.206,0,0,0,2.14-.357,9.768,9.768,0,0,1-5.6-3.436,9.54,9.54,0,0,1-2.188-6.184c.719.265,1.42.566,2.142.789a7.463,7.463,0,0,0,2.247.331,9.8,9.8,0,0,1-4.215-6.853,9.584,9.584,0,0,1,1.212-6.174,28,28,0,0,0,20.2,10.223c-.056-.321-.1-.583-.146-.845a9.185,9.185,0,0,1-.038-2.5,9.534,9.534,0,0,1,1.7-4.506,9.363,9.363,0,0,1,6.069-3.974,9.572,9.572,0,0,1,8.926,2.709.341.341,0,0,0,.359.128,19.716,19.716,0,0,0,5.847-2.237c.037-.02.067-.033.16-.079a10.073,10.073,0,0,1-4.23,5.362,15.062,15.062,0,0,0,2.789-.531c.906-.275,1.793-.589,2.683-.884a.809.809,0,0,1-.1.147,19.425,19.425,0,0,1-4.535,4.681.358.358,0,0,0-.16.328c0,.766.036,1.523-.005,2.289-.069.976-.175,1.959-.31,2.938a26.018,26.018,0,0,1-1.287,5.094,28.59,28.59,0,0,1-5.144,9.057,26.2,26.2,0,0,1-10.461,7.576,24.314,24.314,0,0,1-5.5,1.53c-1.047.16-2.116.291-3.175.36a32.208,32.208,0,0,1-3.361.033,27.5,27.5,0,0,1-13.387-4.219A.857.857,0,0,0,367.741,59.809Z" transform="translate(-366.627 -25.15)" fill="none" stroke="#ca9f44" stroke-miterlimit="10" stroke-width="0.5"/>
</svg>
