<svg xmlns="http://www.w3.org/2000/svg" width="34.995" height="12.004" viewBox="0 0 34.995 12.004">
  <g id="editar" transform="translate(-1634.042 -67.025)">
    <path id="Path_19" data-name="Path 19" d="M1654.207,74.153a1.329,1.329,0,0,0,.011-1.754,1.281,1.281,0,0,0-1.775,0,1.211,1.211,0,0,0-.336.861,1.228,1.228,0,0,0,.336.892,1.294,1.294,0,0,0,1.764,0Z" transform="translate(-9.96 0.026)" fill="#e6c982" stroke="#e6c982" stroke-miterlimit="10" stroke-width="1"/>
    <path id="Path_20" data-name="Path 20" d="M1663.069,74.153a1.328,1.328,0,0,0,.011-1.754,1.281,1.281,0,0,0-1.775,0,1.212,1.212,0,0,0-.336.861,1.228,1.228,0,0,0,.336.892,1.294,1.294,0,0,0,1.764,0Z" transform="translate(-9.961 0.026)" fill="#e6c982" stroke="#e6c982" stroke-miterlimit="10" stroke-width="1"/>
    <path id="Path_21" data-name="Path 21" d="M1671.93,74.153a1.329,1.329,0,0,0,.011-1.754,1.281,1.281,0,0,0-1.775,0,1.212,1.212,0,0,0-.336.861,1.228,1.228,0,0,0,.336.892,1.294,1.294,0,0,0,1.764,0Z" transform="translate(-9.962 0.026)" fill="#e6c982" stroke="#e6c982" stroke-miterlimit="10" stroke-width="1"/>
    <path id="Path_22" data-name="Path 22" d="M1673,78.5h-23a5.5,5.5,0,0,1,0-11h23a5.5,5.5,0,0,1,0,11Z" transform="translate(-9.958 0.025)" fill="none" stroke="#ca9f44" stroke-miterlimit="10" stroke-width="1"/>
  </g>
</svg>
