<svg xmlns="http://www.w3.org/2000/svg" width="211.252" height="74.074" viewBox="0 0 211.252 74.074">
  <g id="drunken_logo" data-name="drunken logo" transform="translate(-194.967 -23.091)">
    <text id="UNIVERSE" transform="translate(265.531 95.165)" fill="#cac6be" font-size="8" font-family="SegoeUI, Segoe UI"><tspan x="0" y="0" letter-spacing="0.2em">U</tspan><tspan y="0" letter-spacing="0.199em">N</tspan><tspan y="0" letter-spacing="0.2em">IVE</tspan><tspan y="0" letter-spacing="0.199em">R</tspan><tspan y="0" letter-spacing="0.2em">S</tspan><tspan y="0">E</tspan></text>
    <path id="Path_45" data-name="Path 45" d="M245.583,57.017l.322-.127a35.932,35.932,0,0,0-1.452-5.164c-2.41-5.432-7.006-7.877-12.652-8.3-4.483-.332-9.007-.269-13.507-.165a21.022,21.022,0,0,0-5.58,1.039,8.669,8.669,0,0,0-5.961,6.293,3.052,3.052,0,0,0-.01.817l.278.055c1.877-4.476,5.531-6.052,10.13-6.287.018.415.048.77.049,1.125,0,7.159-.011,14.318.02,21.477a1.239,1.239,0,0,1-.963,1.417c-4.744,1.754-7.936,4.968-9.056,10a7.41,7.41,0,0,0-.05,3.986c.126-.056.191-.067.226-.105a.893.893,0,0,0,.147-.227c3-6.728,8.624-9.329,15.549-9.781,2.32-.151,4.661.067,6.984-.058a28.911,28.911,0,0,0,5.275-.743,13.151,13.151,0,0,0,6.953-4.23l-1.554-1.766a8.446,8.446,0,0,1,1.925.433c.2.06.5.124.642.025a3.315,3.315,0,0,0,.717-4.03c-.391-.634-.7-1.316-1.111-2.095l2.107,1.829.266-.235c.071-.322.145-.643.212-.965a3.561,3.561,0,0,0-.424-2.824,35.908,35.908,0,0,1-1.8-3.66l.246-.151,2.075,2.41m-6.844,2.078a15.119,15.119,0,0,1-2.41,8.3,8.6,8.6,0,0,1-7.284,3.875c-1.541.033-3.084-.025-4.623.021-.686.02-.87-.211-.866-.878.024-4.858,0-9.717.024-14.575a2.639,2.639,0,0,0-.849-2.266.926.926,0,0,1-.2-.785c.2-.761.49-1.5.736-2.247.074-.225.118-.46.172-.674-1.115-.782-1.147-1.584-.21-2.538a1.754,1.754,0,0,0,.324-.938A11.238,11.238,0,0,0,223.57,45a66.137,66.137,0,0,1,7.827.46c2.951.512,4.779,2.677,5.991,5.317a17.972,17.972,0,0,1,1.352,8.314" transform="translate(-11.751 0.016)" fill="#cac6be"/>
    <path id="Path_46" data-name="Path 46" d="M417.292,77.959a9.572,9.572,0,0,1-6.767-1.361c-2.287-1.366-5.427-5.6-6.15-6.045-1.063-.654.456-.96.83-2.182a1.214,1.214,0,0,1-.353-1.864c.242-.327.833-.4,1.419-.65,0-2.027-.051-4.322.023-6.613a3.813,3.813,0,0,0-.963-2.7,26.094,26.094,0,0,1-1.749-2.8l2.643,2.35c.026-.535.045-.744.045-.953,0-2.839-.007-5.679.005-8.518a2.606,2.606,0,0,1,1.795-2.809c.427-.06,1.638-.06,1.638-.06v-.387h-.026c-.005-.026-13.013,0-13.013,0v.387s.9,0,1.454.035c1.7.391,2.135,1.2,2.136,3.38q0,7.747,0,15.495c0,.317-.026.634-.052,1.221L378.29,41.425c.167,1.56.32,3.078.5,4.595a1.837,1.837,0,0,0,.288.739c1.029,1.6,2.072,3.187,3.113,4.776.332.506.677,1.005,1.015,1.507l-.245.181c-1.362-1.552-2.725-3.1-4.256-4.845,0,.708,0,1.157,0,1.607.023,6.553.056,13.108.063,19.662,0,1.737-.713,2.619-2.253,2.87-.527.035-1.385.035-1.385.035v.389h13.22v-.389s-.429,0-.876-.011c-1.942-.266-2.619-1.1-2.62-3.171q0-7.747,0-15.495v-.948q.2-.14.4-.276a4.1,4.1,0,0,0,.481.859c2.292,2.449,4.605,4.877,6.9,7.319,2.32,2.463,4.613,4.95,6.95,7.4,2.5,2.623,1.7,4.5,4.319,7,2.354,2.246,5.23,4.132,8.579,4.44a9.081,9.081,0,0,0,5.505-1.54,1.06,1.06,0,0,0-.7-.169" transform="translate(-11.775 0.015)" fill="#cac6be"/>
    <path id="Path_47" data-name="Path 47" d="M267.4,65.722l3.22,2.67c-2.214-2.944-4.273-6-7.54-8.159,3.384-.408,5.458-1.771,6.459-4.109-.441-.679-.922-1.339-1.3-2.054-.121-.23.034-.6.063-.912a2.368,2.368,0,0,1,.789.093,10.741,10.741,0,0,1,1.159.764c.349-4.2-.995-6.576-4.577-7.938a10.084,10.084,0,0,0-3.219-.753c-5.176-.137-16.216-.217-16.216-.217a2.793,2.793,0,0,0,.11.461c2.793.949,3.253,1,3.253,3.967q0,9.7,0,19.406c0,1.746-.2,2.57-1.079,3.105a4.855,4.855,0,0,1-.808.32,11.776,11.776,0,0,1-1.476.077v.477h12.489v-.477a11.786,11.786,0,0,1-1.476-.077,3.081,3.081,0,0,1-.493-.178,2.346,2.346,0,0,1-1.12-2.461,4.061,4.061,0,0,0-1.523-3.976,7.241,7.241,0,0,1-.945-1.027l.143-.1,2.293,1.369V47.066c4.468-.72,7.408.472,8.2,4.037a6.878,6.878,0,0,1-.721,5.364c-1.452,2.253-3.872,2.425-6.2,2.656a23.141,23.141,0,0,1,1.817,2.079c2.651,3.865,5.235,7.777,7.889,11.641,3.943,5.742,9.188,9,16.4,8.335a11.756,11.756,0,0,0,5.122-1.627c-9.531-1.027-15.546-6.809-20.718-13.829" transform="translate(-11.756 0.016)" fill="#cac6be"/>
    <path id="Path_48" data-name="Path 48" d="M347.412,79.462c-6.066.771-10.81-2.948-11.98-8.957-.55-2.826-.352-5.8-.438-8.71-.046-1.525.475-2,2.05-2.111a2.4,2.4,0,0,0,.514-.153l-.037-.108h-11.1c2.6.641,2.655.643,2.574,3.338a4.9,4.9,0,0,0,1.095,2.813c.619,1,1.329,1.939,2,2.905l-.165.163-2.877-2.035a3.621,3.621,0,0,1-1.433,3.007,7.8,7.8,0,0,1-6.311,1.8c-4.805-.557-7.417-3.611-8.771-7.963a17.577,17.577,0,0,1-.487-6.917c.473-5.115,4.137-11.424,11.839-10.6,3.594.383,6.345,1.882,7.964,4.893a8.237,8.237,0,0,1,.581,1.334,11.806,11.806,0,0,1,.077,1.477h.476v-.372l.014.026c0-2.137-.048-4.044.021-5.947a1.326,1.326,0,0,0-1.083-1.494,27.877,27.877,0,0,0-13.768-1.332,15.071,15.071,0,0,0-9.986,5.642,4.468,4.468,0,0,0-.313,5.087c.2.353.39.716.585,1.074l-.146.11-2.373-1.649a14.733,14.733,0,0,0-.122,7.322c1.415,6.024,7.072,10.485,13.677,10.928a23.07,23.07,0,0,0,10.315-1.422c1.453,3.8,3.916,7.145,7.728,8.542a14.8,14.8,0,0,0,11.07-.475c-.007-.107-.014-.214-.02-.321-.392.035-.785.058-1.174.107" transform="translate(-11.765 0.016)" fill="#cac6be"/>
    <path id="Path_49" data-name="Path 49" d="M357.764,44.262c-3.728.556-6.113,2.821-6.671,6.406a5.808,5.808,0,0,0,.7,4.1l.29-.041c-.053-.391-.1-.782-.157-1.172a6.688,6.688,0,0,1,6.216-7.646,8.159,8.159,0,0,1,8.368,5.481,18.248,18.248,0,0,1,.643,11.951c-.96,3.473-2.952,6.214-6.48,7.5-5.573,2.035-11.06-.677-13.293-6.486a20.489,20.489,0,0,1-1.039-9.28C346.663,51.473,347.5,48,350.2,45.3c.03-.03-.01-.131-.029-.315a6.446,6.446,0,0,0-.806.148,13.288,13.288,0,0,0-5.567,3.313,5.444,5.444,0,0,0-.77,1.612c-.336.751-.655,1.511-1.008,2.254-.045.1-.248.134-.386.163a1.146,1.146,0,0,0-.863,1.853c.57.991,1.206,1.946,1.754,2.949a6.415,6.415,0,0,1,.392,1.307l-.244.111-2.852-1.818c-.064.509-.116.753-.122,1-.163,6.555,3.395,11.684,9.7,14.01A23.35,23.35,0,0,0,360,72.966a16.533,16.533,0,0,0,11.335-5.631,1.058,1.058,0,0,0,.165-1.446c-.734-1.254-1.36-2.571-2.03-3.862.079-.094.159-.188.238-.283a5.313,5.313,0,0,1,1.085.839c.634.826,1.186,1.712,2.444,1.485a14.329,14.329,0,0,0-15.471-19.806" transform="translate(-11.77 0.016)" fill="#cac6be"/>
    <path id="Path_50" data-name="Path 50" d="M307.633,72.4a2.134,2.134,0,0,1-.306-.1,6.4,6.4,0,0,1-2.62-3.383c-.826-2.012-1.793-3.965-2.586-5.7-.647-.049-1.345.109-1.625-.162-.924-.9-.808-1.721.242-2.99-1.541-.568-2-1.945-2.555-3.283a2.514,2.514,0,0,0-1.034-1.322,6.6,6.6,0,0,1-4.31-4.93l4.36,2.651.217-.227L292.562,42.4l-.291.07c-.295.82-.541,1.663-.892,2.459q-5.551,12.6-11.128,25.187a3.991,3.991,0,0,1-1.595,1.854,6.2,6.2,0,0,1-1.044.434,11.628,11.628,0,0,1-1.476.078v.476h9.539v-.476s-.814,0-1.272-.048c-1.2-.472-1.485-1.3-.932-2.7.571-1.44,1.14-2.883,1.812-4.276a1.565,1.565,0,0,1,1.111-.775c2.776-.066,5.553-.019,8.33-.047a1.1,1.1,0,0,1,1.2.875c.475,1.317,1.034,2.6,1.553,3.906.695,1.742.543,2.472-.854,3.014-.46.046-1.259.046-1.259.046v.476h13.746v-.476a11.637,11.637,0,0,1-1.476-.078M286.4,62.745l4.179-10.172,4.178,10.172Z" transform="translate(-11.761 0.015)" fill="#cac6be"/>
    <path id="Path_51" data-name="Path 51" d="M271.593,35.293a10.522,10.522,0,0,0,3.216-1.125c.418-.183,1-.471.629-1.19-.042-.083.208-.334.347-.484.33-.353.86-.636.984-1.045.826-2.718.246-6.4-3.585-7.581-2.554-.788-5.2-.494-7.892-.39l1.342,3.294-.959-.678c0,2.542.048,4.984.011,7.426a1.434,1.434,0,0,1-1.537,1.513v.355l1.619-.032c1.945.023,3.892.082,5.825-.061m-2.526-11.129a2.842,2.842,0,0,0,.413,0c3.091,0,4.7,1.489,4.79,4.585a10.631,10.631,0,0,1-.341,3.089,3.6,3.6,0,0,1-3.772,2.828c-1.947.046-1.947.046-1.947-1.856V29.43c0-1.458.027-2.916-.012-4.374-.018-.658.155-1,.869-.892" transform="translate(-11.759 0.008)" fill="#cac6be"/>
    <path id="Path_52" data-name="Path 52" d="M329.086,24.65l-3.3,4.369,1.394,2.109-1.147-.667-.127.172c1.619,1.937,3.174,3.931,4.884,5.785a9.969,9.969,0,0,0,2.829,2.076,4.1,4.1,0,0,0,4.291-.3,7.419,7.419,0,0,1-4.78-2.7c-.245-.263-.685-.334-1-.541a1.916,1.916,0,0,1-.657-.6,24.279,24.279,0,0,0-1.227-2.4c-.869-1.227-1.872-2.362-2.856-3.581.971-1.148,1.935-2.238,2.836-3.375a7.123,7.123,0,0,1,.6-.681,6,6,0,0,1,.81-.421,4.769,4.769,0,0,1,.809-.057v-.346l.061-.009h-3.925v.355a4.838,4.838,0,0,1,.8.056c.067.227-.088.489-.294.761" transform="translate(-11.768 0.009)" fill="#cac6be"/>
    <path id="Path_53" data-name="Path 53" d="M283.593,35.236v-.354s-1.367.061-1.365-.829c.011-3.3-.041-6.6-.041-9.928,1.884-.326,3.194.233,3.438,1.56a4.5,4.5,0,0,1-.169,2.25c-.407,1.122-1.591,1.176-2.549,1.39,1.272,1.875,2.526,3.708,3.762,5.553a8.317,8.317,0,0,0,4.289,3.57,6.508,6.508,0,0,0,5.206-.4,3.942,3.942,0,0,0-.5-.112,6.757,6.757,0,0,1-4.464-1.879c-.641-.6-1.587-1.82-2.268-2.36-.627-.5-1.1.394-.933-1.321.011-.093-.162-.21-.256-.311-.694-.754-1.389-1.507-2.1-2.278.261-.075.533-.127.786-.228a3.264,3.264,0,0,0,1.957-2.09c.3-.884-.473-1.186-.881-1.832l.917.116a3.06,3.06,0,0,0-3.019-2.345c-2.3-.139-4.864-.207-7.31-.207,0,.2-.026.3.112.288.643-.072,1.3.252,1.293.974-.028,2.751,0,6.074.024,8.824a3.447,3.447,0,0,1-.052,1.1,3.966,3.966,0,0,1-.739.437,4.8,4.8,0,0,1-.809.058v.354Z" transform="translate(-11.761 0.008)" fill="#cac6be"/>
    <path id="Path_54" data-name="Path 54" d="M292.045,24.12a2.229,2.229,0,0,1,.116.845c-.024,2.119-.028,4.238,0,6.356a3.875,3.875,0,0,0,2.64,3.811,7.483,7.483,0,0,0,4.547.283,3.823,3.823,0,0,0,3.208-3.7c.13-2.249.093-4.509.079-6.763a1.724,1.724,0,0,1,.236-1.029.761.761,0,0,1,.082-.032,4.811,4.811,0,0,1,.81-.058v-.354h-3.576v.354a4.794,4.794,0,0,1,.809.058,1.469,1.469,0,0,1,.278.136,1.819,1.819,0,0,1,.146.83c-.015,2.091,0,4.183-.011,6.273a5.642,5.642,0,0,1-.134,1.142,3.124,3.124,0,0,1-3.064,2.619,3.077,3.077,0,0,1-3.293-2.42,6.829,6.829,0,0,1-.193-1.546c-.046-1.2-1.022-2.633-.054-3.616a5.618,5.618,0,0,0,.038-2.211,2.143,2.143,0,0,1,.155-1.11,1.207,1.207,0,0,1,.212-.1,4.8,4.8,0,0,1,.809-.058v-.354h-5.075v.354a4.811,4.811,0,0,1,.81.058,2.138,2.138,0,0,1,.424.226" transform="translate(-11.763 0.009)" fill="#cac6be"/>
    <path id="Path_55" data-name="Path 55" d="M306.478,23.943c.275.125.082,1.861.23,2.037a5.528,5.528,0,0,1,.752,1.246,1.054,1.054,0,0,1-.086,1.4c-.217.266-.534.573-.541.867-.048,1.995-.025,3.99-.025,6.072q4.2-3.978,8.4-7.956c.206,1.331.4,2.566.58,3.752l-.421-.149c0,.832-.026,1.6.008,2.359.076,1.69-1.413,1.433-1.413,1.433v.355h5.31V35s-1.454.355-1.474-1.41c-.03-2.669,0-5.34.015-8.009,0-.776.085-1.551.141-2.494l-8.747,8.3c0-2.262-.015-4.239.013-6.214a2.317,2.317,0,0,1,.217-1.031,2.337,2.337,0,0,1,.462-.25,4.69,4.69,0,0,1,.809-.058v-.354H305.4v.354a1.937,1.937,0,0,1,1.079.106" transform="translate(-11.765 0.008)" fill="#cac6be"/>
    <path id="Path_56" data-name="Path 56" d="M335.73,23.8a2.592,2.592,0,0,1,.895,2.528,4.974,4.974,0,0,0-.419,1.855c.017,1.789-.021,3.577.018,5.365.017.819-.126,1.486-1.115,1.8h9.749c.25-1.1.733-3.462.733-3.462l-.347-.076s-.6,2.784-3.207,2.876c-.771.027-1.543.005-2.315,0-1.274,0-1.719-.323-2.258-1.759l1.318,1V29.835c1.042.075,2.667-.409,3.647.424a2.121,2.121,0,0,1,.219.413,4.8,4.8,0,0,1,.058.809h.354v-1.62h-.007V27.407H342.7a4.8,4.8,0,0,1-.058.809,4.615,4.615,0,0,1-.479.8,1.285,1.285,0,0,1-.364.087c-.972.092-1.96.023-3.021.023,0-1.546-.016-3,.021-4.449,0-.171.315-.482.469-.473a3.3,3.3,0,0,1,1.571.318,3.735,3.735,0,0,1,.845,1.177V23.382h-6.775v.354a4.811,4.811,0,0,1,.81.058l.011,0" transform="translate(-11.769 0.008)" fill="#cac6be"/>
    <path id="Path_57" data-name="Path 57" d="M348.256,24.453V24.3a7.985,7.985,0,0,1,1.072,2.96L348.3,25.715l-.185.067v9.826l8.578-8.122c.045.667.076,1.12.106,1.565.7.129.945,1.267.53,2.371-.163-.054-.327-.11-.6-.2,0,.864-.032,1.661.008,2.452a1.821,1.821,0,0,1-.247,1.157,1.878,1.878,0,0,1-.362.187,4.8,4.8,0,0,1-.809.058v.354h5.249v-.354a4.794,4.794,0,0,1-.809-.058,1.644,1.644,0,0,1-.307-.154,1.966,1.966,0,0,1-.29-1.2c.019-2.725,0-5.45.014-8.175,0-.744.084-1.489.14-2.4l-8.684,8.249c-.028-.45-.059-.712-.059-.975,0-1.679-.018-3.358.008-5.037a2.537,2.537,0,0,1,.235-1.219,1.517,1.517,0,0,1,.273-.134,4.811,4.811,0,0,1,.81-.058v-.354h-5.261v.354a4.811,4.811,0,0,1,.81.058,4.809,4.809,0,0,1,.809.487" transform="translate(-11.771 0.008)" fill="#cac6be"/>
    <path id="Path_58" data-name="Path 58" d="M325.9,35.354V35a.749.749,0,0,0-.313-.058c-.886,0-.907-1.059-.9-1.406.026-2.8.008-5.607.01-8.411a1.57,1.57,0,0,1,.266-1.12,1.319,1.319,0,0,1,.24-.115,4.811,4.811,0,0,1,.81-.058v-.354h-5.339v.354a2.84,2.84,0,0,1,1.289.283c.126.117.079.965.154,1.113.271.539.582.728.675,1.1-.3-.059-.7-.4-.7-.2-.02,2.229.01,5.06.032,7.289.006.5-.01,1.468-1.007,1.522A1.057,1.057,0,0,0,320.8,35v.354Z" transform="translate(-11.767 0.009)" fill="#cac6be"/>
  </g>
</svg>
