<svg xmlns="http://www.w3.org/2000/svg" xmlns:xlink="http://www.w3.org/1999/xlink" viewBox="0 0 283.46 73.7"><defs><style>.cls-1{fill:#fff;}.cls-2{fill:url(#Degradado_sin_nombre);}.cls-3{opacity:0.5;}.cls-4{fill:#14212c;}</style><radialGradient id="Degradado_sin_nombre" cx="122.02" cy="58.98" r="82.19" gradientTransform="matrix(1, 0, 0, -1, 19.87, 95.85)" gradientUnits="userSpaceOnUse"><stop offset="0" stop-color="#14212c"/><stop offset="1" stop-color="#0b1015"/></radialGradient></defs><g id="Capa_1" data-name="Capa 1"><path class="cls-1" d="M24.77,33.14c.63-.94,1.3-1.85,2-2.74A43.4,43.4,0,0,1,23,25.22C18.69,28,15.36,32.46,12.85,36.85A34.74,34.74,0,0,0,22,47.68c.38.28.77.57,1.17.82.39-.63.8-1.24,1.22-1.85.78-1.12,1.62-2.2,2.51-3.24a32.73,32.73,0,0,1-2-2.76c-.4-.6-.8-1.21-1.17-1.83a6.14,6.14,0,0,1-1-1.87c-.08-.64.7-1.55,1-2.08S24.39,33.71,24.77,33.14Z" transform="translate(0)"/><path class="cls-1" d="M21,23.24l.38-.26c-.72-1.26-1.39-2.55-2-3.88L18.32,19a30,30,0,0,0-3.67-.08c-.54,0-1.07.05-1.6.1l-.74.07h-.6c-.64.09-1.28.19-1.92.33a39.39,39.39,0,0,0,4.68,10.06A31,31,0,0,1,21,23.24Z" transform="translate(0)"/><path class="cls-1" d="M11,40.67q-.62-.91-1.17-1.83a6.14,6.14,0,0,1-1-1.87c-.08-.65.7-1.56,1-2.09a19.83,19.83,0,0,1,1.11-1.73c.41-.57.67-1,1-1.46a37.8,37.8,0,0,1-3.11-5.47A35.53,35.53,0,0,0,0,36.86,35.28,35.28,0,0,0,8.87,47.5a39.94,39.94,0,0,1,3.07-5.4Z" transform="translate(0)"/><path class="cls-1" d="M17.1,46.61a32.94,32.94,0,0,1-2.56-2.85A39.79,39.79,0,0,0,9.77,53.89h.16c.36.07.72.14,1.09.19l.64.1h.62a29,29,0,0,0,7.09,0,40.13,40.13,0,0,1,2.08-4A27,27,0,0,1,17.1,46.61Z" transform="translate(0)"/><path class="cls-1" d="M253.88,45.6a29.84,29.84,0,0,1-5.5,5L247.8,48c4-2.79,7.17-7,9.56-11.18A34.78,34.78,0,0,0,248.24,26c-.18-.14-.38-.25-.57-.38l.54-2.4a27.6,27.6,0,0,1,4.08,3.39c.53.53,1,1.09,1.54,1.65A46.3,46.3,0,0,0,262,13.31l-.81.06-.62.06h-.52A40.49,40.49,0,0,0,249.7,16.8L253.54,0H28.94l4.41,16.24a37.8,37.8,0,0,0-4.26-1.51,30.91,30.91,0,0,0-3.43-.91c-.49-.11-1-.2-1.47-.28l-.7-.1H23c-.49-.06-1-.11-1.49-.14a48.36,48.36,0,0,0,6.07,12.21c.64.91,1.32,1.78,2,2.64a30.47,30.47,0,0,1,5.55-5h.05l.69,2.55c-4.13,2.79-7.34,7.08-9.77,11.33a35.28,35.28,0,0,0,9.11,10.78c.18.14.39.25.58.39l-.63,2.33a28.34,28.34,0,0,1-4-3.34c-.53-.53-1-1.09-1.54-1.66a46.51,46.51,0,0,0-8.16,15l.81-.06.62-.07h.52a39.94,39.94,0,0,0,10-3.19L28.94,73.7H253.51l-3.68-16.54a.5.5,0,0,0,.1.21,37,37,0,0,0,4.46,1.6,31.68,31.68,0,0,0,3.44.91q.72.15,1.47.27c.23,0,.46.08.7.1h.46c.49.06,1,.11,1.49.14a48.16,48.16,0,0,0-6.08-12.2C255.27,47.34,254.58,46.46,253.88,45.6Z" transform="translate(0)"/><path class="cls-2" d="M31.06,72.07l6.19-23h0a37.81,37.81,0,0,1,13-11.27c.54-.27,1.1-.55,1.67-.81a35.55,35.55,0,0,1-9.28-6,38.3,38.3,0,0,1-5.14-5.8L31.07,1.67h220.4l-5.25,23h0a37.8,37.8,0,0,1-13,11.26c-.54.28-1.1.55-1.67.81a36,36,0,0,1,9.29,6A39.28,39.28,0,0,1,246.38,49h0l5.14,23.12Z" transform="translate(0)"/><path class="cls-1" d="M258.71,40.61c-.63.93-1.3,1.85-2,2.73a42.39,42.39,0,0,1,3.75,5.18c4.34-2.79,7.67-7.24,10.18-11.62a34.92,34.92,0,0,0-9.11-10.85c-.38-.28-.77-.55-1.17-.82-.39.64-.81,1.25-1.23,1.85a39.59,39.59,0,0,1-2.51,3.25,29.28,29.28,0,0,1,2,2.76c.41.6.8,1.2,1.17,1.83a6.15,6.15,0,0,1,1,1.87c.08.64-.7,1.55-1,2.08S259.09,40,258.71,40.61Z" transform="translate(0)"/><path class="cls-1" d="M262.45,50.5l-.37.25c.71,1.27,1.38,2.56,2,3.89q.54.07,1.11.12a27.92,27.92,0,0,0,3.66.09,8.71,8.71,0,0,0,1.61-.1l.72-.07h.6q1-.13,1.92-.33A39.7,39.7,0,0,0,269,44.29,30.76,30.76,0,0,1,262.45,50.5Z" transform="translate(0)"/><path class="cls-1" d="M274.59,26.23a37.36,37.36,0,0,1-3.07,5.4c.35.48.69,1,1,1.45s.8,1.2,1.18,1.83a6,6,0,0,1,1,1.86c.08.64-.69,1.55-1,2.08S273,40,272.58,40.6s-.67,1-1,1.44a38.83,38.83,0,0,1,3.1,5.47,35,35,0,0,0,8.78-10.63A35.32,35.32,0,0,0,274.59,26.23Z" transform="translate(0)"/><path class="cls-1" d="M266.39,27.12A36.67,36.67,0,0,1,269,30a40.08,40.08,0,0,0,4.76-10.13h-.16c-.36-.09-.72-.15-1.08-.21l-.65-.09h-.62a29.94,29.94,0,0,0-7.08,0,43.75,43.75,0,0,1-2.08,4A27.75,27.75,0,0,1,266.39,27.12Z" transform="translate(0)"/><g class="cls-3"><path class="cls-4" d="M99.52,35.49l.83-.68c.44-.35,10.82-8.84,11.91-22a27.09,27.09,0,0,0-1.44-11.12h-1.93a25.58,25.58,0,0,1,1.5,10.93c-.83,10.29-8,17.77-10.4,20-7-12.78-6.54-23.43-4.28-31H94c-2.31,8.15-2.61,19.51,5,32.88Z" transform="translate(0)"/><path class="cls-4" d="M100.93,1.67H99.44a63.55,63.55,0,0,0,1.94,14.46A85.21,85.21,0,0,1,100.93,1.67Z" transform="translate(0)"/><polygon class="cls-4" points="181.81 1.67 180.56 1.67 182.38 4 181.81 1.67"/><path class="cls-4" d="M77.78,72.07h5.73A6.29,6.29,0,0,0,77.78,72.07Z" transform="translate(0)"/><path class="cls-4" d="M70.14,65l-.74-1.44-.89,1.38a11.2,11.2,0,0,0-1.61,7.14h1.83a9.5,9.5,0,0,1,.59-4.69,28.3,28.3,0,0,0,3.3,4.69h2.69C73.65,70.91,71.43,67.51,70.14,65Z" transform="translate(0)"/><path class="cls-4" d="M202.87,1.67h-1a10.93,10.93,0,0,0,1.63,3.79A16.23,16.23,0,0,1,202.87,1.67Z" transform="translate(0)"/><path class="cls-4" d="M188.13,24l-3.64.45,3.43,1.31c9,3.43,18.8-6,23-17.09a27.86,27.86,0,0,0,1.71-6.91H210.8A26.44,26.44,0,0,1,209.21,8c-3.38,8.89-10.79,17-17.89,16.65a7.22,7.22,0,0,0,2-2c1.51-2.24,1.77-5.31.77-9.12a23.21,23.21,0,0,1,.18-11.79h-1.9a25.68,25.68,0,0,0,0,12.26c.86,3.26.69,5.82-.49,7.61A5.93,5.93,0,0,1,188.13,24Z" transform="translate(0)"/><path class="cls-4" d="M236.33,34.06l.15-.1.11-.07.09-.08.11-.08h.1l.15-.13.21-.15.15-.08L237,32.9a15.47,15.47,0,0,0-2.07-1.79c-.42-.3-.85-.58-1.28-.85-6.33-4-13.53-4.35-19.43-3.62.55-.66,1.08-1.33,1.6-2a48.65,48.65,0,0,0,8-7.31,4.93,4.93,0,1,0,2.4-2.9A59.92,59.92,0,0,0,233.69,1.7h-1.44a56,56,0,0,1-13.42,18.73A68.09,68.09,0,0,0,226,6.56a50.59,50.59,0,0,0,1.56-4.86h-1.89c-.39,1.39-.84,2.8-1.38,4.23-6.74,18.13-23.16,34.35-39.86,40.91a6.73,6.73,0,0,0-2.84-8.45,14.7,14.7,0,0,0-1-7.81h.11c-1.66-4-1.08-9-.22-12.6a7.33,7.33,0,0,0,1.32.09,6.75,6.75,0,0,0,4.59-11.51l-.13-.13a6.72,6.72,0,0,0-9.51.48,6.8,6.8,0,0,0,.1,9.2l.13.12a6.78,6.78,0,0,0,1.76,1.2,29.49,29.49,0,0,0-.91,8.05c-.31-.48-.64-.94-1-1.41a25.48,25.48,0,0,0-2.44-2.85A20.49,20.49,0,0,0,161,15.08a29.16,29.16,0,0,0-6.6.33,6.29,6.29,0,0,1-1.88-5.33V10l.38-.43c1.92-2.2,5.39-5.34,6.77-5.09a3,3,0,0,1,1.13.65c2.42,1.82,5.3,2.87,13.52-3.44h-3.09c-6.21,4.29-8,3-9.34,2a4.54,4.54,0,0,0-1.9-1c-1.17-.2-2.63.53-4,1.53.7-.69,1.54-1.58,2.4-2.51h-6.47a10.21,10.21,0,0,0-.81,6.55,8.73,8.73,0,0,0-.4,1.66,8,8,0,0,0,1.63,5.82c-7.08,1.55-14.28,5.22-20.61,9.31,2.46-4.81,6.7-14,8.68-23.34h-1.89c-2.6,11.71-8.73,23.21-10,25.47l-.17.13c-3,2.1-5.71,4.21-8,6.12-1-3.7-.44-7.84.31-11a7.15,7.15,0,0,0,1.31.09,6.75,6.75,0,0,0,6.55-6.94,6.61,6.61,0,0,0-2-4.58l-.13-.13a6.74,6.74,0,1,0-7.51,11c-.88,3.59-1.5,8.48-.09,12.83-3.8,3.22-6.28,5.66-6.73,6.11a72.28,72.28,0,0,0-11.88,12.77c-1-6.79-4.46-25-13.55-34.1l-.11-.1a12.12,12.12,0,0,0-.1-4.61,6.64,6.64,0,0,0-1.85-3.5c-2.69-2.69-7.92-3.61-14.51-2.32C63,10.31,56.19,13.82,52.33,18.48c-1-3.72-.46-7.9.3-11.06a7.15,7.15,0,0,0,1.31.09,6.73,6.73,0,0,0,6.48-5.8H58.58a4.93,4.93,0,0,1-1.25,2.44h0a4.9,4.9,0,0,1-6.94.18l-.1-.09A4.91,4.91,0,0,1,49,1.71H47.1a6.71,6.71,0,0,0,2,4,7,7,0,0,0,1.75,1.2c-.92,3.78-1.55,9,.14,13.47a11.52,11.52,0,0,0-1.71,8.44L50,32.29,51,28.87a5.83,5.83,0,0,1,3-3.28c2-.88,4.51-.61,7.57.8a20.57,20.57,0,0,0,2.75,1c-9.69,7.93-13.74,16.31-15,23.58-4.46.87-7.51,6.27-7.91,14.39a37.83,37.83,0,0,0,.27,6.73h1.87a34.3,34.3,0,0,1-.32-6.64c.26-5.27,2-11.24,5.8-12.53a33.29,33.29,0,0,0,2.69,17.88,50.7,50.7,0,0,1-1-18.16h.13c3.76.18,6.36,1.81,7.73,4.83,1.72,3.8,1.18,9.62-1.06,14.6h2c2.06-5,2.78-10.89.75-15.35a9.82,9.82,0,0,0-2-3,10.56,10.56,0,0,0-7.22-2.91c1.42-7,5.61-15.08,15.54-22.87,5.62,1.14,12.19.55,16.34-2.74a9.63,9.63,0,0,0,3-3.83c7.75,8.39,11.11,24.27,12.27,31.39-.38-.43-.81-.88-1.28-1.37-2.34-2.34-5.77-5-9.69-6l.12-.22-.93-.38c-4.61-1.89-8.77-2-12.35-.4-5.59,2.56-7.73,8.46-7.82,8.69l-.35,1,1,.19c11.66,2.07,17.5-4.62,19.3-7.22,6.29,1.16,11.29,7.64,12.29,9a43,43,0,0,0-6.63,16.08h1.86c2.94-16.41,19.34-29.77,19.51-29.91l.08-.07c.07-.07,2-2,5.11-4.67a29.9,29.9,0,0,0-5.72,12.79c-3.35.88-5.6,5-5.91,11.14a27.71,27.71,0,0,0,1.57,10.72h2a25.4,25.4,0,0,1-1.71-10.63c.18-3.73,1.31-7.93,3.82-9.19a12.5,12.5,0,0,0,4,10.61,17.61,17.61,0,0,1-2.14-11.06c2.78.15,4.7,1.35,5.71,3.57,1.72,3.81.43,10.28-2.86,14.42A13.12,13.12,0,0,0,115.76,72h2.1a10.1,10.1,0,0,1,.77-1.08c3.28-4.14,5.34-11.36,3.1-16.31a7.9,7.9,0,0,0-1.6-2.35,8.21,8.21,0,0,0-5.5-2.28c1.08-5.73,4.77-12.94,14.28-20.82,1.87-1.32,3.84-2.64,5.9-3.9,0,2,.66,15.37,16.59,21.07l1,.36v-.17a29,29,0,0,0,8.48,4,6.49,6.49,0,0,0,.82,2.25c-.43.16-.85.31-1.28.44a6.38,6.38,0,0,0-1.1-1.49c-2.86-2.86-8.47-3.32-15.34-1.06-10.93,3.6-20.52,12.45-18.45,21.36h2.25a5.68,5.68,0,0,1,2.33-2.85c1.84-1.12,4.4-1.16,7.62-.14,6.48,2,16.11,1.17,21-3.81,1.88-1.91,3.78-5.23,2.33-10.26.6-.19,1.22-.4,1.83-.62a6.74,6.74,0,0,0,5.26,1.75,4.71,4.71,0,0,1,0,2.24c-2.46,7-2.88,11.15-2.27,13.69h1.9c-.66-2-.48-5.69,2.11-13.07a6.32,6.32,0,0,0,0-3.23,7.18,7.18,0,0,0,1.76-1,11,11,0,0,1,5.9,3.27c2.65,3,3.34,7.73,2.1,14.07h1.9c1.26-6.72.39-11.85-2.6-15.26-.16-.19-.33-.36-.5-.53a12.58,12.58,0,0,0-5.34-3.1,7.18,7.18,0,0,0,.67-1.29c8.82-.49,24.5.53,34.5,11.94,2.45,2.78,3.63,5.55,3.57,8.24h1.83c.06-3.14-1.27-6.31-4-9.45-.47-.53-.95-1-1.44-1.54C200.44,53.3,190,50.77,181.54,50.17a6.19,6.19,0,0,0,.84-.57A63,63,0,0,0,199,40.94a6.77,6.77,0,1,0,9.21-2.58,6.71,6.71,0,0,0-5-.67A81.52,81.52,0,0,0,213,28.14c6.25-1,14.39-.86,21.19,4a14.08,14.08,0,0,1,1.72,1.55c.14.14.26.28.38.42C236.31,34.08,236.31,34.06,236.33,34.06ZM225.48,16.82a3.58,3.58,0,0,1,5-1.17,3.63,3.63,0,0,1,1.16,5,3.58,3.58,0,0,1-5,1.17h0A3.65,3.65,0,0,1,225.48,16.82Zm-144.06.89A17.58,17.58,0,0,1,84.51,20a7.61,7.61,0,0,1-2.68,3.8C78.35,26.51,72.05,27.32,66.4,26l-.12-.16-.13.1a19.75,19.75,0,0,1-3.74-1.31c-3.59-1.64-6.65-1.91-9.11-.8A7.17,7.17,0,0,0,51,25.51c.91-7,10.1-13,19.42-14.83,5.94-1.17,13.22-.73,14.22,4.37a10.73,10.73,0,0,1,.22,2.77,18.17,18.17,0,0,0-2.53-1.72c-4.93-2.77-10.55-2.68-16.71.26,0,0,11.44-1.1,15.82,1.35Zm-13,34.91A14,14,0,0,1,74.81,46a11.79,11.79,0,0,1,7.06-.7,11.55,11.55,0,0,0-3,1.17s3.85.4,5.29.36c-2,2.53-6.77,7-15.71,5.77Zm50-33.32-.1-.1a4.93,4.93,0,0,1,0-7,4.87,4.87,0,0,1,3.33-1.43,4.92,4.92,0,0,1,3.51,1.34,5.06,5.06,0,0,1,1.56,3.46,4.88,4.88,0,0,1-1.35,3.52h0a4.88,4.88,0,0,1-6.94.19ZM157.45,64c-3.88,3.95-12.48,5.45-19.16,3.34-3.76-1.19-6.83-1.07-9.14.34a7.39,7.39,0,0,0-2.07,1.91c0-7.12,8.41-14.16,17.43-17.09,5.22-1.72,11.69-2.24,14.06,1.37a87.48,87.48,0,0,1-11.68,2.45,30.79,30.79,0,0,0,12.42-.74c1,3.32.38,6.17-1.83,8.42Zm20.83-49.13-.1-.1a5,5,0,0,1,0-7,4.91,4.91,0,0,1,7,0,5,5,0,0,1,.08,7h0a4.89,4.89,0,0,1-3.43,1.54,5.07,5.07,0,0,1-3.44-1.35ZM151,43.13c-3-2.62-9.61-9.13-9.61-9.13a41,41,0,0,0,6.74,9c-9.94-5.25-11.3-13.84-11.46-16.79,5.13.87,9,3,11.37,6.33A17.4,17.4,0,0,1,151,43.13Zm21.24,7.67h-.06v.08a4.87,4.87,0,0,1-1.18,2,4.92,4.92,0,0,1-7,0,5,5,0,0,1,0-7,4.91,4.91,0,0,1,7,0A5,5,0,0,1,172.19,50.8Zm-1.13-9.69a4.91,4.91,0,1,1,0-7,5,5,0,0,1,0,7Zm1.29-8.26a6.74,6.74,0,1,0-9.55,9.51,6.47,6.47,0,0,0,1.47,1.13,6.71,6.71,0,0,0-3.45,5,26.4,26.4,0,0,1-8.11-4c.23-2.44.3-8.2-3.23-13.07a15.93,15.93,0,0,0-1.6-1.87c-2.75-2.76-6.58-4.52-11.4-5.26,7.83-4.59,16.57-8,24.42-7.52A19.32,19.32,0,0,1,175.45,25c3.42,4.64,4.88,8.87,4.42,12.65a6.7,6.7,0,0,0-5.66,1.14,6.75,6.75,0,0,0-1.86-6Zm9.36,14.84a4.88,4.88,0,0,1-6.93,0,4.93,4.93,0,0,1,0-7,4.88,4.88,0,0,1,6.93,0h0a4.93,4.93,0,0,1,0,7Zm26.62-7a4.91,4.91,0,1,1-7,0,4.88,4.88,0,0,1,6.92,0l.08.09Z" transform="translate(0)"/><path class="cls-4" d="M238.65,63.4c-.22-.14-.46-.28-.71-.41a31.36,31.36,0,0,0-1.43-7.62h-.16c2.78-3,3.5-6.25,1.79-8.67a11.26,11.26,0,0,0-1.09-1.29A15.91,15.91,0,0,0,238.9,42c.08-.23.15-.45.22-.68l-.23-.12a2.37,2.37,0,0,1-.3-.23l-.37-.33-.25-.19a2.47,2.47,0,0,1-.16.65A13.76,13.76,0,0,1,236,44.54l-.4-.29a7,7,0,0,0-4.8-1c-5.05.73-9.73,6-11.34,10.76-.8,2.33-1.94,3.83-3.38,4.42a4.35,4.35,0,0,1-3.25,0l-2.39-1.2L212,59.42c4.1,5.76,13.87,4,20.94-1.07a21.46,21.46,0,0,0,2.45-2c.65,2.18,2.67,10.13-.65,13.9h0a4.57,4.57,0,0,0-1.66-1.83,4.82,4.82,0,0,0-.91-.45c-3.15-1.2-7.52.35-9.94,2.54a4.15,4.15,0,0,1-3.12,1.41A2.45,2.45,0,0,1,217.5,71L216,68.76l.3,2.67a3.19,3.19,0,0,0,.12.6h6.16l.59-.49c2.38-2.16,6.23-3.18,8.57-2.29a3.35,3.35,0,0,1,2,2,8.35,8.35,0,0,1-2.11.83h3.72a.7.7,0,0,0-.06-.35,5.71,5.71,0,0,0,.55-.55A10.42,10.42,0,0,0,238,64.5c2.9,1.84,3.62,4.93,3.62,7.53h1.29C242.85,69.1,242,65.52,238.65,63.4Zm-6.45-6.11c-5.48,3.91-13,5.81-17.23,3.12l-.4-.26a5.31,5.31,0,0,0,2-.39c1.82-.75,3.22-2.52,4.15-5.24,1.66-4.86,6.27-9.28,10.27-9.86a5.55,5.55,0,0,1,4.21,1,43.79,43.79,0,0,1-10.09,8.62s7.16-2.77,11.09-7.73a11.49,11.49,0,0,1,.82,1C239.25,50.62,235.82,54.72,232.2,57.29Z" transform="translate(0)"/></g></g></svg>