<svg id="menu_button" xmlns="http://www.w3.org/2000/svg" width="108" height="108" viewBox="0 0 108 108">
  <path id="Path_82" data-name="Path 82" d="M80,108H28A28.07,28.07,0,0,1,0,80V28A28.07,28.07,0,0,1,28,0H80a28.07,28.07,0,0,1,28,28V80a28.07,28.07,0,0,1-28,28ZM28,4A24.07,24.07,0,0,0,4,28V80a24.07,24.07,0,0,0,24,24H80a24.07,24.07,0,0,0,24-24V28A24.07,24.07,0,0,0,80,4Z" fill="#ca9f44"/>
  <path id="Path_83" data-name="Path 83" d="M59.44,35.51H86.38c3.86,0,3.87-6,0-6H59.44C55.58,29.51,55.58,35.51,59.44,35.51Z" fill="#ca9f44"/>
  <path id="Path_84" data-name="Path 84" d="M34.44,57.31H87c3.86,0,3.86-6,0-6H34.44C30.58,51.31,30.58,57.31,34.44,57.31Z" fill="#ca9f44"/>
  <path id="Path_85" data-name="Path 85" d="M20.37,78.49H87.63c3.86,0,3.87-6,0-6H20.37C16.51,72.49,16.5,78.49,20.37,78.49Z" fill="#ca9f44"/>
</svg>
