<svg xmlns="http://www.w3.org/2000/svg" width="311.713" height="656.108" viewBox="0 0 311.713 656.108">
  <g id="decorative_shape" data-name="decorative shape" transform="translate(-1000.11 -180)">
    <path id="Path_1" data-name="Path 1" d="M530.44,341.831l.671-.439c2.526-1.651,5.139-3.359,7.576-5.022,3.151-2.139,6.259-4.381,9.266-6.55l2.743-1.976-2.3-1.646c-3.322-2.383-6.757-4.848-10.2-7.167-1.55-1.048-3.11-2.067-4.674-3.088l-2.076-1.358-.548.357c-6.553,4.277-13.408,8.551-20.376,12.7l-1.438.857,1.436.86c6.437,3.856,12.954,7.931,19.371,12.112Zm1.006-24.857.984.644c1.556,1.015,3.108,2.028,4.649,3.071h0c3.421,2.3,6.844,4.758,10.154,7.133l.034.025-.486.35c-2.995,2.16-6.093,4.395-9.221,6.519-2.288,1.561-4.738,3.166-7.124,4.725-5.786-3.76-11.648-7.433-17.457-10.935,6.3-3.781,12.507-7.654,18.465-11.533" transform="translate(658 180)" fill="#ca9f44"/>
    <path id="Path_2" data-name="Path 2" d="M477.067,349.515l1.336.844c1.465.925,3.121,2.059,4.547,3.044,5.408,3.752,11.454,7.754,14.768,7.754h.066l.066-.009c4.03-.538,9.681-4.417,14.22-7.533,1.435-.981,2.965-2.02,4.434-2.954l1.327-.845-1.328-.843c-6.536-4.15-12.682-7.9-18.788-11.462l-.505-.295-.5.295c-6.223,3.643-12.382,7.4-18.3,11.159Zm20.145-9.983c5.507,3.222,11.054,6.6,16.9,10.295-1.071.7-2.146,1.435-3.172,2.139-4.338,2.976-9.729,6.676-13.287,7.19-3.006-.071-10.4-5.2-13.566-7.4-1.029-.713-2.178-1.5-3.3-2.238,5.335-3.366,10.849-6.721,16.419-9.99" transform="translate(658 180)" fill="#ca9f44"/>
    <path id="Path_3" data-name="Path 3" d="M586.392,335.913l-.621.5c-.747.606-1.5,1.21-2.252,1.814-1.629,1.308-3.313,2.662-4.924,4.022l-4.259,3.605-4.355-3.481c-1.564-1.249-3.193-2.481-4.769-3.671q-1.242-.939-2.477-1.881l-.595-.457-.605.443c-5.312,3.9-10.289,7.416-15.219,10.762-.474.324-.974.652-1.473.978-.342.222-.681.446-1.013.667l-1.22.813,1.2.839a426.565,426.565,0,0,1,54.77,44.968l.739.726.7-.763a304.966,304.966,0,0,0,19.943-24.074c1.715-2.293,3.392-4.621,4.983-6.915l.59-.85-.869-.561c-5.253-3.386-10.4-6.837-15.291-10.252-6.778-4.736-13.881-10.055-22.356-16.741Zm21.838,18.876c4.643,3.24,9.511,6.512,14.482,9.73-1.4,2-2.861,4.018-4.352,6.014-5.728,7.719-12.156,15.5-19.117,23.152a428.366,428.366,0,0,0-53.078-43.609c.434-.284.867-.569,1.277-.849,4.761-3.232,9.565-6.626,14.672-10.36q.943.72,1.892,1.435c1.566,1.182,3.184,2.406,4.727,3.637l5.641,4.509,5.513-4.668c1.59-1.345,3.265-2.689,4.884-3.989q.82-.66,1.639-1.317c8.229,6.478,15.178,11.673,21.819,16.314Z" transform="translate(658 180)" fill="#ca9f44"/>
    <path id="Path_4" data-name="Path 4" d="M498.722,318.893l.5-.3c6.225-3.644,12.384-7.4,18.306-11.158l1.334-.847-1.337-.843c-1.45-.915-3.112-2.052-4.546-3.044-5.406-3.752-11.452-7.754-14.768-7.754l-.133.008c-4.028.539-9.679,4.418-14.221,7.535-1.338.917-2.911,1.985-4.432,2.954l-1.327.844,1.328.843c6.549,4.159,12.7,7.908,18.788,11.463Zm-13.73-14.75h0c4.338-2.977,9.73-6.677,13.286-7.191,3.01.072,10.4,5.2,13.566,7.4,1.033.714,2.184,1.5,3.295,2.237-5.334,3.366-10.847,6.72-16.418,9.99-5.5-3.215-11.043-6.594-16.9-10.295,1.11-.73,2.2-1.473,3.172-2.138" transform="translate(658 180)" fill="#ca9f44"/>
    <path id="Path_5" data-name="Path 5" d="M611.478,406.325a320.624,320.624,0,0,0,20.962-25.3c3.3-4.414,6.653-9.218,9.952-14.279l4.88-7.5-7.593-4.732c-7.273-4.535-14.473-9.284-21.4-14.113-5.891-4.12-11.845-8.5-17.714-13.026,12.865-9.708,26.07-18.753,39.266-26.895l7.6-4.681-4.812-7.521a279.977,279.977,0,0,0-30.082-38.64,324.228,324.228,0,0,0,20.979-25.3,259.994,259.994,0,0,0,16.4-24.8l3.909-6.771-6.28-4.664c-55.819-41.42-100.834-93.642-130.178-151.021-3.521-6.906-6.6-13.253-9.426-19.4L499.825,0l-7.887,17.784C475.007,55.963,451.476,92.068,422,125.094a454.883,454.883,0,0,1-71.4,64.341l-6.355,4.624,3.9,6.824a272.558,272.558,0,0,0,36.321,48.9,320.555,320.555,0,0,0-20.962,25.3c-3.309,4.422-6.657,9.225-9.952,14.278l-4.88,7.5,7.594,4.731c7.276,4.538,14.477,9.287,21.4,14.114,5.891,4.12,11.844,8.5,17.713,13.026-12.871,9.712-26.076,18.756-39.266,26.895l-7.6,4.681,4.812,7.52A279.88,279.88,0,0,0,383.4,406.476a323.711,323.711,0,0,0-20.98,25.3,260.115,260.115,0,0,0-16.4,24.8l-3.909,6.771L348.391,468c55.819,41.421,100.835,93.644,130.178,151.022,3.522,6.909,6.606,13.255,9.425,19.4l8.115,17.682,7.886-17.784c16.931-38.179,40.463-74.284,69.942-107.31a455,455,0,0,1,71.4-64.342l6.355-4.623-3.9-6.824a272.429,272.429,0,0,0-36.322-48.9m32.687,58.73a457.073,457.073,0,0,0-71.72,64.627c-29.618,33.182-53.262,69.462-70.278,107.831l-6.089,13.731-6.266-13.652c-2.831-6.172-5.926-12.542-9.462-19.476C450.867,560.464,405.648,508,349.583,466.4l-4.85-3.6,3.018-5.228a257.9,257.9,0,0,1,16.272-24.6,322.084,322.084,0,0,1,21.469-25.814l.626-.681-.629-.677A278.451,278.451,0,0,1,355,366.757l-3.715-5.806,5.869-3.615c13.6-8.391,27.216-17.742,40.466-27.792l1.039-.788-1.031-.8c-6.227-4.831-12.561-9.5-18.826-13.883-6.953-4.848-14.182-9.616-21.488-14.172l-5.863-3.653,3.768-5.793c3.27-5.016,6.593-9.783,9.879-14.174a319.362,319.362,0,0,1,21.453-25.823l.626-.679-.628-.678a271.216,271.216,0,0,1-36.677-49.212l-3.01-5.268,4.908-3.57a457,457,0,0,0,71.719-64.626c29.618-33.182,53.263-69.461,70.279-107.831l6.089-13.731,6.265,13.651c2.833,6.175,5.929,12.545,9.463,19.478,29.483,57.652,74.7,110.115,130.767,151.717l4.849,3.6-3.018,5.228a257.7,257.7,0,0,1-16.272,24.6,322.379,322.379,0,0,1-21.468,25.814l-.626.68.628.677a278.6,278.6,0,0,1,30.491,39.036l3.715,5.807-5.87,3.614c-13.607,8.4-27.222,17.747-40.466,27.792l-1.038.788,1.03.8c6.228,4.832,12.562,9.5,18.827,13.884,6.957,4.85,14.186,9.618,21.488,14.171l5.862,3.654-3.767,5.793c-3.276,5.022-6.6,9.791-9.879,14.174a319.631,319.631,0,0,1-21.453,25.823l-.626.679.628.678a271.183,271.183,0,0,1,36.677,49.211l3.009,5.269Z" transform="translate(658 180)" fill="#ca9f44"/>
    <path id="Path_6" data-name="Path 6" d="M395.5,396.688l.737-.731a418.955,418.955,0,0,1,54.874-45.371l1.188-.831-1.2-.816c-.15-.1-.3-.2-.451-.3s-.325-.212-.495-.33c-4.815-3.247-9.96-6.872-15.727-11.082l-.606-.442-.594.458q-1.3,1-2.61,2c-1.811,1.379-3.685,2.8-5.458,4.24l-4.4,3.548-4.281-3.68c-1.84-1.58-3.7-3.124-5.572-4.672l-1.345-1.116-.634.489c-12.035,9.28-24.777,18.216-37.872,26.557l-.874.557.587.853A272.438,272.438,0,0,0,394.8,395.925Zm14.02-56.565.114.1c1.859,1.54,3.715,3.077,5.546,4.648l5.544,4.768,5.693-4.6c1.751-1.418,3.613-2.835,5.413-4.2q1.014-.773,2.024-1.546c5.44,3.963,10.331,7.406,14.912,10.5a420.751,420.751,0,0,0-53.2,44.017,270.544,270.544,0,0,1-22.557-28.069c12.608-8.067,24.883-16.678,36.51-25.614" transform="translate(658 180)" fill="#ca9f44"/>
    <path id="Path_7" data-name="Path 7" d="M396.536,240.012l.737-.731c26.3-26.1,58.229-49.8,97.611-72.44l3.376-1.941,3.376,1.942c38.962,22.381,71.931,46.716,97.989,72.331l.739.725.7-.763a307.794,307.794,0,0,0,19.961-24.072c4.457-6.015,8.339-11.7,11.869-17.38l.478-.771-.721-.551c-55.1-42.117-99.759-94.749-129.14-152.2q-1.32-2.6-2.574-5.108l-.9-1.8-.892,1.806a433.471,433.471,0,0,1-65.55,96.4,467.856,467.856,0,0,1-68.171,62.35l-.729.546.476.777a262.112,262.112,0,0,0,30.661,40.121Zm38.552-103.226a436,436,0,0,0,64.958-95.05q.826,1.646,1.683,3.33c29.389,57.47,73.977,110.126,128.986,152.331-3.372,5.378-7.074,10.777-11.3,16.474-5.764,7.749-12.2,15.533-19.132,23.149-26.063-25.467-58.912-49.658-97.654-71.912l-4.372-2.515-4.373,2.515c-39.168,22.518-71,46.083-97.284,72.021a260.145,260.145,0,0,1-29.248-38.274,469.6,469.6,0,0,0,67.733-62.069" transform="translate(658 180)" fill="#ca9f44"/>
    <path id="Path_8" data-name="Path 8" d="M409.54,320.2l.622-.5q1.125-.914,2.26-1.821c1.627-1.306,3.308-2.656,4.915-4.015l4.259-3.605,4.356,3.481c1.562,1.247,3.189,2.477,4.763,3.666q1.244.94,2.483,1.885l.594.457.605-.443c5.323-3.9,10.3-7.423,15.22-10.762.479-.327.985-.657,1.49-.988.335-.219.67-.438,1-.656l1.221-.812-1.2-.84a426.61,426.61,0,0,1-54.77-44.969l-.739-.726-.7.764a305.486,305.486,0,0,0-19.943,24.073c-1.726,2.311-3.4,4.637-4.983,6.915l-.589.85.869.56c5.261,3.393,10.406,6.843,15.292,10.254,6.775,4.733,13.878,10.052,22.354,16.741ZM387.7,301.319c-4.636-3.237-9.5-6.508-14.482-9.732,1.391-1.986,2.852-4.005,4.353-6.013,5.724-7.714,12.152-15.5,19.116-23.152a428.494,428.494,0,0,0,53.078,43.61c-.434.285-.866.569-1.276.849-4.751,3.225-9.557,6.618-14.673,10.359q-.947-.721-1.9-1.439c-1.563-1.181-3.179-2.4-4.72-3.632l-5.641-4.509-5.514,4.668c-1.587,1.342-3.258,2.684-4.875,3.982q-.825.663-1.647,1.325C401.292,311.153,394.342,305.957,387.7,301.319Z" transform="translate(658 180)" fill="#ca9f44"/>
    <path id="Path_9" data-name="Path 9" d="M590.982,249.686l-.72-.709c-24.367-23.992-55.151-46.916-91.493-68.134l-.505-.295-.5.295c-36.635,21.409-66.417,43.713-91.046,68.183l-.716.713.72.709a417.777,417.777,0,0,0,58.355,47.307l.54.366,2.368-1.488c1.147-.726,2.294-1.45,3.485-2.176,1.406-.867,2.91-1.894,4.73-3.146,6.021-4.13,12.845-8.812,19.918-9.774a15.311,15.311,0,0,1,2.1-.142c7.808,0,15.94,5.633,22.48,10.163l.374.258c1.436.992,2.791,1.929,3.967,2.648h0c1.363.831,2.728,1.693,4.093,2.555l2.167,1.366.54-.369A411.778,411.778,0,0,0,590.266,250.4Zm-59.729,46.309-1.055-.665c-1.374-.869-2.747-1.736-4.12-2.572-1.127-.69-2.461-1.611-3.873-2.587l-.378-.261c-6.763-4.685-15.18-10.515-23.613-10.515a17.182,17.182,0,0,0-2.373.161c-7.54,1.025-14.572,5.85-20.777,10.107-1.8,1.236-3.282,2.249-4.643,3.089-1.195.728-2.352,1.459-3.509,2.19l-1.256.791a416.6,416.6,0,0,1-56.813-46c24.254-23.959,53.522-45.844,89.422-66.868,35.623,20.843,65.849,43.32,89.872,66.828a410.432,410.432,0,0,1-56.884,46.3" transform="translate(658 180)" fill="#ca9f44"/>
    <path id="Path_10" data-name="Path 10" d="M600.1,416.86l-.7-.764-.737.732c-26.3,26.1-58.227,49.8-97.611,72.438l-3.376,1.942-3.375-1.942c-38.962-22.381-71.931-46.716-97.99-72.33l-.738-.726-.7.763a307.94,307.94,0,0,0-19.962,24.071c-4.461,6.023-8.344,11.708-11.868,17.381l-.479.77.721.552c55.1,42.119,99.761,94.751,129.14,152.2q1.32,2.6,2.574,5.108l.9,1.8.892-1.807a433.432,433.432,0,0,1,65.549-96.4A467.641,467.641,0,0,1,630.507,458.3l.729-.546-.477-.777A262.012,262.012,0,0,0,600.1,416.86M560.844,519.323a435.945,435.945,0,0,0-64.957,95.049q-.828-1.644-1.684-3.33c-29.387-57.468-73.975-110.124-128.985-152.331,3.367-5.371,7.069-10.77,11.3-16.475,5.767-7.751,12.2-15.534,19.133-23.147C421.709,444.555,454.558,468.746,493.3,491l4.372,2.513L502.044,491c39.17-22.52,71-46.084,97.285-72.022a259.851,259.851,0,0,1,29.247,38.275,469.418,469.418,0,0,0-67.732,62.069" transform="translate(658 180)" fill="#ca9f44"/>
    <path id="Path_11" data-name="Path 11" d="M600.435,259.42l-.737.731a419.05,419.05,0,0,1-54.874,45.372l-1.189.832,1.2.815c.149.1.3.2.45.3s.325.211.493.327c4.816,3.247,9.96,6.872,15.727,11.083l.606.442.6-.459c.859-.663,1.727-1.323,2.595-1.984,1.816-1.383,3.7-2.813,5.473-4.252l4.4-3.548,4.28,3.68c1.818,1.56,3.657,3.085,5.5,4.613l1.418,1.175.633-.488c12.043-9.285,24.785-18.22,37.873-26.558l.874-.556-.587-.854a271.974,271.974,0,0,0-24.024-29.9Zm-14.02,56.564-.187-.155c-1.834-1.52-3.666-3.038-5.473-4.59l-5.543-4.766-5.693,4.6c-1.756,1.421-3.623,2.842-5.427,4.216q-1.008.768-2.011,1.535c-5.438-3.961-10.327-7.4-14.911-10.5a420.906,420.906,0,0,0,53.2-44.017,270.1,270.1,0,0,1,22.558,28.068c-12.6,8.063-24.877,16.675-36.511,25.614" transform="translate(658 180)" fill="#ca9f44"/>
    <path id="Path_12" data-name="Path 12" d="M445.238,328.263l2.2,1.578c3.353,2.407,6.82,4.894,10.3,7.235,1.575,1.065,3.161,2.1,4.75,3.138l2,1.308.548-.357c6.532-4.264,13.388-8.538,20.376-12.7l1.438-.857-1.436-.86c-6.456-3.868-12.973-7.943-19.371-12.112l-.547-.356-.654.428c-2.532,1.654-5.15,3.366-7.593,5.033-3.135,2.128-6.228,4.359-9.219,6.516Zm3.959-.387c2.98-2.149,6.061-4.372,9.174-6.485,2.288-1.561,4.738-3.166,7.124-4.726,5.77,3.751,11.633,7.424,17.457,10.936-6.321,3.79-12.524,7.664-18.465,11.532l-.909-.593c-1.581-1.033-3.158-2.062-4.724-3.122h0c-3.431-2.311-6.865-4.774-10.188-7.158Z" transform="translate(658 180)" fill="#ca9f44"/>
    <path id="Path_13" data-name="Path 13" d="M404.95,406.421l.72.71c24.367,23.99,55.15,46.914,91.493,68.133l.505.295.5-.295c36.636-21.409,66.418-43.713,91.046-68.183l.716-.712-.719-.709a417.79,417.79,0,0,0-58.356-47.307l-.539-.366-2.371,1.49c-1.147.725-2.293,1.448-3.483,2.173-1.419.876-2.982,1.943-4.729,3.147-6.022,4.13-12.849,8.812-19.919,9.773a15.138,15.138,0,0,1-2.1.143c-7.806,0-15.937-5.631-22.481-10.164l-.372-.255c-1.436-.994-2.792-1.931-3.969-2.651h0c-1.345-.82-2.69-1.67-4.036-2.52l-2.223-1.4-.541.369a411.7,411.7,0,0,0-58.429,47.618Zm59.73-46.309,1.111.7c1.356.857,2.71,1.713,4.064,2.537,1.129.691,2.462,1.613,3.874,2.588l.381.264c6.762,4.682,15.178,10.511,23.609,10.511a17.17,17.17,0,0,0,2.373-.162c7.536-1.024,14.57-5.849,20.778-10.106,1.726-1.188,3.267-2.241,4.642-3.09,1.194-.727,2.349-1.457,3.5-2.186l1.26-.793a416.393,416.393,0,0,1,56.813,46c-24.253,23.958-53.522,45.843-89.421,66.868-35.624-20.845-65.851-43.321-89.872-66.828a410.432,410.432,0,0,1,56.884-46.3" transform="translate(658 180)" fill="#ca9f44"/>
  </g>
</svg>
