<svg xmlns="http://www.w3.org/2000/svg" width="350.175" height="737.065" viewBox="0 0 350.175 737.065">
  <g id="decorative_shape" data-name="decorative shape" transform="translate(-1000.11 -180)">
    <path id="Path_1" data-name="Path 1" d="M533.075,345.193l.754-.493c2.838-1.855,5.773-3.773,8.511-5.642,3.54-2.4,7.031-4.922,10.409-7.358l3.081-2.22-2.579-1.849c-3.732-2.677-7.591-5.446-11.461-8.051-1.741-1.177-3.494-2.322-5.251-3.469l-2.332-1.526-.616.4c-7.362,4.8-15.062,9.606-22.89,14.27l-1.615.963,1.613.966c7.231,4.332,14.552,8.91,21.761,13.607Zm1.13-27.924,1.105.723c1.748,1.14,3.492,2.278,5.223,3.45h0c3.843,2.587,7.688,5.345,11.407,8.013l.038.028-.546.393c-3.365,2.427-6.845,4.937-10.359,7.323-2.57,1.754-5.323,3.557-8,5.308-6.5-4.224-13.085-8.35-19.611-12.284,7.083-4.247,14.05-8.6,20.743-12.956" transform="translate(678.603 218.817)" fill="#4a5362"/>
    <path id="Path_2" data-name="Path 2" d="M477.067,351.033l1.5.948c1.646,1.039,3.506,2.313,5.108,3.42,6.075,4.215,12.867,8.711,16.59,8.711h.074l.074-.01c4.527-.6,10.876-4.962,15.975-8.463,1.612-1.1,3.331-2.269,4.981-3.318l1.491-.949-1.492-.947c-7.343-4.662-14.247-8.875-21.106-12.876l-.567-.331-.566.331c-6.991,4.092-13.91,8.311-20.564,12.536ZM499.7,339.818c6.187,3.62,12.418,7.415,18.986,11.565-1.2.791-2.411,1.612-3.563,2.4-4.873,3.343-10.929,7.5-14.926,8.077-3.377-.08-11.679-5.839-15.24-8.309-1.156-.8-2.447-1.686-3.7-2.514,5.993-3.781,12.188-7.55,18.445-11.223" transform="translate(674.652 221.609)" fill="#4a5362"/>
    <path id="Path_3" data-name="Path 3" d="M591.794,335.913l-.7.566c-.839.681-1.685,1.359-2.53,2.038-1.83,1.469-3.722,2.991-5.532,4.518l-4.784,4.05-4.892-3.91c-1.757-1.4-3.587-2.787-5.358-4.124q-1.4-1.055-2.783-2.113l-.668-.513-.68.5c-5.967,4.377-11.559,8.331-17.1,12.09-.532.364-1.094.732-1.655,1.1-.384.249-.765.5-1.138.749l-1.371.913,1.35.943a479.19,479.19,0,0,1,61.528,50.517l.83.816.785-.857a342.61,342.61,0,0,0,22.4-27.045c1.927-2.576,3.811-5.191,5.6-7.768l.663-.955-.976-.63c-5.9-3.8-11.682-7.681-17.178-11.517-7.614-5.32-15.594-11.3-25.115-18.807Zm24.533,21.205c5.216,3.64,10.685,7.315,16.269,10.931-1.573,2.247-3.214,4.514-4.889,6.756-6.435,8.671-13.656,17.417-21.476,26.009a481.224,481.224,0,0,0-59.627-48.99c.488-.319.974-.639,1.435-.954,5.349-3.631,10.745-7.444,16.482-11.638q1.06.809,2.125,1.612c1.759,1.328,3.577,2.7,5.31,4.086l6.337,5.065,6.193-5.244c1.786-1.511,3.668-3.021,5.487-4.481q.922-.741,1.841-1.479c9.244,7.277,17.051,13.113,24.511,18.327Z" transform="translate(682.74 221.448)" fill="#4a5362"/>
    <path id="Path_4" data-name="Path 4" d="M501.266,321.847l.566-.333c6.993-4.094,13.912-8.312,20.565-12.535l1.5-.952-1.5-.947c-1.629-1.028-3.5-2.305-5.107-3.42-6.073-4.215-12.865-8.711-16.59-8.711l-.149.009c-4.525.605-10.873,4.963-15.976,8.465-1.5,1.03-3.27,2.23-4.979,3.318l-1.491.948,1.492.947c7.357,4.672,14.261,8.884,21.106,12.877Zm-15.424-16.57h0c4.873-3.344,10.931-7.5,14.925-8.078,3.381.081,11.681,5.839,15.24,8.31,1.16.8,2.453,1.69,3.7,2.513-5.992,3.781-12.185,7.549-18.444,11.223-6.174-3.612-12.406-7.408-18.986-11.565,1.247-.82,2.474-1.655,3.563-2.4" transform="translate(674.78 216.394)" fill="#4a5362"/>
    <path id="Path_5" data-name="Path 5" d="M644.715,456.462a360.2,360.2,0,0,0,23.548-28.426c3.712-4.959,7.474-10.355,11.18-16.041l5.482-8.428-8.53-5.316c-8.17-5.095-16.259-10.43-24.042-15.854-6.618-4.628-13.307-9.548-19.9-14.633,14.452-10.906,29.287-21.067,44.111-30.214l8.54-5.259-5.406-8.449a314.521,314.521,0,0,0-33.794-43.408,364.228,364.228,0,0,0,23.568-28.418,292.074,292.074,0,0,0,18.42-27.856l4.391-7.606-7.055-5.24c-62.707-46.531-113.276-105.2-146.241-169.656-3.956-7.758-7.419-14.888-10.589-21.8L519.286,0l-8.86,19.978c-19.02,42.89-45.455,83.45-78.572,120.551a511.012,511.012,0,0,1-80.216,72.28L344.5,218l4.379,7.666a306.189,306.189,0,0,0,40.8,54.935,360.107,360.107,0,0,0-23.548,28.425c-3.717,4.968-7.478,10.363-11.18,16.04l-5.482,8.429L358,338.813c8.174,5.1,16.263,10.433,24.042,15.856,6.618,4.628,13.305,9.547,19.9,14.633-14.459,10.91-29.293,21.07-44.111,30.214l-8.539,5.259,5.406,8.448a314.416,314.416,0,0,0,33.794,43.409,363.66,363.66,0,0,0-23.569,28.418,292.209,292.209,0,0,0-18.42,27.856l-4.391,7.607,7.056,5.238c62.707,46.532,113.277,105.2,146.241,169.657,3.957,7.762,7.421,14.891,10.588,21.795l9.116,19.864,8.859-19.978c19.02-42.89,45.456-83.45,78.572-120.551a511.147,511.147,0,0,1,80.216-72.281l7.139-5.193-4.378-7.666a306.053,306.053,0,0,0-40.8-54.934m36.72,65.977a513.474,513.474,0,0,0-80.57,72.6c-33.273,37.276-59.834,78.033-78.95,121.136l-6.84,15.425-7.039-15.337c-3.18-6.934-6.657-14.089-10.63-21.879-33.121-64.766-83.919-123.7-146.9-170.439l-5.448-4.045,3.39-5.873a289.729,289.729,0,0,1,18.28-27.64,361.821,361.821,0,0,1,24.118-29l.7-.765-.707-.761a312.808,312.808,0,0,1-34.252-43.853l-4.173-6.522,6.593-4.061c15.279-9.426,30.574-19.931,45.459-31.221l1.167-.885-1.158-.9c-7-5.427-14.111-10.674-21.149-15.6-7.811-5.446-15.932-10.8-24.139-15.921l-6.586-4.1,4.233-6.508c3.673-5.635,7.407-10.99,11.1-15.923a358.771,358.771,0,0,1,24.1-29.009l.7-.763-.706-.762a304.682,304.682,0,0,1-41.2-55.284l-3.381-5.918,5.514-4.01a513.385,513.385,0,0,0,80.568-72.6C466.8,104.749,493.364,63.994,512.48,20.889l6.84-15.425L526.358,20.8c3.183,6.937,6.661,14.093,10.631,21.881,33.121,64.766,83.92,123.7,146.9,170.437l5.447,4.045-3.39,5.873a289.5,289.5,0,0,1-18.28,27.64,362.168,362.168,0,0,1-24.117,29l-.7.764.706.761a312.974,312.974,0,0,1,34.253,43.853l4.173,6.524-6.594,4.06c-15.286,9.432-30.581,19.937-45.459,31.221l-1.166.885,1.157.9c7,5.428,14.112,10.676,21.15,15.6,7.815,5.448,15.936,10.8,24.139,15.92l6.585,4.1-4.232,6.508c-3.68,5.642-7.413,11-11.1,15.923a359.072,359.072,0,0,1-24.1,29.009l-.7.763.706.762a304.644,304.644,0,0,1,41.2,55.283l3.38,5.919Z" transform="translate(658 180)" fill="#4a5362"/>
    <path id="Path_6" data-name="Path 6" d="M398.621,404.079l.828-.821a470.653,470.653,0,0,1,61.645-50.969l1.335-.934-1.346-.917c-.169-.113-.338-.224-.507-.333s-.365-.238-.556-.371c-5.409-3.648-11.189-7.72-17.668-12.449l-.681-.5L441,337.3q-1.458,1.124-2.932,2.242c-2.034,1.549-4.14,3.151-6.132,4.763L427,348.295l-4.809-4.134c-2.067-1.775-4.162-3.509-6.26-5.249l-1.511-1.254-.712.549c-13.52,10.425-27.834,20.464-42.545,29.834l-.982.626.659.958a306.051,306.051,0,0,0,26.988,33.6Zm15.75-63.545.128.108c2.088,1.73,4.173,3.457,6.23,5.222l6.228,5.356,6.4-5.163c1.967-1.593,4.059-3.185,6.081-4.724q1.139-.868,2.274-1.737c6.111,4.452,11.606,8.32,16.752,11.8A472.667,472.667,0,0,0,398.7,400.841a303.927,303.927,0,0,1-25.34-31.532c14.164-9.062,27.953-18.736,41.015-28.775" transform="translate(661.464 221.557)" fill="#4a5362"/>
    <path id="Path_7" data-name="Path 7" d="M400.465,265.031l.828-.821c29.545-29.324,65.414-55.943,109.655-81.378l3.793-2.18,3.793,2.182c43.77,25.143,80.807,52.48,110.08,81.256l.83.814.786-.857A345.805,345.805,0,0,0,652.654,237c5.007-6.757,9.368-13.144,13.333-19.525l.537-.866-.81-.619c-61.9-47.314-112.068-106.44-145.075-170.982q-1.483-2.924-2.892-5.738l-1.01-2.025-1,2.029A486.955,486.955,0,0,1,442.1,147.572a525.585,525.585,0,0,1-76.583,70.043l-.819.613.535.873a294.455,294.455,0,0,0,34.444,45.072Zm43.309-115.963A489.8,489.8,0,0,0,516.747,42.29q.929,1.849,1.891,3.741c33.015,64.561,83.105,123.714,144.9,171.127-3.788,6.042-7.947,12.107-12.691,18.507-6.475,8.705-13.7,17.45-21.493,26.005-29.279-28.609-66.181-55.785-109.7-80.785l-4.911-2.825-4.913,2.825c-44,25.3-79.762,51.769-109.288,80.908a292.245,292.245,0,0,1-32.857-43,527.545,527.545,0,0,0,76.091-69.728" transform="translate(660.787 184.596)" fill="#4a5362"/>
    <path id="Path_8" data-name="Path 8" d="M414.37,327.679l.7-.566q1.264-1.026,2.539-2.046c1.828-1.467,3.716-2.984,5.521-4.51l4.785-4.05,4.893,3.911c1.755,1.4,3.583,2.783,5.351,4.118q1.4,1.057,2.789,2.118l.667.513.68-.5c5.98-4.385,11.572-8.339,17.1-12.09.538-.367,1.107-.738,1.674-1.11.376-.246.753-.492,1.119-.737l1.372-.912-1.351-.944a479.251,479.251,0,0,1-61.528-50.518l-.83-.816-.786.858a343.183,343.183,0,0,0-22.4,27.043c-1.939,2.6-3.822,5.209-5.6,7.768l-.662.955.976.629c5.91,3.812,11.69,7.687,17.179,11.519,7.611,5.317,15.59,11.292,25.112,18.807Zm-24.531-21.205c-5.208-3.636-10.677-7.311-16.269-10.933,1.563-2.231,3.2-4.5,4.89-6.755,6.43-8.666,13.651-17.413,21.475-26.009a481.365,481.365,0,0,0,59.627,48.991c-.488.32-.973.639-1.433.954-5.337,3.623-10.736,7.435-16.484,11.637q-1.063-.81-2.133-1.617c-1.756-1.327-3.571-2.7-5.3-4.08l-6.337-5.065-6.194,5.244c-1.783,1.508-3.66,3.015-5.477,4.473q-.927.745-1.85,1.488C405.1,317.521,397.3,311.684,389.838,306.474Z" transform="translate(661.49 212.025)" fill="#4a5362"/>
    <path id="Path_9" data-name="Path 9" d="M613.807,258.217l-.809-.8c-27.374-26.952-61.956-52.705-102.782-76.541l-.567-.331-.566.331c-41.155,24.051-74.612,49.107-102.28,76.6l-.8.8.809.8a469.325,469.325,0,0,0,65.555,53.144l.607.411,2.66-1.672c1.289-.816,2.577-1.629,3.915-2.444,1.579-.974,3.269-2.128,5.314-3.534,6.764-4.64,14.43-9.9,22.376-10.98a17.2,17.2,0,0,1,2.359-.16c8.771,0,17.907,6.328,25.254,11.417l.42.29c1.613,1.114,3.135,2.167,4.456,2.975h0c1.531.934,3.065,1.9,4.6,2.87l2.434,1.535.607-.415c24.886-16.946,46.971-34.944,65.639-53.494Zm-67.1,52.023-1.185-.747c-1.544-.976-3.086-1.95-4.628-2.889-1.266-.775-2.765-1.81-4.351-2.906l-.425-.293c-7.6-5.263-17.053-11.812-26.527-11.812a19.3,19.3,0,0,0-2.666.181c-8.47,1.151-16.37,6.572-23.341,11.354-2.02,1.389-3.687,2.526-5.216,3.47-1.342.818-2.642,1.639-3.942,2.46l-1.411.889a468,468,0,0,1-63.823-51.676c27.247-26.915,60.126-51.5,100.456-75.119,40.019,23.415,73.974,48.665,100.961,75.074a461.074,461.074,0,0,1-63.9,52.015" transform="translate(665.883 202.278)" fill="#4a5362"/>
    <path id="Path_10" data-name="Path 10" d="M629.409,416.954l-.79-.858-.828.822c-29.543,29.322-65.412,55.94-109.655,81.376l-3.793,2.182-3.791-2.182c-43.77-25.143-80.807-52.48-110.081-81.255l-.829-.816-.786.857a345.947,345.947,0,0,0-22.425,27.041c-5.011,6.766-9.374,13.153-13.332,19.526l-.538.865.81.62c61.9,47.316,112.071,106.442,145.075,170.982q1.483,2.924,2.892,5.738l1.011,2.025,1-2.03a486.915,486.915,0,0,1,73.637-108.292,525.341,525.341,0,0,1,76.583-70.045l.819-.613-.536-.873a294.342,294.342,0,0,0-34.443-45.072M585.31,532.06a489.735,489.735,0,0,0-72.972,106.777q-.93-1.847-1.892-3.741c-33.013-64.559-83.1-123.712-144.9-171.127,3.782-6.034,7.941-12.1,12.689-18.508,6.479-8.707,13.705-17.451,21.494-26,29.279,28.608,66.181,55.784,109.7,80.785l4.911,2.823,4.911-2.823c44-25.3,79.764-51.77,109.289-80.909a291.914,291.914,0,0,1,32.856,43A527.338,527.338,0,0,0,585.31,532.06" transform="translate(660.523 231.342)" fill="#4a5362"/>
    <path id="Path_11" data-name="Path 11" d="M607.443,259.42l-.828.821a470.758,470.758,0,0,1-61.645,50.97l-1.336.935,1.35.916c.167.113.337.224.506.334s.365.237.554.367c5.41,3.648,11.189,7.72,17.668,12.451l.681.5.668-.516c.965-.745,1.94-1.486,2.915-2.229,2.04-1.554,4.151-3.16,6.148-4.777l4.937-3.986,4.808,4.134c2.042,1.752,4.108,3.466,6.179,5.182l1.593,1.32.711-.548c13.529-10.431,27.843-20.468,42.546-29.835l.982-.625-.659-.959a305.524,305.524,0,0,0-26.988-33.595Zm-15.75,63.543-.21-.174c-2.06-1.708-4.118-3.413-6.148-5.156l-6.227-5.354-6.4,5.162c-1.973,1.6-4.07,3.193-6.1,4.736q-1.132.863-2.259,1.724c-6.109-4.45-11.6-8.318-16.751-11.8a472.851,472.851,0,0,0,59.762-49.448,303.42,303.42,0,0,1,25.341,31.531c-14.158,9.058-27.947,18.733-41.016,28.775" transform="translate(682.866 212.01)" fill="#4a5362"/>
    <path id="Path_12" data-name="Path 12" d="M445.238,329.989l2.471,1.773c3.767,2.7,7.662,5.5,11.568,8.128,1.769,1.2,3.551,2.36,5.336,3.525l2.247,1.469.616-.4c7.338-4.79,15.04-9.591,22.89-14.27l1.615-.963-1.613-.966c-7.253-4.345-14.574-8.923-21.761-13.607l-.614-.4-.735.481c-2.844,1.858-5.785,3.781-8.53,5.654-3.522,2.391-7,4.9-10.357,7.32Zm4.447-.435c3.348-2.414,6.809-4.911,10.306-7.285,2.57-1.754,5.323-3.557,8-5.309,6.482,4.214,13.068,8.34,19.611,12.285-7.1,4.258-14.069,8.61-20.743,12.955l-1.021-.666c-1.776-1.16-3.548-2.316-5.307-3.507h0c-3.854-2.6-7.712-5.363-11.445-8.041Z" transform="translate(670.725 218.779)" fill="#4a5362"/>
    <path id="Path_13" data-name="Path 13" d="M404.95,412.43l.809.8c27.374,26.95,61.955,52.7,102.782,76.54l.567.331.566-.331c41.157-24.051,74.613-49.107,102.28-76.6l.8-.8-.808-.8a469.343,469.343,0,0,0-65.557-53.144l-.606-.411-2.664,1.674c-1.289.814-2.576,1.627-3.913,2.441-1.594.984-3.35,2.183-5.312,3.535-6.765,4.64-14.434,9.9-22.377,10.979a17.006,17.006,0,0,1-2.358.161c-8.769,0-17.9-6.326-25.255-11.418l-.418-.286c-1.613-1.117-3.137-2.169-4.459-2.978h0c-1.511-.921-3.022-1.876-4.534-2.831l-2.5-1.574-.608.415c-24.89,16.947-46.973,34.946-65.639,53.494Zm67.1-52.023,1.248.788c1.523.963,3.044,1.924,4.565,2.85,1.268.776,2.766,1.812,4.352,2.907l.428.3c7.6,5.26,17.051,11.808,26.522,11.808a19.287,19.287,0,0,0,2.666-.182c8.466-1.15,16.368-6.571,23.342-11.353,1.939-1.335,3.67-2.518,5.215-3.471,1.341-.817,2.639-1.637,3.936-2.456l1.415-.891a467.77,467.77,0,0,1,63.823,51.675c-27.246,26.914-60.126,51.5-100.455,75.119-40.02-23.417-73.976-48.666-100.961-75.074a461.076,461.076,0,0,1,63.9-52.016" transform="translate(665.754 224.139)" fill="#4a5362"/>
  </g>
</svg>
