<svg xmlns="http://www.w3.org/2000/svg" width="244.755" height="89.943" viewBox="0 0 244.755 89.943">
  <g id="logo" transform="translate(-1033.589 -887.441)">
    <text id="UNIVERSE" transform="translate(1115.347 974.384)" fill="#cac6be" font-size="12.974" font-family="SegoeUI, Segoe UI"><tspan x="0" y="0" letter-spacing="0.2em">U</tspan><tspan y="0" letter-spacing="0.199em">N</tspan><tspan y="0" letter-spacing="0.2em">I</tspan><tspan y="0" letter-spacing="0.199em">VER</tspan><tspan y="0" letter-spacing="0.2em">S</tspan><tspan y="0">E</tspan></text>
    <path id="Path_29" data-name="Path 29" d="M420.619,746.745l.372-.147a41.589,41.589,0,0,0-1.681-5.98c-2.792-6.29-8.117-9.121-14.659-9.606-5.194-.386-10.435-.313-15.649-.192a24.365,24.365,0,0,0-6.466,1.2,10.044,10.044,0,0,0-6.907,7.287,3.563,3.563,0,0,0-.011.947l.322.064c2.175-5.183,6.409-7.009,11.736-7.282.022.482.056.893.056,1.3,0,8.29-.012,16.58.024,24.87a1.434,1.434,0,0,1-1.115,1.641c-5.5,2.031-9.194,5.752-10.493,11.582a8.6,8.6,0,0,0-.058,4.617c.146-.065.222-.077.262-.122a.993.993,0,0,0,.171-.263c3.47-7.791,9.991-10.8,18.015-11.326,2.687-.175,5.4.078,8.091-.066a33.452,33.452,0,0,0,6.112-.862,15.234,15.234,0,0,0,8.055-4.9l-1.8-2.045a9.849,9.849,0,0,1,2.23.5c.236.069.582.144.743.028a3.836,3.836,0,0,0,.831-4.667c-.453-.734-.813-1.524-1.287-2.425l2.44,2.118.309-.273c.082-.373.168-.745.246-1.118a4.125,4.125,0,0,0-.492-3.271,41.338,41.338,0,0,1-2.087-4.238l.285-.175q1.2,1.4,2.4,2.791m-7.93,2.406a17.506,17.506,0,0,1-2.792,9.616,9.954,9.954,0,0,1-8.439,4.487c-1.785.039-3.572-.029-5.356.025-.795.024-1.008-.244-1-1.017.029-5.626,0-11.252.029-16.878a3.058,3.058,0,0,0-.984-2.624,1.066,1.066,0,0,1-.228-.91c.23-.881.567-1.734.852-2.6.086-.261.137-.533.2-.781-1.291-.906-1.328-1.833-.243-2.939a2.021,2.021,0,0,0,.375-1.086,12.936,12.936,0,0,0,.015-1.61,76.585,76.585,0,0,1,9.068.534c3.42.592,5.538,3.1,6.942,6.157a20.8,20.8,0,0,1,1.566,9.627" transform="translate(658 180)" fill="#cac6be"/>
    <path id="Path_30" data-name="Path 30" d="M619.531,771a11.1,11.1,0,0,1-7.841-1.576c-2.649-1.583-6.287-6.486-7.124-7-1.232-.757.528-1.113.961-2.526a1.407,1.407,0,0,1-.409-2.159c.28-.379.964-.46,1.644-.753,0-2.346-.06-5,.026-7.658a4.416,4.416,0,0,0-1.115-3.124,30.05,30.05,0,0,1-2.026-3.246l3.061,2.722c.03-.62.052-.862.052-1.1,0-3.288-.008-6.576.006-9.864.007-1.742.708-2.819,2.08-3.254.494-.068,1.9-.068,1.9-.068v-.45h-.031c-.005-.029-15.075,0-15.075,0v.45s1.046,0,1.684.041c1.973.452,2.473,1.385,2.473,3.913q0,8.972,0,17.944c0,.367-.03.734-.06,1.414l-25.389-26.008c.194,1.8.371,3.565.581,5.321a2.111,2.111,0,0,0,.333.855c1.192,1.851,2.4,3.691,3.607,5.531.385.587.784,1.163,1.177,1.744l-.284.209c-1.579-1.795-3.157-3.591-4.932-5.61,0,.822,0,1.341,0,1.861.026,7.59.064,15.179.073,22.769,0,2.012-.826,3.033-2.61,3.324-.61.041-1.605.04-1.605.04v.451H586v-.451s-.5,0-1.015-.013c-2.249-.307-3.033-1.269-3.034-3.671q0-8.973,0-17.944v-1.1l.463-.319a4.738,4.738,0,0,0,.557,1c2.655,2.835,5.335,5.647,8,8.474,2.688,2.853,5.346,5.733,8.053,8.567,2.9,3.036,1.968,5.213,5.005,8.109,2.727,2.6,6.06,4.785,9.939,5.142a10.522,10.522,0,0,0,6.378-1.783,1.218,1.218,0,0,0-.813-.2" transform="translate(658 180)" fill="#cac6be"/>
    <path id="Path_31" data-name="Path 31" d="M445.894,756.827l3.73,3.092c-2.565-3.409-4.951-6.947-8.736-9.448,3.922-.473,6.324-2.051,7.484-4.759-.511-.787-1.068-1.551-1.5-2.378-.14-.266.04-.7.073-1.057a2.727,2.727,0,0,1,.914.108,12.252,12.252,0,0,1,1.343.885c.4-4.867-1.153-7.615-5.3-9.192a11.657,11.657,0,0,0-3.728-.872c-6-.159-18.787-.252-18.787-.252a3.213,3.213,0,0,0,.127.534c3.235,1.1,3.768,1.164,3.768,4.6q0,11.235,0,22.471c0,2.022-.233,2.977-1.25,3.6a5.609,5.609,0,0,1-.936.371,13.554,13.554,0,0,1-1.709.09v.552h14.469v-.552a13.554,13.554,0,0,1-1.709-.09,3.633,3.633,0,0,1-.572-.206,2.716,2.716,0,0,1-1.3-2.849c.15-1.865-.184-3.431-1.765-4.6a8.345,8.345,0,0,1-1.094-1.19l.165-.117,2.657,1.585V735.222c5.177-.833,8.583.548,9.5,4.676a7.959,7.959,0,0,1-.835,6.212c-1.682,2.607-4.486,2.807-7.181,3.074a27.011,27.011,0,0,1,2.105,2.408c3.071,4.476,6.065,9.006,9.14,13.481,4.569,6.649,10.645,10.418,19,9.652a13.625,13.625,0,0,0,5.935-1.884c-11.042-1.189-18.012-7.885-24-16.014" transform="translate(658 180)" fill="#cac6be"/>
    <path id="Path_32" data-name="Path 32" d="M538.58,772.737c-7.028.893-12.525-3.414-13.88-10.372-.637-3.273-.408-6.718-.508-10.087-.052-1.766.551-2.315,2.375-2.444a2.83,2.83,0,0,0,.6-.177l-.044-.126H514.264c3.009.743,3.076.745,2.982,3.866a5.677,5.677,0,0,0,1.269,3.258c.717,1.155,1.539,2.245,2.315,3.363l-.191.189-3.332-2.356a4.2,4.2,0,0,1-1.66,3.483,9.045,9.045,0,0,1-7.312,2.084c-5.568-.646-8.594-4.182-10.162-9.222a20.345,20.345,0,0,1-.565-8.009c.549-5.923,4.794-13.229,13.717-12.278,4.165.444,7.352,2.179,9.227,5.666a9.461,9.461,0,0,1,.673,1.545,13.555,13.555,0,0,1,.09,1.709h.551v-.43c.006.01.011.02.016.03,0-2.474-.055-4.683.025-6.887a1.537,1.537,0,0,0-1.254-1.73A32.3,32.3,0,0,0,504.7,732.27a17.456,17.456,0,0,0-11.569,6.533,5.173,5.173,0,0,0-.364,5.891c.235.409.453.829.679,1.244l-.17.128-2.749-1.91a17.058,17.058,0,0,0-.141,8.479c1.639,6.976,8.193,12.141,15.846,12.655a26.783,26.783,0,0,0,11.951-1.646c1.683,4.4,4.537,8.273,8.953,9.891a17.147,17.147,0,0,0,12.826-.55c-.008-.124-.016-.248-.023-.372-.454.041-.909.067-1.36.124" transform="translate(658 180)" fill="#cac6be"/>
    <path id="Path_33" data-name="Path 33" d="M550.568,731.975c-4.32.645-7.083,3.267-7.729,7.418a6.724,6.724,0,0,0,.814,4.753l.336-.048c-.061-.453-.116-.906-.182-1.358a7.746,7.746,0,0,1,7.2-8.854c4.4-.27,7.954,2.035,9.7,6.347a21.124,21.124,0,0,1,.744,13.841c-1.112,4.022-3.42,7.2-7.508,8.688-6.457,2.355-12.814-.785-15.4-7.512a23.7,23.7,0,0,1-1.2-10.747c.369-4.179,1.338-8.2,4.464-11.331.035-.035-.011-.152-.033-.365a7.1,7.1,0,0,0-.934.172,15.4,15.4,0,0,0-6.45,3.836,6.277,6.277,0,0,0-.892,1.866c-.389.87-.759,1.75-1.168,2.611-.053.109-.288.154-.447.188a1.327,1.327,0,0,0-1,2.145c.66,1.148,1.4,2.254,2.032,3.415a7.438,7.438,0,0,1,.454,1.514l-.282.129-3.3-2.1c-.073.59-.133.873-.14,1.156-.189,7.592,3.932,13.53,11.234,16.224a27.071,27.071,0,0,0,12.286,1.257,19.155,19.155,0,0,0,13.133-6.521,1.224,1.224,0,0,0,.191-1.674c-.85-1.452-1.575-2.977-2.352-4.472l.277-.328a6.094,6.094,0,0,1,1.256.972c.734.957,1.374,1.981,2.831,1.718a16.592,16.592,0,0,0-17.924-22.935" transform="translate(658 180)" fill="#cac6be"/>
    <path id="Path_34" data-name="Path 34" d="M492.5,764.561a2.625,2.625,0,0,1-.355-.117,7.4,7.4,0,0,1-3.035-3.918c-.957-2.329-2.078-4.591-3-6.6-.75-.057-1.558.126-1.883-.188-1.07-1.037-.935-1.992.28-3.462-1.784-.658-2.314-2.252-2.959-3.8a2.912,2.912,0,0,0-1.2-1.532c-2.655-1.145-4.482-2.936-4.994-5.708l5.053,3.069.251-.262q-2.814-6.114-5.627-12.228l-.338.081c-.341.951-.626,1.926-1.032,2.848q-6.432,14.59-12.894,29.167a4.618,4.618,0,0,1-1.848,2.147,7.285,7.285,0,0,1-1.209.5,13.7,13.7,0,0,1-1.709.089v.552h11.051v-.552s-.944,0-1.473-.055c-1.389-.547-1.721-1.509-1.081-3.122.662-1.666,1.321-3.339,2.1-4.952a1.806,1.806,0,0,1,1.287-.9c3.215-.077,6.433-.023,9.65-.055a1.278,1.278,0,0,1,1.391,1.013c.55,1.525,1.2,3.016,1.8,4.524.8,2.017.63,2.862-.989,3.49-.532.054-1.459.053-1.459.053v.552h15.927v-.552a13.7,13.7,0,0,1-1.709-.089m-24.6-11.182,4.842-11.779,4.842,11.779Z" transform="translate(658 180)" fill="#cac6be"/>
    <path id="Path_35" data-name="Path 35" d="M452.637,721.581a12.18,12.18,0,0,0,3.726-1.3c.484-.211,1.153-.546.729-1.378-.049-.1.24-.387.4-.56.382-.409,1-.737,1.139-1.212.957-3.147.285-7.409-4.152-8.778-2.96-.913-6.029-.573-9.144-.452.537,1.318,1.018,2.5,1.555,3.814l-1.112-.784c0,2.943.056,5.771.013,8.6a1.661,1.661,0,0,1-1.78,1.752v.411l1.875-.037c2.254.027,4.51.1,6.749-.07m-2.926-12.888a3.177,3.177,0,0,0,.478,0c3.581,0,5.441,1.724,5.55,5.31a12.3,12.3,0,0,1-.394,3.577,4.173,4.173,0,0,1-4.371,3.274c-2.256.054-2.256.054-2.256-2.149v-3.917c0-1.688.032-3.377-.014-5.064-.02-.763.18-1.159,1.007-1.034" transform="translate(658 180)" fill="#cac6be"/>
    <path id="Path_36" data-name="Path 36" d="M519.238,709.256l-3.826,5.058,1.614,2.443-1.328-.773-.147.2c1.876,2.243,3.678,4.553,5.659,6.7a11.57,11.57,0,0,0,3.277,2.4,4.756,4.756,0,0,0,4.972-.342,8.6,8.6,0,0,1-5.539-3.133c-.284-.3-.793-.387-1.163-.626a2.225,2.225,0,0,1-.761-.7,27.8,27.8,0,0,0-1.422-2.78c-1.006-1.422-2.168-2.735-3.307-4.147,1.124-1.33,2.24-2.591,3.285-3.909a8.087,8.087,0,0,1,.7-.788,6.842,6.842,0,0,1,.938-.488,5.587,5.587,0,0,1,.938-.067v-.4c.023,0,.046-.008.07-.01h-4.548v.41a5.641,5.641,0,0,1,.932.066c.079.262-.1.566-.34.881" transform="translate(658 180)" fill="#cac6be"/>
    <path id="Path_37" data-name="Path 37" d="M466.538,721.514V721.1s-1.583.072-1.58-.959c.012-3.819-.048-7.638-.048-11.5,2.183-.378,3.7.27,3.983,1.806a5.2,5.2,0,0,1-.2,2.6c-.472,1.3-1.843,1.363-2.954,1.609,1.474,2.172,2.928,4.295,4.361,6.431a9.641,9.641,0,0,0,4.969,4.135,7.547,7.547,0,0,0,6.033-.459,4.637,4.637,0,0,0-.581-.13,7.835,7.835,0,0,1-5.173-2.175c-.742-.693-1.839-2.107-2.627-2.734-.726-.577-1.279.457-1.08-1.529.011-.108-.189-.244-.3-.361-.8-.873-1.61-1.745-2.434-2.638a8.885,8.885,0,0,0,.911-.264,3.78,3.78,0,0,0,2.268-2.419c.351-1.024-.548-1.374-1.022-2.121l1.064.133a3.544,3.544,0,0,0-3.5-2.714c-2.662-.162-5.635-.241-8.469-.241,0,.235-.03.352.13.334.745-.083,1.507.292,1.5,1.129-.033,3.185,0,7.033.027,10.218a3.957,3.957,0,0,1-.06,1.268,4.731,4.731,0,0,1-.856.507,5.545,5.545,0,0,1-.937.066v.411Z" transform="translate(658 180)" fill="#cac6be"/>
    <path id="Path_38" data-name="Path 38" d="M476.328,708.643a2.573,2.573,0,0,1,.134.979c-.028,2.453-.032,4.907,0,7.36a4.492,4.492,0,0,0,3.058,4.415,8.673,8.673,0,0,0,5.269.327,4.426,4.426,0,0,0,3.716-4.281c.152-2.6.109-5.222.092-7.833a2,2,0,0,1,.274-1.191.722.722,0,0,1,.1-.038,5.482,5.482,0,0,1,.938-.067v-.41h-4.144v.41a5.465,5.465,0,0,1,.937.067,1.756,1.756,0,0,1,.322.158,2.094,2.094,0,0,1,.17.961c-.018,2.421,0,4.843-.014,7.265a6.358,6.358,0,0,1-.155,1.323,3.619,3.619,0,0,1-3.549,3.033,3.566,3.566,0,0,1-3.815-2.8,8.007,8.007,0,0,1-.224-1.791c-.052-1.388-1.183-3.049-.062-4.187a6.5,6.5,0,0,0,.044-2.56,2.489,2.489,0,0,1,.18-1.286,1.437,1.437,0,0,1,.245-.114,5.481,5.481,0,0,1,.938-.067v-.41H474.9v.41a5.465,5.465,0,0,1,.937.067,2.519,2.519,0,0,1,.492.262" transform="translate(658 180)" fill="#cac6be"/>
    <path id="Path_39" data-name="Path 39" d="M493.048,708.437c.318.145.1,2.154.266,2.359a6.347,6.347,0,0,1,.872,1.443,1.221,1.221,0,0,1-.1,1.617c-.251.307-.619.662-.627,1-.055,2.309-.029,4.62-.029,7.031l9.733-9.213c.238,1.542.46,2.972.672,4.345l-.488-.173c0,.964-.029,1.85.01,2.733.088,1.956-1.636,1.659-1.636,1.659v.41h6.152v-.41s-1.685.41-1.708-1.633c-.034-3.091,0-6.183.017-9.275.006-.9.1-1.795.164-2.887l-10.134,9.615c0-2.62-.017-4.909.014-7.2a2.69,2.69,0,0,1,.252-1.194,2.788,2.788,0,0,1,.535-.29,5.586,5.586,0,0,1,.938-.067v-.41H491.8v.41a2.251,2.251,0,0,1,1.25.123" transform="translate(658 180)" fill="#cac6be"/>
    <path id="Path_40" data-name="Path 40" d="M526.935,708.269a3,3,0,0,1,1.037,2.927,5.769,5.769,0,0,0-.486,2.148c.02,2.071-.023,4.143.021,6.213.02.948-.145,1.72-1.291,2.085H537.51c.29-1.268.849-4.009.849-4.009l-.4-.088s-.694,3.223-3.716,3.33c-.893.032-1.788.005-2.681,0-1.476,0-1.992-.375-2.616-2.037L530.471,720V715.26c1.207.087,3.09-.474,4.226.491a2.42,2.42,0,0,1,.254.478,5.483,5.483,0,0,1,.067.938h.411v-1.875h-.008v-2.843h-.411a5.545,5.545,0,0,1-.066.937,5.273,5.273,0,0,1-.556.926,1.484,1.484,0,0,1-.422.1c-1.126.106-2.27.026-3.5.026,0-1.789-.019-3.471.025-5.152.005-.2.365-.558.542-.548a3.815,3.815,0,0,1,1.82.368,4.309,4.309,0,0,1,.979,1.365v-2.686h-7.849v.411a5.566,5.566,0,0,1,.938.066l.013.005" transform="translate(658 180)" fill="#cac6be"/>
    <path id="Path_41" data-name="Path 41" d="M541.445,709.028v-.181a9.248,9.248,0,0,1,1.242,3.428l-1.191-1.786-.214.078v11.378l9.938-9.405c.053.772.088,1.3.123,1.81.808.15,1.094,1.468.613,2.747l-.7-.235c0,1-.037,1.922.01,2.839a1.105,1.105,0,0,1-.706,1.556,5.466,5.466,0,0,1-.937.067v.411h6.082v-.411a5.481,5.481,0,0,1-.938-.067,1.881,1.881,0,0,1-.355-.178,2.277,2.277,0,0,1-.336-1.391c.021-3.156,0-6.311.016-9.466.005-.863.1-1.725.162-2.781L544.2,716.994c-.033-.522-.068-.826-.068-1.13-.005-1.944-.02-3.889.009-5.832a2.946,2.946,0,0,1,.273-1.413,1.685,1.685,0,0,1,.316-.155,5.483,5.483,0,0,1,.938-.067v-.411H539.57v.411a5.467,5.467,0,0,1,.937.067,5.532,5.532,0,0,1,.938.564" transform="translate(658 180)" fill="#cac6be"/>
    <path id="Path_42" data-name="Path 42" d="M515.548,721.652v-.411a.878.878,0,0,0-.362-.066c-1.027,0-1.051-1.227-1.047-1.627.031-3.247.01-6.494.012-9.74a1.823,1.823,0,0,1,.308-1.3,1.634,1.634,0,0,1,.278-.133,5.566,5.566,0,0,1,.938-.066V707.9H509.49v.411a3.291,3.291,0,0,1,1.493.327c.146.135.092,1.118.178,1.29.313.624.674.843.782,1.276-.343-.068-.814-.46-.816-.23-.022,2.581.012,5.859.038,8.44.006.58-.012,1.7-1.167,1.762a1.222,1.222,0,0,0-.363.066v.411Z" transform="translate(658 180)" fill="#cac6be"/>
  </g>
</svg>
